<svg width="120" height="120" viewBox="0 0 120 120" fill="none" xmlns="http://www.w3.org/2000/svg">
  <rect width="120" height="120" rx="24" fill="#FFF7ED"/>
  <path d="M40.5 76C41.8695 68.5781 48.3704 63 56.2 63C57.9852 63 59.7034 63.2899 61.3094 63.8261C64.3481 57.4148 70.876 53 78.4 53C88.3406 53 96.4 60.6112 96.4 70C96.4 70.6804 96.3577 71.3514 96.2757 72.0111C100.764 72.5362 104.25 76.0811 104.25 80.375C104.25 85.0294 100.186 88.8 95.175 88.8H42.675C36.7806 88.8 32 84.3644 32 78.8929C32 77.9355 32.1466 77.0098 32.4198 76.1364L40.5 76Z" fill="#F38020"/>
  <path d="M31.75 80.1125C31.75 77.8604 33.5896 76.0341 35.858 76.0341H80.717C82.9854 76.0341 84.825 77.8604 84.825 80.1125C84.825 82.3646 82.9854 84.1909 80.717 84.1909H35.858C33.5896 84.1909 31.75 82.3646 31.75 80.1125Z" fill="#FAAE40"/>
</svg>
