<svg xmlns="http://www.w3.org/2000/svg" xmlns:xlink="http://www.w3.org/1999/xlink" width="242" zoomAndPan="magnify" viewBox="0 0 181.5 39.749999" height="53" preserveAspectRatio="xMidYMid meet" version="1.0"><defs><g/><clipPath id="80df03825e"><path d="M 0.320312 0 L 36.839844 0 L 36.839844 39.5 L 0.320312 39.5 Z M 0.320312 0 " clip-rule="nonzero"/></clipPath></defs><g fill="#ffffff" fill-opacity="1"><g transform="translate(53.323559, 31.303123)"><g><path d="M 12.40625 0.328125 C 10.3125 0.328125 8.46875 -0.101562 6.875 -0.96875 C 5.28125 -1.84375 4.03125 -3.148438 3.125 -4.890625 C 2.226562 -6.640625 1.78125 -8.789062 1.78125 -11.34375 C 1.78125 -13.90625 2.226562 -16.054688 3.125 -17.796875 C 4.03125 -19.546875 5.28125 -20.851562 6.875 -21.71875 C 8.46875 -22.59375 10.3125 -23.03125 12.40625 -23.03125 C 14.59375 -23.03125 16.445312 -22.601562 17.96875 -21.75 C 19.5 -20.894531 20.585938 -19.59375 21.234375 -17.84375 L 17.96875 -15.84375 L 17.578125 -15.859375 C 17.085938 -17.035156 16.425781 -17.878906 15.59375 -18.390625 C 14.757812 -18.898438 13.695312 -19.15625 12.40625 -19.15625 C 10.519531 -19.15625 9.046875 -18.53125 7.984375 -17.28125 C 6.929688 -16.039062 6.40625 -14.0625 6.40625 -11.34375 C 6.40625 -8.644531 6.929688 -6.671875 7.984375 -5.421875 C 9.046875 -4.179688 10.519531 -3.5625 12.40625 -3.5625 C 15.351562 -3.5625 17.160156 -4.992188 17.828125 -7.859375 L 18.21875 -7.859375 L 21.515625 -6.125 C 20.898438 -3.976562 19.835938 -2.363281 18.328125 -1.28125 C 16.828125 -0.207031 14.851562 0.328125 12.40625 0.328125 Z M 12.40625 0.328125 "/></g></g></g><g fill="#ffffff" fill-opacity="1"><g transform="translate(75.584332, 31.303123)"><g><path d="M 10.0625 0.328125 C 8.488281 0.328125 7.085938 0.132812 5.859375 -0.25 C 4.628906 -0.644531 3.601562 -1.15625 2.78125 -1.78125 C 1.96875 -2.414062 1.347656 -3.109375 0.921875 -3.859375 L 3.390625 -6.875 L 3.765625 -6.875 C 4.453125 -5.863281 5.320312 -5.054688 6.375 -4.453125 C 7.425781 -3.859375 8.65625 -3.5625 10.0625 -3.5625 C 11.257812 -3.5625 12.160156 -3.8125 12.765625 -4.3125 C 13.378906 -4.820312 13.6875 -5.519531 13.6875 -6.40625 C 13.6875 -6.945312 13.585938 -7.398438 13.390625 -7.765625 C 13.203125 -8.128906 12.878906 -8.4375 12.421875 -8.6875 C 11.960938 -8.945312 11.347656 -9.171875 10.578125 -9.359375 L 7.65625 -10.03125 C 5.613281 -10.5 4.09375 -11.269531 3.09375 -12.34375 C 2.09375 -13.425781 1.59375 -14.832031 1.59375 -16.5625 C 1.59375 -17.84375 1.914062 -18.96875 2.5625 -19.9375 C 3.207031 -20.914062 4.140625 -21.675781 5.359375 -22.21875 C 6.585938 -22.757812 8.054688 -23.03125 9.765625 -23.03125 C 11.515625 -23.03125 13.007812 -22.796875 14.25 -22.328125 C 15.5 -21.867188 16.554688 -21.164062 17.421875 -20.21875 L 15.203125 -17.171875 L 14.8125 -17.171875 C 14.164062 -17.847656 13.425781 -18.351562 12.59375 -18.6875 C 11.769531 -19.019531 10.828125 -19.1875 9.765625 -19.1875 C 8.535156 -19.1875 7.597656 -18.96875 6.953125 -18.53125 C 6.316406 -18.101562 6 -17.503906 6 -16.734375 C 6 -16.023438 6.222656 -15.457031 6.671875 -15.03125 C 7.117188 -14.601562 7.894531 -14.269531 9 -14.03125 L 11.984375 -13.421875 C 14.191406 -12.953125 15.789062 -12.160156 16.78125 -11.046875 C 17.78125 -9.929688 18.28125 -8.476562 18.28125 -6.6875 C 18.28125 -5.269531 17.972656 -4.035156 17.359375 -2.984375 C 16.742188 -1.929688 15.820312 -1.113281 14.59375 -0.53125 C 13.363281 0.0390625 11.851562 0.328125 10.0625 0.328125 Z M 10.0625 0.328125 "/></g></g></g><g fill="#ffffff" fill-opacity="1"><g transform="translate(95.081913, 31.303123)"><g><path d="M 10.0625 0.328125 C 8.488281 0.328125 7.085938 0.132812 5.859375 -0.25 C 4.628906 -0.644531 3.601562 -1.15625 2.78125 -1.78125 C 1.96875 -2.414062 1.347656 -3.109375 0.921875 -3.859375 L 3.390625 -6.875 L 3.765625 -6.875 C 4.453125 -5.863281 5.320312 -5.054688 6.375 -4.453125 C 7.425781 -3.859375 8.65625 -3.5625 10.0625 -3.5625 C 11.257812 -3.5625 12.160156 -3.8125 12.765625 -4.3125 C 13.378906 -4.820312 13.6875 -5.519531 13.6875 -6.40625 C 13.6875 -6.945312 13.585938 -7.398438 13.390625 -7.765625 C 13.203125 -8.128906 12.878906 -8.4375 12.421875 -8.6875 C 11.960938 -8.945312 11.347656 -9.171875 10.578125 -9.359375 L 7.65625 -10.03125 C 5.613281 -10.5 4.09375 -11.269531 3.09375 -12.34375 C 2.09375 -13.425781 1.59375 -14.832031 1.59375 -16.5625 C 1.59375 -17.84375 1.914062 -18.96875 2.5625 -19.9375 C 3.207031 -20.914062 4.140625 -21.675781 5.359375 -22.21875 C 6.585938 -22.757812 8.054688 -23.03125 9.765625 -23.03125 C 11.515625 -23.03125 13.007812 -22.796875 14.25 -22.328125 C 15.5 -21.867188 16.554688 -21.164062 17.421875 -20.21875 L 15.203125 -17.171875 L 14.8125 -17.171875 C 14.164062 -17.847656 13.425781 -18.351562 12.59375 -18.6875 C 11.769531 -19.019531 10.828125 -19.1875 9.765625 -19.1875 C 8.535156 -19.1875 7.597656 -18.96875 6.953125 -18.53125 C 6.316406 -18.101562 6 -17.503906 6 -16.734375 C 6 -16.023438 6.222656 -15.457031 6.671875 -15.03125 C 7.117188 -14.601562 7.894531 -14.269531 9 -14.03125 L 11.984375 -13.421875 C 14.191406 -12.953125 15.789062 -12.160156 16.78125 -11.046875 C 17.78125 -9.929688 18.28125 -8.476562 18.28125 -6.6875 C 18.28125 -5.269531 17.972656 -4.035156 17.359375 -2.984375 C 16.742188 -1.929688 15.820312 -1.113281 14.59375 -0.53125 C 13.363281 0.0390625 11.851562 0.328125 10.0625 0.328125 Z M 10.0625 0.328125 "/></g></g></g><g clip-path="url(#80df03825e)"><path fill="#2196f3" d="M 36.609375 0.269531 C 36.445312 0.0898438 36.238281 0 35.992188 0 L 1.164062 0 C 1.046875 0 0.933594 0.0234375 0.824219 0.0703125 C 0.71875 0.117188 0.625 0.183594 0.546875 0.269531 C 0.46875 0.355469 0.410156 0.453125 0.371094 0.566406 C 0.335938 0.675781 0.324219 0.789062 0.335938 0.90625 L 3.652344 33.824219 C 3.6875 34.175781 3.875 34.410156 4.214844 34.523438 L 19.140625 39.460938 C 19.226562 39.488281 19.316406 39.503906 19.40625 39.5 C 19.507812 39.5 19.605469 39.484375 19.699219 39.449219 L 32.96875 34.511719 C 33.292969 34.394531 33.472656 34.164062 33.507812 33.824219 L 36.824219 0.90625 C 36.847656 0.660156 36.777344 0.449219 36.609375 0.269531 Z M 36.609375 0.269531 " fill-opacity="1" fill-rule="nonzero"/></g><path fill="#fafafa" d="M 19.40625 31.273438 C 19.320312 31.273438 19.230469 31.257812 19.144531 31.230469 L 11.683594 28.761719 C 11.378906 28.660156 11.195312 28.457031 11.132812 28.144531 L 10.300781 24.03125 C 10.257812 23.808594 10.296875 23.601562 10.421875 23.410156 C 10.550781 23.222656 10.726562 23.105469 10.949219 23.058594 C 11.171875 23.011719 11.382812 23.054688 11.574219 23.179688 C 11.765625 23.304688 11.882812 23.476562 11.929688 23.699219 L 12.664062 27.347656 L 19.390625 29.578125 L 25.304688 27.375 L 28.375 9.875 L 9.457031 9.875 C 9.226562 9.875 9.03125 9.796875 8.871094 9.632812 C 8.707031 9.472656 8.628906 9.28125 8.628906 9.050781 C 8.628906 8.824219 8.707031 8.632812 8.871094 8.46875 C 9.03125 8.308594 9.226562 8.230469 9.457031 8.230469 L 29.359375 8.230469 C 29.480469 8.230469 29.597656 8.253906 29.710938 8.304688 C 29.820312 8.359375 29.917969 8.429688 29.996094 8.523438 C 30.074219 8.617188 30.128906 8.722656 30.160156 8.839844 C 30.191406 8.957031 30.199219 9.074219 30.175781 9.195312 L 26.859375 28.121094 C 26.804688 28.429688 26.628906 28.640625 26.335938 28.75 L 19.699219 31.21875 C 19.605469 31.253906 19.507812 31.273438 19.40625 31.273438 Z M 19.40625 31.273438 " fill-opacity="1" fill-rule="nonzero"/><path fill="#fafafa" d="M 27.699219 18.105469 L 10.285156 18.105469 C 10.058594 18.105469 9.863281 18.023438 9.699219 17.863281 C 9.539062 17.703125 9.457031 17.507812 9.457031 17.28125 C 9.457031 17.054688 9.539062 16.859375 9.699219 16.699219 C 9.863281 16.539062 10.058594 16.457031 10.285156 16.457031 L 27.699219 16.457031 C 27.929688 16.457031 28.125 16.539062 28.289062 16.699219 C 28.449219 16.859375 28.53125 17.054688 28.53125 17.28125 C 28.53125 17.507812 28.449219 17.703125 28.289062 17.863281 C 28.125 18.023438 27.929688 18.105469 27.699219 18.105469 Z M 27.699219 18.105469 " fill-opacity="1" fill-rule="nonzero"/></svg>