<svg xmlns="http://www.w3.org/2000/svg" xmlns:xlink="http://www.w3.org/1999/xlink" width="250" zoomAndPan="magnify" viewBox="0 0 187.5 41.25" height="55" preserveAspectRatio="xMidYMid meet" version="1.0"><defs><g/><clipPath id="d1ace8d06b"><path d="M 5.480469 4 L 39 4 L 39 37 L 5.480469 37 Z M 5.480469 4 " clip-rule="nonzero"/></clipPath></defs><g fill="#ffffff" fill-opacity="1"><g transform="translate(49.929513, 32.901788)"><g><path d="M 7.890625 0 L 3.1875 0 L 3.1875 -24.546875 L 8.75 -24.546875 L 18.59375 -8.734375 L 19.03125 -8.796875 L 19.03125 -24.546875 L 23.703125 -24.546875 L 23.703125 0 L 18.734375 0 L 8.3125 -16.890625 L 7.890625 -16.8125 Z M 7.890625 0 "/></g></g></g><g fill="#ffffff" fill-opacity="1"><g transform="translate(76.829329, 32.901788)"><g><path d="M 18.296875 -8.203125 L 6.390625 -8.203125 C 6.523438 -6.597656 6.984375 -5.425781 7.765625 -4.6875 C 8.554688 -3.957031 9.628906 -3.59375 10.984375 -3.59375 C 12.046875 -3.59375 12.90625 -3.789062 13.5625 -4.1875 C 14.21875 -4.582031 14.75 -5.179688 15.15625 -5.984375 L 15.515625 -5.984375 L 18.59375 -4.015625 C 17.988281 -2.710938 17.078125 -1.65625 15.859375 -0.84375 C 14.640625 -0.0390625 13.015625 0.359375 10.984375 0.359375 C 9.066406 0.359375 7.410156 -0.00390625 6.015625 -0.734375 C 4.617188 -1.460938 3.539062 -2.546875 2.78125 -3.984375 C 2.03125 -5.421875 1.65625 -7.175781 1.65625 -9.25 C 1.65625 -11.351562 2.050781 -13.125 2.84375 -14.5625 C 3.644531 -16.007812 4.722656 -17.085938 6.078125 -17.796875 C 7.429688 -18.503906 8.953125 -18.859375 10.640625 -18.859375 C 13.253906 -18.859375 15.257812 -18.164062 16.65625 -16.78125 C 18.050781 -15.394531 18.75 -13.359375 18.75 -10.671875 C 18.75 -9.703125 18.710938 -8.945312 18.640625 -8.40625 Z M 14.296875 -11.21875 C 14.253906 -12.625 13.925781 -13.644531 13.3125 -14.28125 C 12.707031 -14.925781 11.816406 -15.25 10.640625 -15.25 C 8.285156 -15.25 6.90625 -13.90625 6.5 -11.21875 Z M 14.296875 -11.21875 "/></g></g></g><g fill="#ffffff" fill-opacity="1"><g transform="translate(96.664354, 32.901788)"><g><path d="M 5.21875 0 L 0.3125 0 L 5.609375 -9.59375 L 0.609375 -18.515625 L 5.578125 -18.515625 L 8.78125 -12.421875 L 9.171875 -12.421875 L 12.390625 -18.515625 L 17.203125 -18.515625 L 12.359375 -9.59375 L 17.484375 0 L 12.53125 0 L 9.046875 -6.765625 L 8.65625 -6.765625 Z M 5.21875 0 "/></g></g></g><g fill="#ffffff" fill-opacity="1"><g transform="translate(114.468911, 32.901788)"><g><path d="M 12.765625 -4.421875 L 13.984375 -0.96875 C 13.472656 -0.5625 12.835938 -0.238281 12.078125 0 C 11.316406 0.238281 10.457031 0.359375 9.5 0.359375 C 7.5 0.359375 5.976562 -0.1875 4.9375 -1.28125 C 3.894531 -2.375 3.375 -3.960938 3.375 -6.046875 L 3.375 -14.84375 L 0.546875 -14.84375 L 0.546875 -18.53125 L 3.375 -18.53125 L 3.375 -22.140625 L 8.015625 -22.890625 L 8.015625 -18.53125 L 13.28125 -18.53125 L 13.28125 -14.84375 L 8.015625 -14.84375 L 8.015625 -6.375 C 8.015625 -5.457031 8.207031 -4.789062 8.59375 -4.375 C 8.976562 -3.957031 9.53125 -3.75 10.25 -3.75 C 11.082031 -3.75 11.804688 -3.972656 12.421875 -4.421875 Z M 12.765625 -4.421875 "/></g></g></g><g fill="#ffffff" fill-opacity="1"><g transform="translate(128.85016, 32.901788)"><g/></g></g><g fill="#ffffff" fill-opacity="1"><g transform="translate(136.955344, 32.901788)"><g><path d="M 8.59375 0.359375 C 6.507812 0.359375 4.78125 -0.0351562 3.40625 -0.828125 C 2.03125 -1.617188 1.03125 -2.679688 0.40625 -4.015625 L 3.140625 -7.328125 L 3.5625 -7.328125 C 4.007812 -6.253906 4.644531 -5.40625 5.46875 -4.78125 C 6.289062 -4.164062 7.242188 -3.859375 8.328125 -3.859375 C 9.546875 -3.859375 10.453125 -4.210938 11.046875 -4.921875 C 11.640625 -5.628906 11.9375 -6.785156 11.9375 -8.390625 L 11.9375 -24.546875 L 16.765625 -24.546875 L 16.765625 -8.3125 C 16.765625 -5.34375 16.085938 -3.15625 14.734375 -1.75 C 13.390625 -0.34375 11.34375 0.359375 8.59375 0.359375 Z M 8.59375 0.359375 "/></g></g></g><g fill="#ffffff" fill-opacity="1"><g transform="translate(156.75683, 32.901788)"><g><path d="M 8.65625 0.359375 C 7.394531 0.359375 6.238281 0.210938 5.1875 -0.078125 C 4.132812 -0.378906 3.234375 -0.789062 2.484375 -1.3125 C 1.742188 -1.832031 1.195312 -2.429688 0.84375 -3.109375 L 3.421875 -5.890625 L 3.78125 -5.890625 C 4.394531 -5.066406 5.117188 -4.445312 5.953125 -4.03125 C 6.796875 -3.613281 7.707031 -3.40625 8.6875 -3.40625 C 9.59375 -3.40625 10.273438 -3.566406 10.734375 -3.890625 C 11.203125 -4.210938 11.4375 -4.675781 11.4375 -5.28125 C 11.4375 -5.75 11.269531 -6.144531 10.9375 -6.46875 C 10.601562 -6.789062 10.066406 -7.039062 9.328125 -7.21875 L 6.875 -7.8125 C 5.039062 -8.238281 3.703125 -8.898438 2.859375 -9.796875 C 2.015625 -10.703125 1.59375 -11.851562 1.59375 -13.25 C 1.59375 -14.394531 1.882812 -15.390625 2.46875 -16.234375 C 3.0625 -17.085938 3.890625 -17.738281 4.953125 -18.1875 C 6.023438 -18.632812 7.269531 -18.859375 8.6875 -18.859375 C 10.363281 -18.859375 11.75 -18.617188 12.84375 -18.140625 C 13.9375 -17.660156 14.789062 -17.019531 15.40625 -16.21875 L 12.921875 -13.53125 L 12.59375 -13.53125 C 12.070312 -14.113281 11.488281 -14.535156 10.84375 -14.796875 C 10.207031 -15.066406 9.488281 -15.203125 8.6875 -15.203125 C 6.851562 -15.203125 5.9375 -14.632812 5.9375 -13.5 C 5.9375 -13.007812 6.109375 -12.613281 6.453125 -12.3125 C 6.796875 -12.007812 7.398438 -11.765625 8.265625 -11.578125 L 10.546875 -11.078125 C 12.421875 -10.671875 13.789062 -10.023438 14.65625 -9.140625 C 15.53125 -8.253906 15.96875 -7.0625 15.96875 -5.5625 C 15.96875 -4.382812 15.675781 -3.347656 15.09375 -2.453125 C 14.507812 -1.554688 13.664062 -0.863281 12.5625 -0.375 C 11.46875 0.113281 10.164062 0.359375 8.65625 0.359375 Z M 8.65625 0.359375 "/></g></g></g><g clip-path="url(#d1ace8d06b)"><path fill="#000000" d="M 30.660156 6.378906 C 19.726562 0.015625 5.839844 7.789062 5.71875 20.339844 C 5.601562 32.59375 18.695312 40.511719 29.601562 35.117188 L 17.695312 17.765625 L 17.695312 28.507812 C 17.695312 29.695312 15.394531 29.695312 15.394531 28.507812 L 15.394531 14.109375 C 15.394531 13.164062 17.167969 13.085938 17.667969 13.90625 L 31.242188 34.191406 C 41.4375 27.6875 41.296875 12.574219 30.660156 6.378906 Z M 29.125 26.703125 L 26.820312 23.214844 L 26.820312 13.664062 C 26.820312 12.773438 29.125 12.773438 29.125 13.664062 Z M 29.125 26.703125 " fill-opacity="1" fill-rule="nonzero"/></g></svg>