<svg xmlns="http://www.w3.org/2000/svg" xmlns:xlink="http://www.w3.org/1999/xlink" width="250" zoomAndPan="magnify" viewBox="0 0 187.5 41.25" height="55" preserveAspectRatio="xMidYMid meet" version="1.0"><defs><clipPath id="664075c62e"><path d="M 142 12 L 168 12 L 168 40.1875 L 142 40.1875 Z M 142 12 " clip-rule="nonzero"/></clipPath><clipPath id="64ea42f7f9"><path d="M 13 0 L 135 0 L 135 40.1875 L 13 40.1875 Z M 13 0 " clip-rule="nonzero"/></clipPath><clipPath id="0236f8388c"><path d="M 45 12 L 126 12 L 126 40.1875 L 45 40.1875 Z M 45 12 " clip-rule="nonzero"/></clipPath></defs><g clip-path="url(#664075c62e)"><path fill="#83cd29" d="M 155.34375 12.226562 C 154.96875 12.226562 154.601562 12.304688 154.277344 12.488281 L 144.023438 18.40625 C 143.363281 18.789062 142.957031 19.511719 142.957031 20.28125 L 142.957031 32.101562 C 142.957031 32.871094 143.363281 33.589844 144.023438 33.972656 L 146.703125 35.515625 C 148.003906 36.160156 148.484375 36.148438 149.074219 36.148438 C 151.003906 36.148438 152.101562 34.980469 152.101562 32.949219 L 152.101562 21.285156 C 152.101562 21.121094 151.957031 21 151.796875 21 L 150.511719 21 C 150.347656 21 150.207031 21.121094 150.207031 21.285156 L 150.207031 32.953125 C 150.207031 33.851562 149.269531 34.757812 147.746094 33.996094 L 144.964844 32.367188 C 144.867188 32.3125 144.789062 32.214844 144.789062 32.105469 L 144.789062 20.28125 C 144.789062 20.171875 144.863281 20.054688 144.964844 20 L 155.195312 14.097656 C 155.292969 14.042969 155.40625 14.042969 155.5 14.097656 L 165.734375 20 C 165.832031 20.058594 165.90625 20.167969 165.90625 20.28125 L 165.90625 32.105469 C 165.90625 32.21875 165.851562 32.332031 165.753906 32.386719 L 155.5 38.289062 C 155.410156 38.339844 155.289062 38.339844 155.195312 38.289062 L 152.5625 36.71875 C 152.484375 36.675781 152.378906 36.675781 152.300781 36.71875 C 151.574219 37.132812 151.4375 37.179688 150.757812 37.417969 C 150.589844 37.476562 150.332031 37.566406 150.84375 37.851562 L 154.28125 39.878906 C 154.609375 40.070312 154.976562 40.164062 155.347656 40.164062 C 155.730469 40.164062 156.089844 40.070312 156.417969 39.878906 L 166.671875 33.980469 C 167.332031 33.59375 167.738281 32.875 167.738281 32.105469 L 167.738281 20.285156 C 167.738281 19.519531 167.332031 18.796875 166.671875 18.414062 L 156.417969 12.492188 C 156.09375 12.308594 155.726562 12.230469 155.347656 12.230469 Z M 158.089844 20.671875 C 155.167969 20.671875 153.429688 21.914062 153.429688 23.980469 C 153.429688 26.21875 155.15625 26.839844 157.957031 27.117188 C 161.3125 27.445312 161.574219 27.9375 161.574219 28.597656 C 161.574219 29.742188 160.660156 30.230469 158.503906 30.230469 C 155.792969 30.230469 155.195312 29.554688 154.996094 28.203125 C 154.972656 28.058594 154.863281 27.941406 154.714844 27.941406 L 153.382812 27.941406 C 153.300781 27.941406 153.230469 27.972656 153.171875 28.03125 C 153.109375 28.089844 153.082031 28.164062 153.078125 28.246094 C 153.078125 29.972656 154.015625 32.011719 158.5 32.011719 C 161.746094 32.011719 163.617188 30.742188 163.617188 28.507812 C 163.617188 26.296875 162.105469 25.699219 158.957031 25.285156 C 155.78125 24.859375 155.472656 24.65625 155.472656 23.914062 C 155.472656 23.296875 155.730469 22.476562 158.085938 22.476562 C 160.191406 22.476562 160.96875 22.929688 161.285156 24.347656 C 161.3125 24.480469 161.433594 24.589844 161.570312 24.589844 L 162.902344 24.589844 C 162.980469 24.589844 163.0625 24.539062 163.117188 24.480469 C 163.175781 24.417969 163.214844 24.347656 163.207031 24.261719 C 163 21.820312 161.371094 20.671875 158.089844 20.671875 Z M 158.089844 20.671875 " fill-opacity="1" fill-rule="nonzero"/></g><g clip-path="url(#64ea42f7f9)"><path fill="#ffffff" d="M 95.0625 -3.273438 C 94.945312 -3.273438 94.839844 -3.242188 94.738281 -3.183594 C 94.519531 -3.058594 94.410156 -2.871094 94.410156 -2.617188 L 94.410156 14.035156 C 94.410156 14.199219 94.335938 14.34375 94.191406 14.425781 C 94.039062 14.515625 93.886719 14.515625 93.734375 14.425781 L 91.015625 12.859375 C 90.578125 12.609375 90.144531 12.609375 89.707031 12.859375 L 78.84375 19.128906 C 78.4375 19.363281 78.191406 19.816406 78.191406 20.285156 L 78.191406 32.824219 C 78.191406 33.328125 78.410156 33.703125 78.84375 33.957031 L 89.707031 40.226562 C 90.144531 40.476562 90.578125 40.476562 91.015625 40.226562 L 101.878906 33.957031 C 102.3125 33.703125 102.53125 33.328125 102.53125 32.824219 L 102.53125 1.5625 C 102.53125 1.085938 102.273438 0.640625 101.855469 0.40625 L 95.390625 -3.207031 C 95.289062 -3.265625 95.175781 -3.273438 95.0625 -3.273438 Z M 25.179688 12.382812 C 24.972656 12.390625 24.777344 12.425781 24.59375 12.535156 L 13.730469 18.804688 C 13.292969 19.054688 13.074219 19.429688 13.074219 19.933594 L 13.097656 36.765625 C 13.097656 37 13.21875 37.214844 13.425781 37.328125 C 13.625 37.449219 13.878906 37.449219 14.078125 37.328125 L 20.523438 33.628906 C 20.929688 33.386719 21.195312 32.964844 21.195312 32.496094 L 21.195312 24.636719 C 21.195312 24.167969 21.441406 23.738281 21.851562 23.503906 L 24.59375 21.917969 C 24.796875 21.800781 25.011719 21.742188 25.246094 21.742188 C 25.480469 21.742188 25.699219 21.800781 25.898438 21.917969 L 28.640625 23.503906 C 29.046875 23.738281 29.292969 24.167969 29.292969 24.636719 L 29.292969 32.496094 C 29.292969 32.964844 29.566406 33.386719 29.96875 33.628906 L 36.414062 37.328125 C 36.617188 37.449219 36.867188 37.449219 37.066406 37.328125 C 37.265625 37.214844 37.394531 36.996094 37.394531 36.761719 L 37.414062 19.933594 C 37.417969 19.429688 37.199219 19.050781 36.761719 18.800781 L 25.898438 12.535156 C 25.714844 12.425781 25.519531 12.390625 25.3125 12.382812 Z M 122.796875 12.535156 C 122.5625 12.53125 122.347656 12.589844 122.144531 12.707031 L 111.28125 18.976562 C 110.875 19.210938 110.628906 19.640625 110.628906 20.109375 L 110.628906 32.648438 C 110.628906 33.121094 110.894531 33.546875 111.300781 33.78125 L 122.078125 39.921875 C 122.476562 40.148438 122.960938 40.167969 123.363281 39.945312 L 129.894531 36.308594 C 130.101562 36.195312 130.242188 35.980469 130.242188 35.742188 C 130.242188 35.507812 130.121094 35.292969 129.914062 35.175781 L 118.984375 28.90625 C 118.78125 28.789062 118.636719 28.554688 118.636719 28.320312 L 118.636719 24.398438 C 118.636719 24.164062 118.78125 23.949219 118.984375 23.832031 L 122.382812 21.871094 C 122.585938 21.753906 122.832031 21.753906 123.035156 21.871094 L 126.441406 23.832031 C 126.65625 23.957031 126.765625 24.144531 126.765625 24.398438 L 126.765625 27.488281 C 126.765625 27.742188 126.875 27.929688 127.09375 28.054688 C 127.296875 28.171875 127.542969 28.171875 127.746094 28.054688 L 134.253906 24.265625 C 134.660156 24.03125 134.90625 23.601562 134.90625 23.136719 L 134.90625 20.109375 C 134.90625 19.605469 134.691406 19.230469 134.253906 18.976562 L 123.457031 12.707031 C 123.253906 12.589844 123.035156 12.53125 122.804688 12.53125 Z M 90.316406 21.894531 C 90.378906 21.894531 90.4375 21.910156 90.488281 21.9375 L 94.210938 24.09375 C 94.3125 24.152344 94.386719 24.261719 94.386719 24.375 L 94.386719 28.6875 C 94.386719 28.804688 94.3125 28.910156 94.210938 28.96875 L 90.488281 31.125 C 90.390625 31.183594 90.265625 31.183594 90.164062 31.125 L 86.441406 28.96875 C 86.339844 28.910156 86.265625 28.804688 86.265625 28.6875 L 86.265625 24.378906 C 86.265625 24.261719 86.339844 24.152344 86.441406 24.09375 L 90.164062 21.941406 C 90.214844 21.910156 90.257812 21.898438 90.316406 21.898438 Z M 90.316406 21.894531 " fill-opacity="1" fill-rule="nonzero"/></g><g clip-path="url(#0236f8388c)"><path fill="#83cd29" d="M 57.8125 12.46875 C 57.578125 12.46875 57.363281 12.527344 57.160156 12.640625 L 46.296875 18.890625 C 45.890625 19.125 45.644531 19.574219 45.644531 20.042969 L 45.644531 32.582031 C 45.640625 33.085938 45.859375 33.464844 46.296875 33.714844 L 57.160156 39.984375 C 57.59375 40.238281 58.03125 40.238281 58.464844 39.984375 L 69.328125 33.714844 C 69.765625 33.464844 69.984375 33.085938 69.980469 32.582031 L 69.980469 20.042969 C 69.980469 19.574219 69.734375 19.125 69.328125 18.890625 L 58.464844 12.644531 C 58.261719 12.527344 58.046875 12.46875 57.8125 12.46875 Z M 122.777344 23.65625 C 122.734375 23.65625 122.683594 23.65625 122.644531 23.679688 L 120.554688 24.898438 C 120.46875 24.945312 120.425781 25.019531 120.425781 25.117188 L 120.425781 27.511719 C 120.425781 27.601562 120.476562 27.683594 120.554688 27.730469 L 122.644531 28.925781 C 122.726562 28.976562 122.804688 28.976562 122.882812 28.925781 L 124.972656 27.730469 C 125.050781 27.683594 125.105469 27.601562 125.105469 27.511719 L 125.105469 25.117188 C 125.105469 25.027344 125.050781 24.945312 124.972656 24.898438 L 122.882812 23.679688 C 122.847656 23.65625 122.820312 23.65625 122.777344 23.65625 Z M 122.777344 23.65625 " fill-opacity="1" fill-rule="nonzero"/></g></svg>