<svg xmlns="http://www.w3.org/2000/svg" xmlns:xlink="http://www.w3.org/1999/xlink" width="250" zoomAndPan="magnify" viewBox="0 0 187.5 41.25" height="55" preserveAspectRatio="xMidYMid meet" version="1.0"><defs><g/><clipPath id="36c2cec212"><path d="M 3.40625 4.050781 L 38 4.050781 L 38 40.511719 L 3.40625 40.511719 Z M 3.40625 4.050781 " clip-rule="nonzero"/></clipPath></defs><g fill="#ffffff" fill-opacity="1"><g transform="translate(38.363603, 29.832589)"><g><path d="M 9.78125 -18.921875 C 11.132812 -18.921875 12.289062 -18.671875 13.25 -18.171875 C 14.207031 -17.679688 14.929688 -16.988281 15.421875 -16.09375 C 15.921875 -15.207031 16.171875 -14.171875 16.171875 -12.984375 C 16.171875 -11.804688 15.921875 -10.769531 15.421875 -9.875 C 14.929688 -8.988281 14.207031 -8.296875 13.25 -7.796875 C 12.289062 -7.304688 11.132812 -7.0625 9.78125 -7.0625 L 6.203125 -7.0625 L 6.203125 0 L 2.453125 0 L 2.453125 -18.921875 Z M 9.28125 -10.015625 C 11.363281 -10.015625 12.40625 -11.003906 12.40625 -12.984375 C 12.40625 -14.972656 11.363281 -15.96875 9.28125 -15.96875 L 6.203125 -15.96875 L 6.203125 -10.015625 Z M 9.28125 -10.015625 "/></g></g></g><g fill="#ffffff" fill-opacity="1"><g transform="translate(54.911367, 29.832589)"><g><path d="M 8.296875 0.265625 C 6.898438 0.265625 5.671875 -0.0195312 4.609375 -0.59375 C 3.554688 -1.164062 2.738281 -2.003906 2.15625 -3.109375 C 1.570312 -4.222656 1.28125 -5.566406 1.28125 -7.140625 C 1.28125 -8.703125 1.570312 -10.039062 2.15625 -11.15625 C 2.738281 -12.269531 3.554688 -13.113281 4.609375 -13.6875 C 5.671875 -14.257812 6.898438 -14.546875 8.296875 -14.546875 C 9.691406 -14.546875 10.914062 -14.257812 11.96875 -13.6875 C 13.03125 -13.113281 13.851562 -12.269531 14.4375 -11.15625 C 15.03125 -10.039062 15.328125 -8.703125 15.328125 -7.140625 C 15.328125 -5.566406 15.03125 -4.222656 14.4375 -3.109375 C 13.851562 -2.003906 13.03125 -1.164062 11.96875 -0.59375 C 10.914062 -0.0195312 9.691406 0.265625 8.296875 0.265625 Z M 8.296875 -2.765625 C 10.515625 -2.765625 11.625 -4.222656 11.625 -7.140625 C 11.625 -8.648438 11.335938 -9.753906 10.765625 -10.453125 C 10.203125 -11.160156 9.378906 -11.515625 8.296875 -11.515625 C 6.078125 -11.515625 4.96875 -10.054688 4.96875 -7.140625 C 4.96875 -4.222656 6.078125 -2.765625 8.296875 -2.765625 Z M 8.296875 -2.765625 "/></g></g><g transform="translate(71.510923, 29.832589)"><g><path d="M 6.6875 0.265625 C 5.707031 0.265625 4.8125 0.148438 4 -0.078125 C 3.1875 -0.304688 2.492188 -0.617188 1.921875 -1.015625 C 1.347656 -1.421875 0.921875 -1.878906 0.640625 -2.390625 L 2.640625 -4.546875 L 2.90625 -4.546875 C 3.382812 -3.910156 3.945312 -3.429688 4.59375 -3.109375 C 5.238281 -2.785156 5.941406 -2.625 6.703125 -2.625 C 7.398438 -2.625 7.925781 -2.75 8.28125 -3 C 8.632812 -3.25 8.8125 -3.609375 8.8125 -4.078125 C 8.8125 -4.441406 8.679688 -4.742188 8.421875 -4.984375 C 8.171875 -5.234375 7.765625 -5.425781 7.203125 -5.5625 L 5.3125 -6.015625 C 3.894531 -6.359375 2.859375 -6.875 2.203125 -7.5625 C 1.554688 -8.257812 1.234375 -9.144531 1.234375 -10.21875 C 1.234375 -11.101562 1.457031 -11.875 1.90625 -12.53125 C 2.363281 -13.1875 3.003906 -13.6875 3.828125 -14.03125 C 4.648438 -14.375 5.609375 -14.546875 6.703125 -14.546875 C 7.992188 -14.546875 9.0625 -14.359375 9.90625 -13.984375 C 10.75 -13.617188 11.410156 -13.125 11.890625 -12.5 L 9.96875 -10.4375 L 9.703125 -10.4375 C 9.304688 -10.882812 8.859375 -11.210938 8.359375 -11.421875 C 7.867188 -11.628906 7.316406 -11.734375 6.703125 -11.734375 C 5.285156 -11.734375 4.578125 -11.289062 4.578125 -10.40625 C 4.578125 -10.039062 4.707031 -9.738281 4.96875 -9.5 C 5.238281 -9.269531 5.707031 -9.082031 6.375 -8.9375 L 8.125 -8.546875 C 9.582031 -8.234375 10.644531 -7.734375 11.3125 -7.046875 C 11.976562 -6.359375 12.3125 -5.4375 12.3125 -4.28125 C 12.3125 -3.375 12.085938 -2.578125 11.640625 -1.890625 C 11.191406 -1.203125 10.539062 -0.671875 9.6875 -0.296875 C 8.84375 0.078125 7.84375 0.265625 6.6875 0.265625 Z M 6.6875 0.265625 "/></g></g><g transform="translate(84.679213, 29.832589)"><g><path d="M 9.859375 -3.40625 L 10.78125 -0.75 C 10.394531 -0.425781 9.90625 -0.175781 9.3125 0 C 8.726562 0.175781 8.066406 0.265625 7.328125 0.265625 C 5.785156 0.265625 4.613281 -0.148438 3.8125 -0.984375 C 3.007812 -1.828125 2.609375 -3.050781 2.609375 -4.65625 L 2.609375 -11.4375 L 0.421875 -11.4375 L 0.421875 -14.296875 L 2.609375 -14.296875 L 2.609375 -17.078125 L 6.1875 -17.65625 L 6.1875 -14.296875 L 10.234375 -14.296875 L 10.234375 -11.4375 L 6.1875 -11.4375 L 6.1875 -4.921875 C 6.1875 -4.210938 6.332031 -3.695312 6.625 -3.375 C 6.914062 -3.050781 7.34375 -2.890625 7.90625 -2.890625 C 8.550781 -2.890625 9.109375 -3.0625 9.578125 -3.40625 Z M 9.859375 -3.40625 "/></g></g><g transform="translate(95.775797, 29.832589)"><g><path d="M 7.40625 6.0625 C 5.050781 6.0625 3.3125 5.710938 2.1875 5.015625 C 1.0625 4.328125 0.5 3.367188 0.5 2.140625 C 0.5 1.390625 0.738281 0.773438 1.21875 0.296875 C 1.695312 -0.179688 2.382812 -0.503906 3.28125 -0.671875 L 3.28125 -0.9375 C 2.800781 -1.238281 2.453125 -1.566406 2.234375 -1.921875 C 2.023438 -2.273438 1.921875 -2.691406 1.921875 -3.171875 C 1.921875 -4.316406 2.671875 -5.085938 4.171875 -5.484375 L 4.171875 -5.765625 C 3.398438 -6.203125 2.816406 -6.742188 2.421875 -7.390625 C 2.035156 -8.046875 1.84375 -8.835938 1.84375 -9.765625 C 1.84375 -10.710938 2.0625 -11.546875 2.5 -12.265625 C 2.9375 -12.984375 3.578125 -13.539062 4.421875 -13.9375 C 5.265625 -14.34375 6.269531 -14.546875 7.4375 -14.546875 C 8.632812 -14.546875 9.585938 -14.34375 10.296875 -13.9375 C 10.734375 -14.570312 10.988281 -15.304688 11.0625 -16.140625 L 11.328125 -16.3125 L 13.90625 -15.671875 C 13.820312 -14.992188 13.617188 -14.421875 13.296875 -13.953125 C 12.984375 -13.492188 12.492188 -13.085938 11.828125 -12.734375 L 11.828125 -12.4375 C 12.628906 -11.726562 13.03125 -10.742188 13.03125 -9.484375 C 13.03125 -8.597656 12.804688 -7.804688 12.359375 -7.109375 C 11.921875 -6.410156 11.28125 -5.859375 10.4375 -5.453125 C 9.59375 -5.046875 8.59375 -4.84375 7.4375 -4.84375 L 6.90625 -4.859375 C 6.5625 -4.867188 6.316406 -4.875 6.171875 -4.875 C 5.847656 -4.875 5.59375 -4.785156 5.40625 -4.609375 C 5.21875 -4.429688 5.125 -4.207031 5.125 -3.9375 C 5.125 -3.632812 5.242188 -3.398438 5.484375 -3.234375 C 5.734375 -3.066406 6.085938 -2.972656 6.546875 -2.953125 L 9.75 -2.828125 C 12.90625 -2.734375 14.484375 -1.375 14.484375 1.25 C 14.484375 2.164062 14.25 2.984375 13.78125 3.703125 C 13.3125 4.429688 12.550781 5.003906 11.5 5.421875 C 10.445312 5.847656 9.082031 6.0625 7.40625 6.0625 Z M 7.4375 -7.359375 C 8.132812 -7.359375 8.675781 -7.5625 9.0625 -7.96875 C 9.445312 -8.375 9.640625 -8.953125 9.640625 -9.703125 C 9.640625 -10.453125 9.445312 -11.023438 9.0625 -11.421875 C 8.675781 -11.828125 8.132812 -12.03125 7.4375 -12.03125 C 6.738281 -12.03125 6.195312 -11.828125 5.8125 -11.421875 C 5.4375 -11.023438 5.25 -10.453125 5.25 -9.703125 C 5.25 -8.941406 5.4375 -8.359375 5.8125 -7.953125 C 6.195312 -7.554688 6.738281 -7.359375 7.4375 -7.359375 Z M 7.40625 3.453125 C 8.632812 3.453125 9.523438 3.28125 10.078125 2.9375 C 10.640625 2.59375 10.921875 2.144531 10.921875 1.59375 C 10.921875 1.144531 10.773438 0.8125 10.484375 0.59375 C 10.203125 0.382812 9.75 0.273438 9.125 0.265625 L 6.3125 0.125 C 6.207031 0.125 6.113281 0.117188 6.03125 0.109375 C 5.957031 0.109375 5.878906 0.109375 5.796875 0.109375 C 5.191406 0.109375 4.734375 0.234375 4.421875 0.484375 C 4.109375 0.742188 3.953125 1.101562 3.953125 1.5625 C 3.953125 2.164062 4.238281 2.628906 4.8125 2.953125 C 5.394531 3.285156 6.257812 3.453125 7.40625 3.453125 Z M 7.40625 3.453125 "/></g></g><g transform="translate(110.627349, 29.832589)"><g><path d="M 2.0625 0 L 2.0625 -14.28125 L 5.546875 -14.28125 L 5.546875 -12.15625 L 5.8125 -12.109375 C 6.15625 -12.898438 6.609375 -13.476562 7.171875 -13.84375 C 7.734375 -14.21875 8.414062 -14.40625 9.21875 -14.40625 C 10.03125 -14.40625 10.644531 -14.269531 11.0625 -14 L 10.46875 -10.90625 L 10.1875 -10.84375 C 9.957031 -10.9375 9.734375 -11.003906 9.515625 -11.046875 C 9.296875 -11.097656 9.03125 -11.125 8.71875 -11.125 C 7.71875 -11.125 6.953125 -10.769531 6.421875 -10.0625 C 5.898438 -9.363281 5.640625 -8.238281 5.640625 -6.6875 L 5.640625 0 Z M 2.0625 0 "/></g></g></g><g fill="#ffffff" fill-opacity="1"><g transform="translate(121.452021, 29.832589)"><g><path d="M 14.109375 -6.328125 L 4.9375 -6.328125 C 5.039062 -5.085938 5.394531 -4.179688 6 -3.609375 C 6.601562 -3.046875 7.425781 -2.765625 8.46875 -2.765625 C 9.289062 -2.765625 9.953125 -2.914062 10.453125 -3.21875 C 10.960938 -3.53125 11.375 -4 11.6875 -4.625 L 11.96875 -4.625 L 14.34375 -3.09375 C 13.875 -2.09375 13.171875 -1.28125 12.234375 -0.65625 C 11.296875 -0.0390625 10.039062 0.265625 8.46875 0.265625 C 6.988281 0.265625 5.710938 -0.0078125 4.640625 -0.5625 C 3.566406 -1.125 2.738281 -1.957031 2.15625 -3.0625 C 1.570312 -4.175781 1.28125 -5.535156 1.28125 -7.140625 C 1.28125 -8.753906 1.585938 -10.117188 2.203125 -11.234375 C 2.816406 -12.347656 3.644531 -13.175781 4.6875 -13.71875 C 5.726562 -14.269531 6.898438 -14.546875 8.203125 -14.546875 C 10.222656 -14.546875 11.769531 -14.007812 12.84375 -12.9375 C 13.925781 -11.875 14.46875 -10.304688 14.46875 -8.234375 C 14.46875 -7.484375 14.441406 -6.898438 14.390625 -6.484375 Z M 11.03125 -8.65625 C 11 -9.738281 10.742188 -10.523438 10.265625 -11.015625 C 9.796875 -11.515625 9.109375 -11.765625 8.203125 -11.765625 C 6.390625 -11.765625 5.328125 -10.726562 5.015625 -8.65625 Z M 11.03125 -8.65625 "/></g></g><g transform="translate(136.976879, 29.832589)"><g/></g><g transform="translate(143.230846, 29.832589)"><g><path d="M 8.390625 0.265625 C 7.078125 0.265625 5.910156 0.101562 4.890625 -0.21875 C 3.867188 -0.539062 3.015625 -0.960938 2.328125 -1.484375 C 1.648438 -2.015625 1.128906 -2.59375 0.765625 -3.21875 L 2.828125 -5.734375 L 3.140625 -5.734375 C 3.710938 -4.890625 4.4375 -4.21875 5.3125 -3.71875 C 6.1875 -3.21875 7.210938 -2.96875 8.390625 -2.96875 C 9.390625 -2.96875 10.144531 -3.175781 10.65625 -3.59375 C 11.164062 -4.019531 11.421875 -4.601562 11.421875 -5.34375 C 11.421875 -5.789062 11.335938 -6.164062 11.171875 -6.46875 C 11.003906 -6.769531 10.726562 -7.03125 10.34375 -7.25 C 9.96875 -7.46875 9.457031 -7.65625 8.8125 -7.8125 L 6.390625 -8.359375 C 4.679688 -8.753906 3.410156 -9.398438 2.578125 -10.296875 C 1.742188 -11.203125 1.328125 -12.375 1.328125 -13.8125 C 1.328125 -14.882812 1.59375 -15.828125 2.125 -16.640625 C 2.664062 -17.453125 3.445312 -18.082031 4.46875 -18.53125 C 5.488281 -18.976562 6.710938 -19.203125 8.140625 -19.203125 C 9.597656 -19.203125 10.847656 -19.007812 11.890625 -18.625 C 12.929688 -18.238281 13.8125 -17.648438 14.53125 -16.859375 L 12.671875 -14.3125 L 12.34375 -14.3125 C 11.8125 -14.875 11.203125 -15.296875 10.515625 -15.578125 C 9.828125 -15.859375 9.035156 -16 8.140625 -16 C 7.117188 -16 6.335938 -15.816406 5.796875 -15.453125 C 5.265625 -15.097656 5 -14.597656 5 -13.953125 C 5 -13.359375 5.1875 -12.882812 5.5625 -12.53125 C 5.9375 -12.175781 6.585938 -11.898438 7.515625 -11.703125 L 10 -11.1875 C 11.832031 -10.800781 13.160156 -10.140625 13.984375 -9.203125 C 14.816406 -8.273438 15.234375 -7.066406 15.234375 -5.578125 C 15.234375 -4.398438 14.976562 -3.367188 14.46875 -2.484375 C 13.96875 -1.609375 13.203125 -0.929688 12.171875 -0.453125 C 11.140625 0.0234375 9.878906 0.265625 8.390625 0.265625 Z M 8.390625 0.265625 "/></g></g><g transform="translate(159.493749, 29.832589)"><g><path d="M 11.46875 5.78125 L 11.46875 -1.703125 L 11.203125 -1.765625 C 10.335938 -0.410156 8.953125 0.265625 7.046875 0.265625 C 5.921875 0.265625 4.921875 -0.00390625 4.046875 -0.546875 C 3.179688 -1.085938 2.503906 -1.910156 2.015625 -3.015625 C 1.523438 -4.117188 1.28125 -5.476562 1.28125 -7.09375 C 1.28125 -8.738281 1.53125 -10.117188 2.03125 -11.234375 C 2.539062 -12.347656 3.242188 -13.175781 4.140625 -13.71875 C 5.035156 -14.269531 6.066406 -14.546875 7.234375 -14.546875 C 8.128906 -14.546875 8.90625 -14.378906 9.5625 -14.046875 C 10.21875 -13.722656 10.765625 -13.210938 11.203125 -12.515625 L 11.46875 -12.578125 L 11.46875 -14.28125 L 15.0625 -14.28125 L 15.0625 5.78125 Z M 8.21875 -2.765625 C 9.226562 -2.765625 10.023438 -3.125 10.609375 -3.84375 C 11.203125 -4.5625 11.5 -5.644531 11.5 -7.09375 C 11.5 -8.582031 11.203125 -9.691406 10.609375 -10.421875 C 10.023438 -11.148438 9.226562 -11.515625 8.21875 -11.515625 C 7.15625 -11.515625 6.347656 -11.160156 5.796875 -10.453125 C 5.242188 -9.742188 4.96875 -8.625 4.96875 -7.09375 C 4.96875 -4.207031 6.050781 -2.765625 8.21875 -2.765625 Z M 8.21875 -2.765625 "/></g></g><g transform="translate(176.611232, 29.832589)"><g><path d="M 5.9375 0.265625 C 4.644531 0.265625 3.660156 -0.078125 2.984375 -0.765625 C 2.304688 -1.460938 1.96875 -2.519531 1.96875 -3.9375 L 1.96875 -20.015625 L 5.546875 -20.015625 L 5.546875 -4.078125 C 5.546875 -3.203125 5.910156 -2.765625 6.640625 -2.765625 C 6.847656 -2.765625 7.066406 -2.800781 7.296875 -2.875 L 7.484375 -2.828125 L 7.8125 -0.0625 C 7.613281 0.0390625 7.347656 0.117188 7.015625 0.171875 C 6.691406 0.234375 6.332031 0.265625 5.9375 0.265625 Z M 5.9375 0.265625 "/></g></g></g><path fill="#000000" d="M 35.644531 26.753906 C 35.644531 26.753906 35.644531 26.757812 35.644531 26.757812 C 35.640625 26.757812 35.640625 26.753906 35.640625 26.753906 C 35.640625 26.75 35.640625 26.75 35.644531 26.75 C 35.644531 26.75 35.644531 26.75 35.644531 26.753906 Z M 35.644531 26.753906 " fill-opacity="1" fill-rule="nonzero"/><path fill="#32648d" d="M 31.222656 26.464844 L 31.226562 26.46875 L 31.222656 26.46875 C 31.003906 26.550781 30.828125 26.585938 30.675781 26.652344 C 30.523438 26.714844 30.398438 26.828125 30.324219 26.976562 L 30.324219 26.980469 C 30.230469 27.152344 30.148438 27.464844 30.175781 27.992188 C 30.234375 28.039062 30.308594 28.074219 30.386719 28.097656 L 30.390625 28.097656 C 30.644531 28.179688 31.066406 28.230469 31.539062 28.222656 C 32.476562 28.210938 33.636719 27.984375 34.25 27.691406 C 34.78125 27.433594 35.234375 27.121094 35.640625 26.753906 C 33.585938 27.191406 32.425781 27.074219 31.714844 26.773438 C 31.527344 26.691406 31.367188 26.585938 31.222656 26.464844 Z M 31.222656 26.464844 " fill-opacity="1" fill-rule="nonzero"/><path fill="#32648d" d="M 29.117188 10.367188 L 29.125 10.382812 L 29.136719 10.394531 Z M 29.117188 10.367188 " fill-opacity="1" fill-rule="nonzero"/><path fill="#32648d" d="M 19.6875 26.707031 C 19.601562 26.664062 19.5 26.628906 19.390625 26.617188 L 19.386719 26.617188 L 19.386719 26.613281 L 19.355469 26.613281 C 19.277344 26.621094 19.164062 26.648438 18.945312 26.898438 C 18.429688 27.492188 18.253906 27.863281 17.828125 28.214844 C 17.40625 28.558594 16.855469 28.746094 15.757812 28.980469 C 15.410156 29.050781 15.210938 29.132812 15.078125 29.199219 C 15.121094 29.234375 15.117188 29.242188 15.179688 29.277344 C 15.34375 29.371094 15.546875 29.449219 15.714844 29.496094 C 16.1875 29.617188 16.960938 29.757812 17.773438 29.617188 C 18.582031 29.472656 19.421875 29.074219 20.140625 28.035156 C 20.265625 27.855469 20.277344 27.589844 20.175781 27.304688 C 20.074219 27.019531 19.847656 26.773438 19.6875 26.707031 Z M 19.6875 26.707031 " fill-opacity="1" fill-rule="nonzero"/><path fill="#32648d" d="M 25.714844 6.335938 L 25.628906 6.355469 C 25.660156 6.347656 25.691406 6.34375 25.71875 6.339844 C 25.714844 6.339844 25.714844 6.335938 25.714844 6.335938 Z M 25.714844 6.335938 " fill-opacity="1" fill-rule="nonzero"/><path fill="#32648d" d="M 29.867188 14.550781 C 28.867188 14.566406 28.304688 14.832031 28.007812 15.179688 C 27.589844 15.675781 27.550781 16.542969 27.8125 17.613281 C 28.070312 18.679688 28.601562 19.878906 29.105469 20.871094 C 29.355469 21.371094 29.597656 21.816406 29.792969 22.179688 C 29.992188 22.546875 30.136719 22.804688 30.222656 23.023438 C 30.304688 23.230469 30.394531 23.410156 30.484375 23.574219 C 30.875 22.730469 30.941406 21.902344 30.902344 21.039062 C 30.851562 19.96875 30.613281 18.875 30.648438 17.765625 C 30.6875 16.46875 30.933594 15.628906 30.957031 14.625 C 30.628906 14.578125 30.25 14.550781 29.867188 14.550781 Z M 30.050781 15.324219 L 30.050781 15.335938 C 30.050781 15.339844 30.050781 15.34375 30.050781 15.351562 C 30.050781 15.421875 30.03125 15.488281 29.996094 15.542969 L 29.996094 15.539062 C 29.953125 15.628906 29.898438 15.703125 29.835938 15.769531 C 29.6875 15.933594 29.492188 16.050781 29.273438 16.089844 L 29.265625 16.089844 C 29.234375 16.097656 29.199219 16.097656 29.164062 16.097656 C 28.972656 16.097656 28.800781 16.035156 28.660156 15.933594 L 28.664062 15.933594 C 28.589844 15.882812 28.523438 15.824219 28.472656 15.757812 L 28.472656 15.753906 C 28.425781 15.703125 28.390625 15.636719 28.378906 15.566406 L 28.378906 15.5625 C 28.378906 15.554688 28.378906 15.546875 28.378906 15.539062 C 28.378906 15.472656 28.402344 15.414062 28.441406 15.367188 C 28.488281 15.308594 28.546875 15.265625 28.613281 15.230469 C 28.757812 15.148438 28.949219 15.085938 29.164062 15.054688 C 29.246094 15.042969 29.324219 15.035156 29.398438 15.035156 L 29.398438 15.039062 L 29.472656 15.039062 C 29.570312 15.042969 29.660156 15.050781 29.738281 15.070312 C 29.816406 15.089844 29.886719 15.117188 29.941406 15.15625 C 29.996094 15.191406 30.039062 15.25 30.050781 15.324219 Z M 30.050781 15.324219 " fill-opacity="1" fill-rule="nonzero"/><path fill="#32648d" d="M 13.445312 21.257812 C 13.445312 20.984375 13.464844 20.71875 13.503906 20.453125 L 13.5 20.484375 C 13.652344 19.359375 13.671875 18.308594 13.65625 17.476562 C 13.636719 16.667969 13.582031 16.128906 13.582031 15.792969 C 13.582031 15.785156 13.582031 15.78125 13.582031 15.777344 C 13.582031 15.773438 13.582031 15.765625 13.582031 15.761719 L 13.582031 15.753906 L 13.578125 15.746094 C 13.578125 15.742188 13.578125 15.738281 13.578125 15.738281 C 13.578125 13.933594 13.890625 12.207031 14.453125 10.605469 C 14.867188 9.472656 15.480469 8.324219 16.402344 7.390625 C 15.496094 7.085938 13.890625 6.617188 12.148438 6.527344 C 11.984375 6.519531 11.789062 6.511719 11.59375 6.511719 L 11.589844 6.511719 L 11.589844 6.515625 C 11.402344 6.515625 11.214844 6.519531 11.03125 6.53125 C 9.542969 6.617188 8.132812 7.066406 7.125 8.167969 C 6.117188 9.269531 5.453125 11.074219 5.597656 14.066406 C 5.628906 14.632812 5.867188 16.21875 6.273438 18.101562 C 6.683594 19.984375 7.261719 22.203125 7.957031 24.160156 C 8.65625 26.121094 9.5 27.824219 10.300781 28.632812 C 10.707031 29.035156 11.058594 29.199219 11.375 29.183594 C 11.695312 29.167969 12.078125 28.980469 12.550781 28.394531 C 13.472656 27.25 14.347656 26.234375 15.25 25.246094 L 15.21875 25.277344 C 14.128906 24.296875 13.445312 22.863281 13.445312 21.257812 Z M 13.445312 21.257812 " fill-opacity="1" fill-rule="nonzero"/><path fill="#32648d" d="M 21.382812 6.4375 L 21.382812 6.433594 C 19.636719 6.4375 18.390625 6.984375 17.441406 7.796875 C 16.460938 8.636719 15.808594 9.789062 15.375 10.96875 C 14.863281 12.371094 14.691406 13.726562 14.621094 14.644531 L 14.640625 14.632812 C 15.164062 14.328125 15.855469 14.023438 16.597656 13.847656 C 17.335938 13.667969 18.132812 13.617188 18.855469 13.90625 C 19.578125 14.195312 20.175781 14.875 20.390625 15.90625 C 21.429688 20.863281 20.070312 22.707031 19.566406 24.097656 C 19.410156 24.5 19.242188 25.011719 19.105469 25.539062 L 19.082031 25.640625 C 19.144531 25.625 19.207031 25.605469 19.269531 25.601562 C 19.625 25.570312 19.902344 25.691406 20.066406 25.765625 C 20.570312 25.980469 20.914062 26.433594 21.101562 26.953125 C 21.152344 27.085938 21.1875 27.234375 21.207031 27.382812 C 21.226562 27.4375 21.238281 27.496094 21.238281 27.558594 C 21.238281 27.566406 21.238281 27.570312 21.238281 27.578125 C 21.210938 28.339844 21.199219 29.230469 21.199219 30.128906 C 21.199219 31.191406 21.21875 32.253906 21.257812 33.308594 C 21.292969 34.109375 21.339844 34.816406 21.402344 35.375 C 21.464844 35.945312 21.554688 36.375 21.613281 36.519531 C 21.800781 37.007812 22.078125 37.644531 22.574219 38.078125 C 23.074219 38.511719 23.789062 38.800781 25.09375 38.511719 C 26.226562 38.261719 26.925781 37.914062 27.390625 37.410156 C 27.859375 36.910156 28.136719 36.214844 28.316406 35.148438 C 28.582031 33.550781 29.117188 28.914062 29.183594 28.042969 C 29.152344 27.386719 29.246094 26.878906 29.453125 26.496094 C 29.660156 26.097656 29.984375 25.855469 30.265625 25.726562 C 30.40625 25.660156 30.535156 25.617188 30.644531 25.585938 C 30.511719 25.390625 30.394531 25.230469 30.273438 25.074219 L 30.285156 25.089844 C 29.898438 24.609375 29.570312 24.058594 29.320312 23.460938 L 29.304688 23.417969 C 29.152344 23.101562 29.027344 22.859375 28.894531 22.625 L 28.925781 22.683594 C 28.730469 22.316406 28.480469 21.859375 28.222656 21.347656 C 27.703125 20.320312 27.140625 19.074219 26.84375 17.863281 C 26.550781 16.652344 26.511719 15.398438 27.257812 14.511719 C 27.921875 13.726562 29.085938 13.402344 30.835938 13.585938 C 30.785156 13.425781 30.753906 13.292969 30.664062 13.078125 C 30.238281 12.058594 29.726562 11.179688 29.121094 10.382812 C 27.640625 8.429688 25.242188 6.5 21.546875 6.4375 Z M 21.382812 6.4375 " fill-opacity="1" fill-rule="nonzero"/><path fill="#32648d" d="M 14.597656 15.875 L 14.601562 15.875 L 14.605469 15.871094 Z M 14.597656 15.875 " fill-opacity="1" fill-rule="nonzero"/><path fill="#32648d" d="M 16.792969 14.847656 L 16.808594 14.84375 L 16.820312 14.839844 Z M 16.792969 14.847656 " fill-opacity="1" fill-rule="nonzero"/><path fill="#32648d" d="M 18.640625 23.742188 C 19.238281 22.074219 20.417969 20.859375 19.425781 16.121094 C 19.265625 15.34375 18.941406 15.03125 18.5 14.855469 C 18.285156 14.773438 18.039062 14.726562 17.777344 14.726562 C 17.757812 14.726562 17.742188 14.726562 17.726562 14.726562 C 17.410156 14.730469 17.101562 14.773438 16.808594 14.84375 C 16.179688 15.007812 15.628906 15.234375 15.117188 15.527344 C 14.921875 15.632812 14.757812 15.746094 14.601562 15.875 L 14.574219 15.902344 C 14.582031 16.125 14.625 16.660156 14.640625 17.453125 C 14.660156 18.324219 14.640625 19.429688 14.476562 20.625 C 14.125 23.230469 15.953125 25.382812 18.101562 25.386719 C 18.230469 24.851562 18.4375 24.3125 18.640625 23.742188 Z M 17.371094 16.179688 C 17.300781 16.105469 17.246094 16.023438 17.199219 15.933594 L 17.195312 15.925781 C 17.15625 15.863281 17.132812 15.785156 17.132812 15.703125 C 17.132812 15.6875 17.136719 15.671875 17.136719 15.65625 C 17.160156 15.492188 17.292969 15.40625 17.417969 15.359375 C 17.535156 15.320312 17.667969 15.296875 17.808594 15.296875 C 17.828125 15.296875 17.847656 15.296875 17.871094 15.300781 L 17.871094 15.292969 C 17.949219 15.292969 18.03125 15.300781 18.117188 15.3125 C 18.339844 15.34375 18.542969 15.40625 18.695312 15.5 C 18.769531 15.542969 18.835938 15.59375 18.890625 15.660156 C 18.941406 15.71875 18.972656 15.796875 18.972656 15.882812 C 18.972656 15.894531 18.972656 15.910156 18.96875 15.921875 L 18.96875 15.917969 C 18.953125 16.011719 18.914062 16.089844 18.859375 16.152344 C 18.796875 16.230469 18.730469 16.296875 18.652344 16.351562 L 18.648438 16.351562 C 18.5 16.464844 18.308594 16.53125 18.105469 16.53125 C 18.0625 16.53125 18.023438 16.527344 17.984375 16.523438 L 17.988281 16.523438 C 17.742188 16.480469 17.53125 16.355469 17.371094 16.179688 Z M 17.371094 16.179688 " fill-opacity="1" fill-rule="nonzero"/><path fill="#32648d" d="M 15.085938 15.542969 C 15.097656 15.535156 15.105469 15.53125 15.117188 15.527344 C 15.117188 15.527344 15.117188 15.523438 15.121094 15.523438 Z M 15.085938 15.542969 " fill-opacity="1" fill-rule="nonzero"/><path fill="#32648d" d="M 29.914062 9.761719 C 30.5625 10.605469 31.121094 11.566406 31.554688 12.601562 L 31.585938 12.683594 C 31.746094 13.085938 31.855469 13.425781 31.917969 13.6875 C 31.949219 13.820312 31.96875 13.929688 31.976562 14.046875 C 31.980469 14.105469 31.984375 14.164062 31.957031 14.265625 C 31.957031 14.269531 31.953125 14.28125 31.949219 14.285156 C 31.996094 15.621094 31.675781 16.523438 31.636719 17.796875 C 31.605469 18.71875 31.835938 19.800781 31.890625 20.984375 C 31.945312 22.09375 31.816406 23.316406 31.117188 24.511719 C 31.175781 24.585938 31.226562 24.660156 31.285156 24.734375 C 33.132812 21.726562 34.464844 18.402344 35.175781 15.566406 C 35.558594 14.039062 35.757812 12.65625 35.777344 11.558594 C 35.792969 10.464844 35.59375 9.671875 35.34375 9.339844 C 33.363281 6.726562 30.6875 6.0625 28.441406 6.042969 L 28.441406 6.046875 L 28.226562 6.046875 C 27.363281 6.058594 26.527344 6.160156 25.71875 6.339844 C 27.550781 7.179688 28.941406 8.472656 29.914062 9.761719 Z M 29.914062 9.761719 " fill-opacity="1" fill-rule="nonzero"/><g clip-path="url(#36c2cec212)"><path fill="#000000" d="M 21.628906 4.445312 L 21.613281 4.445312 C 19.875 4.414062 18.386719 4.847656 17.179688 5.574219 C 15.996094 5.148438 13.539062 4.417969 10.945312 4.5625 C 9.140625 4.664062 7.171875 5.230469 5.710938 6.820312 C 4.257812 8.410156 3.488281 10.871094 3.648438 14.222656 C 3.695312 15.144531 3.949219 16.652344 4.371094 18.601562 C 4.796875 20.554688 5.390625 22.835938 6.132812 24.921875 C 6.875 27.007812 7.683594 28.878906 8.953125 30.152344 C 9.589844 30.789062 10.460938 31.324219 11.492188 31.28125 C 12.210938 31.25 12.863281 30.921875 13.429688 30.441406 C 13.703125 30.8125 13.996094 30.976562 14.261719 31.125 C 14.597656 31.316406 14.925781 31.445312 15.265625 31.53125 C 15.875 31.6875 16.914062 31.898438 18.136719 31.683594 C 18.550781 31.613281 18.988281 31.472656 19.425781 31.273438 C 19.441406 31.773438 19.460938 32.265625 19.480469 32.765625 C 19.539062 34.339844 19.578125 35.796875 20.035156 37.074219 C 20.109375 37.28125 20.3125 38.355469 21.105469 39.304688 C 21.902344 40.253906 23.464844 40.847656 25.238281 40.453125 C 26.492188 40.175781 28.085938 39.679688 29.144531 38.121094 C 30.191406 36.585938 30.664062 34.378906 30.757812 30.804688 C 30.78125 30.609375 30.808594 30.445312 30.835938 30.292969 L 31.085938 30.316406 L 31.117188 30.316406 C 32.453125 30.378906 33.902344 30.179688 35.113281 29.601562 C 36.1875 29.085938 37 28.566406 37.59375 27.648438 C 37.738281 27.417969 37.902344 27.144531 37.945312 26.667969 C 37.992188 26.195312 37.726562 25.449219 37.289062 25.109375 C 36.410156 24.421875 35.859375 24.683594 35.269531 24.808594 C 34.742188 24.933594 34.132812 25.015625 33.507812 25.03125 L 33.496094 25.03125 C 35.203125 22.066406 36.425781 18.921875 37.121094 16.136719 C 37.535156 14.492188 37.765625 12.976562 37.785156 11.648438 C 37.804688 10.324219 37.699219 9.152344 36.929688 8.136719 C 34.523438 4.964844 31.144531 4.085938 28.527344 4.058594 C 28.449219 4.054688 28.367188 4.054688 28.285156 4.054688 L 28.285156 4.050781 C 26.859375 4.0625 25.492188 4.28125 24.195312 4.671875 L 24.132812 4.695312 C 23.382812 4.550781 22.515625 4.460938 21.628906 4.445312 Z M 25.164062 5.414062 C 26.078125 5.183594 27.125 5.046875 28.207031 5.03125 L 28.214844 5.03125 L 28.21875 5.023438 C 30.691406 5 33.851562 5.71875 36.121094 8.710938 C 36.632812 9.382812 36.785156 10.367188 36.765625 11.578125 C 36.746094 12.789062 36.53125 14.238281 36.132812 15.824219 C 35.363281 18.898438 33.910156 22.484375 31.863281 25.699219 C 31.929688 25.75 32.007812 25.792969 32.085938 25.828125 L 32.09375 25.828125 C 32.523438 26.011719 33.496094 26.167969 35.441406 25.757812 C 35.929688 25.648438 36.289062 25.578125 36.660156 25.871094 C 36.828125 26.015625 36.929688 26.234375 36.929688 26.476562 C 36.929688 26.492188 36.929688 26.503906 36.929688 26.519531 C 36.90625 26.710938 36.839844 26.886719 36.738281 27.03125 C 36.359375 27.613281 35.621094 28.167969 34.671875 28.621094 C 33.828125 29.027344 32.621094 29.238281 31.550781 29.25 C 31.015625 29.253906 30.519531 29.214844 30.097656 29.078125 L 30.074219 29.066406 C 29.910156 30.679688 29.535156 33.867188 29.292969 35.320312 C 29.101562 36.492188 28.757812 37.421875 28.109375 38.121094 C 27.460938 38.816406 26.542969 39.238281 25.304688 39.511719 C 23.777344 39.851562 22.660156 39.484375 21.941406 38.859375 C 21.222656 38.234375 20.894531 37.40625 20.695312 36.898438 C 20.5625 36.550781 20.492188 36.097656 20.421875 35.492188 C 20.351562 34.886719 20.304688 34.144531 20.269531 33.308594 C 20.238281 32.460938 20.21875 31.460938 20.21875 30.457031 C 20.21875 30.128906 20.222656 29.800781 20.226562 29.46875 C 19.609375 30.054688 18.828125 30.464844 17.964844 30.621094 L 17.9375 30.625 C 16.921875 30.804688 16.015625 30.628906 15.472656 30.488281 C 15.183594 30.414062 14.933594 30.308594 14.699219 30.179688 C 14.449219 30.042969 14.214844 29.882812 14.058594 29.578125 C 13.996094 29.460938 13.957031 29.320312 13.957031 29.171875 C 13.957031 29.109375 13.964844 29.050781 13.976562 28.996094 C 14.027344 28.792969 14.140625 28.621094 14.292969 28.496094 L 14.296875 28.496094 C 14.589844 28.25 14.972656 28.113281 15.558594 27.988281 C 16.617188 27.765625 16.988281 27.609375 17.210938 27.425781 C 17.402344 27.269531 17.621094 26.949219 18.003906 26.480469 C 18 26.464844 18 26.441406 18 26.421875 L 18 26.417969 C 17.277344 26.394531 16.601562 26.195312 16.015625 25.859375 L 16.039062 25.871094 C 15.816406 26.113281 14.6875 27.347656 13.3125 29.054688 C 12.730469 29.773438 12.09375 30.183594 11.417969 30.210938 C 10.742188 30.242188 10.132812 29.890625 9.613281 29.371094 C 8.574219 28.332031 7.75 26.542969 7.027344 24.523438 C 6.308594 22.5 5.722656 20.25 5.308594 18.332031 C 4.890625 16.414062 4.644531 14.867188 4.609375 14.125 C 4.453125 10.953125 5.171875 8.820312 6.402344 7.472656 C 7.636719 6.125 9.324219 5.617188 10.972656 5.519531 C 13.925781 5.34375 16.734375 6.40625 17.300781 6.636719 C 18.398438 5.867188 19.808594 5.390625 21.566406 5.421875 C 22.453125 5.433594 23.304688 5.554688 24.121094 5.769531 L 24.046875 5.753906 L 24.074219 5.738281 C 24.359375 5.628906 24.722656 5.519531 25.097656 5.425781 Z M 25.164062 5.414062 " fill-opacity="1" fill-rule="nonzero"/></g></svg>