<svg width="120" height="120" viewBox="0 0 120 120" fill="none" xmlns="http://www.w3.org/2000/svg">
  <rect width="120" height="120" rx="24" fill="#101828"/>
  <path d="M61 18C43.3269 18 35 26.488 35 41.75V53H61V56H21C14.9249 56 10 60.9249 10 67V79.5C10 94.6927 22.9397 103 35 103C48.2963 103 61 91.6284 61 79V68H35V64H74C80.0751 64 85 59.0751 85 53V41.75C85 28.2812 72.8046 18 61 18ZM46 32C49.3137 32 52 34.6863 52 38C52 41.3137 49.3137 44 46 44C42.6863 44 40 41.3137 40 38C40 34.6863 42.6863 32 46 32Z" fill="#3776AB"/>
  <path d="M59 102C76.6731 102 85 93.512 85 78.25V67H59V64H99C105.075 64 110 59.0751 110 53V40.5C110 25.3073 97.0603 17 85 17C71.7037 17 59 28.3716 59 41V52H85V56H46C39.9249 56 35 60.9249 35 67V78.25C35 91.7188 47.1954 102 59 102ZM74 88C70.6863 88 68 85.3137 68 82C68 78.6863 70.6863 76 74 76C77.3137 76 80 78.6863 80 82C80 85.3137 77.3137 88 74 88Z" fill="#FFD43B"/>
</svg>
