<svg xmlns="http://www.w3.org/2000/svg" xmlns:xlink="http://www.w3.org/1999/xlink" width="250" zoomAndPan="magnify" viewBox="0 0 187.5 41.25" height="55" preserveAspectRatio="xMidYMid meet" version="1.0"><defs><g/><clipPath id="30d408a65c"><path d="M 5.480469 3 L 41.574219 3 L 41.574219 37 L 5.480469 37 Z M 5.480469 3 " clip-rule="nonzero"/></clipPath></defs><path fill="#8bb7f0" d="M 26.511719 20.117188 C 26.511719 21.753906 25.175781 23.082031 23.527344 23.082031 C 21.875 23.082031 20.539062 21.753906 20.539062 20.117188 C 20.539062 18.476562 21.875 17.152344 23.527344 17.152344 C 25.175781 17.152344 26.511719 18.476562 26.511719 20.117188 Z M 26.511719 20.117188 " fill-opacity="1" fill-rule="nonzero"/><path fill="#4e7ab5" d="M 23.527344 23.671875 C 21.550781 23.671875 19.945312 22.078125 19.945312 20.117188 C 19.945312 18.15625 21.550781 16.558594 23.527344 16.558594 C 25.503906 16.558594 27.109375 18.15625 27.109375 20.117188 C 27.109375 22.078125 25.503906 23.671875 23.527344 23.671875 Z M 23.527344 17.746094 C 22.210938 17.746094 21.136719 18.808594 21.136719 20.117188 C 21.136719 21.425781 22.210938 22.488281 23.527344 22.488281 C 24.84375 22.488281 25.914062 21.425781 25.914062 20.117188 C 25.914062 18.808594 24.84375 17.746094 23.527344 17.746094 Z M 23.527344 17.746094 " fill-opacity="1" fill-rule="nonzero"/><path fill="#8bb7f0" d="M 40.84375 20.117188 C 40.84375 17.566406 38.34375 15.382812 34.328125 13.992188 C 35.222656 9.71875 35.378906 6.476562 32.3125 4.675781 C 31.675781 4.300781 30.945312 4.113281 30.148438 4.113281 C 28.183594 4.113281 25.863281 5.300781 23.527344 7.367188 C 21.191406 5.296875 18.871094 4.109375 16.902344 4.109375 C 16.105469 4.109375 15.378906 4.296875 14.738281 4.671875 C 12.800781 5.816406 11.546875 8.367188 12.722656 13.992188 C 8.710938 15.382812 6.207031 17.566406 6.207031 20.117188 C 6.207031 22.667969 8.710938 24.847656 12.722656 26.242188 C 11.792969 30.691406 11.859375 33.863281 14.742188 35.558594 C 15.378906 35.933594 16.109375 36.125 16.90625 36.125 C 18.871094 36.125 21.191406 34.9375 23.527344 32.867188 C 25.863281 34.933594 28.183594 36.121094 30.148438 36.121094 L 30.152344 36.121094 C 30.945312 36.121094 31.675781 35.929688 32.316406 35.554688 C 35.167969 33.875 35.289062 30.820312 34.332031 26.242188 C 38.34375 24.851562 40.84375 22.667969 40.84375 20.117188 Z M 31.09375 6.71875 C 32.902344 7.78125 32.679688 9.898438 32.011719 13.3125 C 30.816406 13.027344 29.519531 12.804688 28.152344 12.648438 C 27.210938 11.316406 26.234375 10.109375 25.246094 9.046875 C 27.175781 7.363281 28.929688 6.484375 30.148438 6.484375 C 30.519531 6.484375 30.828125 6.558594 31.09375 6.71875 Z M 30.933594 23.050781 C 31.121094 23.574219 31.28125 24.085938 31.433594 24.589844 C 30.933594 24.710938 30.417969 24.820312 29.882812 24.917969 C 30.042969 24.648438 30.207031 24.382812 30.363281 24.105469 C 30.554688 23.757812 30.742188 23.402344 30.933594 23.050781 Z M 28.277344 22.941406 C 27.796875 23.789062 27.300781 24.582031 26.804688 25.332031 C 25.753906 25.425781 24.660156 25.480469 23.527344 25.480469 C 22.390625 25.480469 21.292969 25.425781 20.242188 25.332031 C 19.746094 24.582031 19.253906 23.785156 18.773438 22.941406 C 18.230469 21.988281 17.75 21.042969 17.320312 20.117188 C 17.75 19.1875 18.230469 18.242188 18.773438 17.292969 C 19.253906 16.445312 19.746094 15.648438 20.246094 14.898438 C 21.296875 14.808594 22.390625 14.753906 23.527344 14.753906 C 24.664062 14.753906 25.757812 14.808594 26.808594 14.898438 C 27.308594 15.648438 27.800781 16.445312 28.28125 17.292969 C 28.820312 18.242188 29.304688 19.1875 29.734375 20.117188 C 29.300781 21.042969 28.820312 21.988281 28.277344 22.941406 Z M 23.527344 29.527344 C 23.039062 29.003906 22.550781 28.433594 22.058594 27.820312 C 22.542969 27.835938 23.027344 27.851562 23.527344 27.851562 C 24.023438 27.851562 24.511719 27.835938 24.996094 27.820312 C 24.503906 28.433594 24.015625 29.003906 23.527344 29.527344 Z M 16.691406 24.101562 C 16.847656 24.378906 17.007812 24.648438 17.171875 24.914062 C 16.632812 24.816406 16.117188 24.707031 15.621094 24.585938 C 15.769531 24.085938 15.933594 23.574219 16.121094 23.046875 C 16.308594 23.402344 16.496094 23.757812 16.691406 24.101562 Z M 16.121094 17.183594 C 15.933594 16.660156 15.769531 16.148438 15.621094 15.644531 C 16.117188 15.527344 16.632812 15.414062 17.171875 15.316406 C 17.011719 15.585938 16.847656 15.851562 16.691406 16.128906 C 16.496094 16.476562 16.308594 16.828125 16.121094 17.183594 Z M 23.527344 10.710938 C 24.015625 11.230469 24.503906 11.800781 24.996094 12.414062 C 24.507812 12.398438 24.023438 12.382812 23.527344 12.382812 C 23.03125 12.382812 22.542969 12.398438 22.058594 12.414062 C 22.550781 11.800781 23.039062 11.230469 23.527344 10.710938 Z M 30.359375 16.128906 C 30.203125 15.851562 30.042969 15.585938 29.878906 15.316406 C 30.417969 15.414062 30.933594 15.523438 31.433594 15.644531 C 31.28125 16.148438 31.121094 16.660156 30.933594 17.183594 C 30.742188 16.828125 30.554688 16.476562 30.359375 16.128906 Z M 15.957031 6.714844 C 16.226562 6.554688 16.535156 6.480469 16.902344 6.480469 C 18.125 6.480469 19.878906 7.359375 21.8125 9.046875 C 20.820312 10.105469 19.84375 11.316406 18.902344 12.648438 C 17.535156 12.804688 16.238281 13.027344 15.042969 13.3125 C 14.109375 8.535156 15.257812 7.128906 15.957031 6.714844 Z M 8.597656 20.117188 C 8.597656 18.777344 10.390625 17.363281 13.328125 16.320312 C 13.703125 17.574219 14.171875 18.847656 14.71875 20.117188 C 14.171875 21.386719 13.707031 22.660156 13.328125 23.914062 C 10.390625 22.871094 8.597656 21.453125 8.597656 20.117188 Z M 15.957031 33.519531 C 14.332031 32.5625 14.339844 30.519531 15.042969 26.917969 C 16.238281 27.207031 17.535156 27.425781 18.898438 27.582031 C 19.84375 28.917969 20.824219 30.128906 21.816406 31.191406 C 19.316406 33.371094 17.113281 34.199219 15.957031 33.519531 Z M 31.09375 33.515625 C 30.828125 33.671875 30.519531 33.75 30.148438 33.75 C 28.929688 33.75 27.175781 32.867188 25.242188 31.1875 C 26.234375 30.125 27.210938 28.917969 28.152344 27.585938 C 29.519531 27.425781 30.816406 27.207031 32.011719 26.921875 C 32.738281 30.644531 32.695312 32.574219 31.09375 33.515625 Z M 33.722656 23.914062 C 33.347656 22.660156 32.878906 21.386719 32.335938 20.117188 C 32.878906 18.847656 33.347656 17.570312 33.726562 16.320312 C 36.664062 17.363281 38.457031 18.777344 38.457031 20.117188 C 38.457031 21.453125 36.664062 22.871094 33.722656 23.914062 Z M 33.722656 23.914062 " fill-opacity="1" fill-rule="nonzero"/><g clip-path="url(#30d408a65c)"><path fill="#4e7ab5" d="M 16.902344 36.714844 C 16 36.714844 15.171875 36.5 14.4375 36.066406 C 11.617188 34.410156 11.121094 31.527344 12.039062 26.625 C 7.945312 25.09375 5.613281 22.738281 5.613281 20.117188 C 5.613281 17.492188 7.945312 15.140625 12.039062 13.605469 C 10.898438 7.519531 12.535156 5.28125 14.4375 4.164062 C 16.757812 2.800781 20.0625 3.648438 23.527344 6.578125 C 26.992188 3.652344 30.289062 2.800781 32.617188 4.164062 C 35.613281 5.925781 35.898438 8.886719 35.015625 13.605469 C 39.105469 15.140625 41.441406 17.496094 41.441406 20.117188 C 41.441406 22.738281 39.105469 25.09375 35.011719 26.625 C 35.953125 31.65625 35.410156 34.421875 32.617188 36.066406 C 30.289062 37.429688 26.992188 36.578125 23.527344 33.652344 C 21.152344 35.660156 18.871094 36.714844 16.902344 36.714844 Z M 16.902344 4.703125 C 16.214844 4.703125 15.589844 4.863281 15.042969 5.183594 C 12.84375 6.480469 12.484375 9.921875 13.308594 13.871094 L 13.414062 14.378906 L 12.921875 14.550781 C 9.035156 15.898438 6.804688 17.925781 6.804688 20.117188 C 6.804688 22.304688 9.035156 24.335938 12.921875 25.679688 L 13.414062 25.851562 L 13.308594 26.363281 C 12.726562 29.140625 11.90625 33.199219 15.042969 35.050781 C 16.980469 36.1875 19.980469 35.214844 23.128906 32.425781 L 23.527344 32.070312 L 23.925781 32.425781 C 27.074219 35.210938 30.070312 36.179688 32.007812 35.046875 C 35.121094 33.214844 34.351562 29.265625 33.746094 26.363281 L 33.636719 25.851562 L 34.132812 25.679688 C 38.019531 24.335938 40.246094 22.304688 40.246094 20.117188 C 40.246094 17.925781 38.019531 15.898438 34.132812 14.550781 L 33.636719 14.378906 L 33.746094 13.871094 C 34.289062 11.273438 35.332031 7.140625 32.007812 5.1875 C 30.074219 4.050781 27.074219 5.019531 23.925781 7.808594 L 23.527344 8.160156 L 23.128906 7.808594 C 20.867188 5.804688 18.65625 4.703125 16.902344 4.703125 Z M 16.902344 34.34375 C 16.429688 34.34375 16.007812 34.238281 15.652344 34.027344 C 13.777344 32.925781 13.6875 30.75 14.453125 26.808594 L 14.574219 26.199219 L 15.183594 26.34375 C 16.328125 26.617188 17.601562 26.835938 18.96875 26.992188 L 19.234375 27.023438 L 19.386719 27.242188 C 20.3125 28.554688 21.277344 29.746094 22.253906 30.789062 L 22.671875 31.234375 L 22.210938 31.636719 C 20.210938 33.382812 18.324219 34.34375 16.902344 34.34375 Z M 15.519531 27.636719 C 14.9375 31.175781 15.164062 32.363281 16.261719 33.007812 C 16.429688 33.105469 16.644531 33.15625 16.902344 33.15625 C 17.921875 33.15625 19.378906 32.425781 20.957031 31.136719 C 20.144531 30.230469 19.34375 29.226562 18.5625 28.140625 C 17.488281 28.011719 16.46875 27.839844 15.519531 27.636719 Z M 30.148438 34.34375 C 28.738281 34.34375 26.855469 33.378906 24.847656 31.632812 L 24.386719 31.230469 L 24.804688 30.785156 C 25.78125 29.738281 26.742188 28.550781 27.664062 27.246094 L 27.816406 27.027344 L 28.085938 26.996094 C 29.449219 26.835938 30.726562 26.617188 31.871094 26.34375 L 32.480469 26.199219 L 32.597656 26.808594 C 33.394531 30.878906 33.25 32.9375 31.402344 34.023438 C 31.035156 34.238281 30.628906 34.34375 30.148438 34.34375 Z M 26.101562 31.132812 C 28.097656 32.761719 29.9375 33.507812 30.789062 33.007812 C 31.867188 32.375 32.136719 31.304688 31.535156 27.636719 C 30.585938 27.84375 29.5625 28.011719 28.488281 28.144531 C 27.714844 29.222656 26.914062 30.222656 26.101562 31.132812 Z M 23.527344 30.398438 L 23.089844 29.929688 C 22.601562 29.40625 22.097656 28.820312 21.589844 28.1875 L 20.785156 27.183594 L 22.078125 27.226562 C 23.035156 27.257812 24.019531 27.257812 24.976562 27.226562 L 26.265625 27.183594 L 25.464844 28.1875 C 24.972656 28.808594 24.464844 29.394531 23.964844 29.929688 Z M 23.527344 26.070312 C 22.425781 26.070312 21.304688 26.023438 20.191406 25.921875 L 19.90625 25.898438 L 19.746094 25.660156 C 19.21875 24.871094 18.71875 24.054688 18.25 23.230469 C 17.722656 22.296875 17.226562 21.332031 16.777344 20.363281 L 16.664062 20.117188 L 16.777344 19.871094 C 17.226562 18.902344 17.722656 17.9375 18.25 17 C 18.714844 16.183594 19.21875 15.367188 19.746094 14.574219 L 19.90625 14.335938 L 20.191406 14.3125 C 22.414062 14.113281 24.628906 14.113281 26.863281 14.3125 L 27.148438 14.335938 L 27.308594 14.574219 C 27.828125 15.363281 28.332031 16.179688 28.800781 17.003906 C 29.328125 17.9375 29.824219 18.902344 30.273438 19.871094 L 30.386719 20.117188 L 30.273438 20.363281 C 29.824219 21.332031 29.328125 22.296875 28.800781 23.230469 C 28.347656 24.027344 27.859375 24.820312 27.300781 25.660156 L 27.140625 25.898438 L 26.855469 25.921875 C 25.746094 26.023438 24.625 26.070312 23.527344 26.070312 Z M 20.582031 24.765625 C 22.550781 24.925781 24.503906 24.925781 26.460938 24.765625 C 26.9375 24.042969 27.363281 23.347656 27.757812 22.648438 C 28.230469 21.824219 28.671875 20.972656 29.074219 20.117188 C 28.671875 19.261719 28.230469 18.410156 27.757812 17.582031 C 27.351562 16.867188 26.917969 16.15625 26.46875 15.464844 C 24.496094 15.308594 22.546875 15.308594 20.582031 15.464844 C 20.128906 16.160156 19.695312 16.871094 19.292969 17.582031 C 18.824219 18.410156 18.378906 19.261719 17.976562 20.117188 C 18.378906 20.972656 18.824219 21.824219 19.292969 22.648438 C 19.695312 23.363281 20.128906 24.074219 20.582031 24.765625 Z M 18.347656 25.738281 L 17.0625 25.5 C 16.511719 25.398438 15.988281 25.285156 15.480469 25.164062 L 14.871094 25.015625 L 15.046875 24.417969 C 15.199219 23.90625 15.367188 23.386719 15.558594 22.851562 L 16.011719 21.570312 L 16.648438 22.773438 C 16.832031 23.121094 17.019531 23.472656 17.210938 23.8125 C 17.320312 24.003906 17.433594 24.195312 17.542969 24.382812 Z M 28.695312 25.734375 L 29.460938 24.457031 C 29.589844 24.242188 29.714844 24.03125 29.839844 23.8125 C 30.03125 23.476562 30.210938 23.136719 30.390625 22.796875 L 31.023438 21.59375 L 31.492188 22.851562 C 31.683594 23.386719 31.851562 23.90625 32.003906 24.417969 L 32.179688 25.015625 L 31.570312 25.164062 C 31.0625 25.285156 30.539062 25.398438 29.988281 25.5 Z M 33.332031 24.683594 L 33.152344 24.082031 C 32.785156 22.863281 32.328125 21.605469 31.785156 20.351562 L 31.683594 20.117188 L 31.785156 19.882812 C 32.320312 18.640625 32.78125 17.382812 33.15625 16.148438 L 33.332031 15.550781 L 33.925781 15.761719 C 37.183594 16.917969 39.054688 18.503906 39.054688 20.117188 C 39.054688 21.726562 37.183594 23.3125 33.925781 24.472656 Z M 32.984375 20.117188 C 33.410156 21.128906 33.789062 22.140625 34.105469 23.136719 C 36.863281 22.054688 37.859375 20.851562 37.859375 20.117188 C 37.859375 19.382812 36.863281 18.179688 34.105469 17.097656 C 33.785156 18.097656 33.40625 19.113281 32.984375 20.117188 Z M 13.71875 24.679688 L 13.128906 24.46875 C 9.867188 23.3125 8 21.726562 8 20.117188 C 8 18.503906 9.867188 16.917969 13.128906 15.761719 L 13.71875 15.550781 L 13.902344 16.148438 C 14.269531 17.382812 14.730469 18.636719 15.265625 19.882812 L 15.367188 20.117188 L 15.265625 20.347656 C 14.730469 21.597656 14.269531 22.851562 13.902344 24.082031 Z M 12.945312 17.097656 C 10.191406 18.179688 9.195312 19.382812 9.195312 20.117188 C 9.195312 20.851562 10.191406 22.054688 12.945312 23.136719 C 13.265625 22.136719 13.644531 21.125 14.070312 20.117188 C 13.644531 19.109375 13.265625 18.097656 12.945312 17.097656 Z M 16.011719 18.664062 L 15.558594 17.378906 C 15.367188 16.84375 15.199219 16.324219 15.046875 15.8125 L 14.871094 15.214844 L 15.480469 15.066406 C 15.988281 14.945312 16.511719 14.832031 17.0625 14.730469 L 18.355469 14.492188 L 17.574219 15.804688 C 17.453125 16.003906 17.332031 16.207031 17.210938 16.417969 C 17.019531 16.757812 16.832031 17.105469 16.648438 17.457031 Z M 31.035156 18.660156 L 30.402344 17.457031 C 30.210938 17.09375 30.03125 16.753906 29.839844 16.417969 C 29.714844 16.203125 29.589844 15.988281 29.460938 15.777344 L 28.695312 14.496094 L 29.988281 14.730469 C 30.539062 14.832031 31.0625 14.945312 31.570312 15.070312 L 32.179688 15.21875 L 32.003906 15.8125 C 31.851562 16.324219 31.683594 16.847656 31.492188 17.382812 Z M 14.574219 14.035156 L 14.453125 13.425781 C 13.457031 8.300781 14.703125 6.761719 15.652344 6.203125 C 17.097656 5.359375 19.515625 6.257812 22.203125 8.601562 L 22.664062 9.003906 L 22.246094 9.449219 C 21.277344 10.488281 20.3125 11.679688 19.386719 12.988281 L 19.234375 13.207031 L 18.96875 13.238281 C 17.601562 13.394531 16.328125 13.613281 15.179688 13.890625 Z M 16.902344 7.074219 C 16.644531 7.074219 16.4375 7.121094 16.261719 7.226562 C 16.054688 7.347656 14.738281 7.859375 15.519531 12.597656 C 16.46875 12.390625 17.492188 12.222656 18.566406 12.089844 C 19.339844 11.007812 20.140625 10.007812 20.953125 9.101562 C 19.382812 7.824219 17.894531 7.074219 16.902344 7.074219 Z M 32.476562 14.035156 L 31.871094 13.890625 C 30.722656 13.613281 29.449219 13.394531 28.082031 13.238281 L 27.816406 13.207031 L 27.664062 12.988281 C 26.734375 11.675781 25.773438 10.488281 24.804688 9.449219 L 24.386719 9.003906 L 24.847656 8.601562 C 27.535156 6.257812 29.957031 5.363281 31.398438 6.207031 C 33.453125 7.414062 33.328125 9.664062 32.59375 13.425781 Z M 28.488281 12.089844 C 29.5625 12.222656 30.585938 12.390625 31.535156 12.597656 C 32.085938 9.242188 32.066406 7.976562 30.789062 7.226562 C 29.933594 6.722656 28.097656 7.472656 26.101562 9.101562 C 26.910156 10.003906 27.710938 11.007812 28.488281 12.089844 Z M 20.785156 13.046875 L 21.59375 12.042969 C 22.105469 11.40625 22.609375 10.820312 23.089844 10.304688 L 23.527344 9.835938 L 23.964844 10.304688 C 24.460938 10.835938 24.964844 11.421875 25.460938 12.042969 L 26.265625 13.046875 L 24.972656 13.003906 C 24.019531 12.972656 23.035156 12.972656 22.078125 13.003906 Z M 20.785156 13.046875 " fill-opacity="1" fill-rule="nonzero"/></g><g fill="#ffffff" fill-opacity="1"><g transform="translate(41.611989, 32.901788)"><g><path d="M 3.1875 0 L 3.1875 -24.546875 L 13.046875 -24.546875 C 15.585938 -24.546875 17.503906 -23.957031 18.796875 -22.78125 C 20.085938 -21.613281 20.734375 -20 20.734375 -17.9375 C 20.734375 -16.445312 20.351562 -15.226562 19.59375 -14.28125 C 18.84375 -13.332031 17.71875 -12.609375 16.21875 -12.109375 L 16.21875 -11.75 C 16.988281 -11.414062 17.609375 -10.914062 18.078125 -10.25 C 18.554688 -9.59375 19.007812 -8.613281 19.4375 -7.3125 L 21.890625 0 L 16.90625 0 L 14.5 -7.328125 C 14.25 -8.066406 13.96875 -8.640625 13.65625 -9.046875 C 13.351562 -9.460938 12.960938 -9.757812 12.484375 -9.9375 C 12.015625 -10.125 11.398438 -10.21875 10.640625 -10.21875 L 8.046875 -10.21875 L 8.046875 0 Z M 12.453125 -14.0625 C 14.804688 -14.0625 15.984375 -15.160156 15.984375 -17.359375 C 15.984375 -19.585938 14.804688 -20.703125 12.453125 -20.703125 L 8.046875 -20.703125 L 8.046875 -14.0625 Z M 12.453125 -14.0625 "/></g></g></g><g fill="#ffffff" fill-opacity="1"><g transform="translate(64.064827, 32.901788)"><g><path d="M 18.296875 -8.203125 L 6.390625 -8.203125 C 6.523438 -6.597656 6.984375 -5.425781 7.765625 -4.6875 C 8.554688 -3.957031 9.628906 -3.59375 10.984375 -3.59375 C 12.046875 -3.59375 12.90625 -3.789062 13.5625 -4.1875 C 14.21875 -4.582031 14.75 -5.179688 15.15625 -5.984375 L 15.515625 -5.984375 L 18.59375 -4.015625 C 17.988281 -2.710938 17.078125 -1.65625 15.859375 -0.84375 C 14.640625 -0.0390625 13.015625 0.359375 10.984375 0.359375 C 9.066406 0.359375 7.410156 -0.00390625 6.015625 -0.734375 C 4.617188 -1.460938 3.539062 -2.546875 2.78125 -3.984375 C 2.03125 -5.421875 1.65625 -7.175781 1.65625 -9.25 C 1.65625 -11.351562 2.050781 -13.125 2.84375 -14.5625 C 3.644531 -16.007812 4.722656 -17.085938 6.078125 -17.796875 C 7.429688 -18.503906 8.953125 -18.859375 10.640625 -18.859375 C 13.253906 -18.859375 15.257812 -18.164062 16.65625 -16.78125 C 18.050781 -15.394531 18.75 -13.359375 18.75 -10.671875 C 18.75 -9.703125 18.710938 -8.945312 18.640625 -8.40625 Z M 14.296875 -11.21875 C 14.253906 -12.625 13.925781 -13.644531 13.3125 -14.28125 C 12.707031 -14.925781 11.816406 -15.25 10.640625 -15.25 C 8.285156 -15.25 6.90625 -13.90625 6.5 -11.21875 Z M 14.296875 -11.21875 "/></g></g></g><g fill="#ffffff" fill-opacity="1"><g transform="translate(84.18515, 32.901788)"><g><path d="M 7.21875 0.359375 C 6.03125 0.359375 5 0.140625 4.125 -0.296875 C 3.25 -0.734375 2.578125 -1.375 2.109375 -2.21875 C 1.640625 -3.0625 1.40625 -4.078125 1.40625 -5.265625 C 1.40625 -6.367188 1.640625 -7.289062 2.109375 -8.03125 C 2.578125 -8.769531 3.304688 -9.378906 4.296875 -9.859375 C 5.285156 -10.335938 6.570312 -10.703125 8.15625 -10.953125 C 9.257812 -11.140625 10.097656 -11.335938 10.671875 -11.546875 C 11.253906 -11.753906 11.644531 -11.992188 11.84375 -12.265625 C 12.050781 -12.535156 12.15625 -12.878906 12.15625 -13.296875 C 12.15625 -13.890625 11.945312 -14.34375 11.53125 -14.65625 C 11.113281 -14.96875 10.425781 -15.125 9.46875 -15.125 C 8.4375 -15.125 7.457031 -14.894531 6.53125 -14.4375 C 5.601562 -13.976562 4.796875 -13.375 4.109375 -12.625 L 3.78125 -12.625 L 1.828125 -15.5625 C 2.765625 -16.601562 3.910156 -17.410156 5.265625 -17.984375 C 6.617188 -18.566406 8.097656 -18.859375 9.703125 -18.859375 C 12.148438 -18.859375 13.921875 -18.335938 15.015625 -17.296875 C 16.117188 -16.265625 16.671875 -14.789062 16.671875 -12.875 L 16.671875 -4.828125 C 16.671875 -4.003906 17.035156 -3.59375 17.765625 -3.59375 C 18.035156 -3.59375 18.304688 -3.644531 18.578125 -3.75 L 18.8125 -3.671875 L 19.15625 -0.4375 C 18.894531 -0.269531 18.535156 -0.128906 18.078125 -0.015625 C 17.617188 0.0859375 17.113281 0.140625 16.5625 0.140625 C 15.457031 0.140625 14.59375 -0.0703125 13.96875 -0.5 C 13.351562 -0.925781 12.910156 -1.59375 12.640625 -2.5 L 12.28125 -2.53125 C 11.375 -0.601562 9.6875 0.359375 7.21875 0.359375 Z M 8.6875 -3.125 C 9.769531 -3.125 10.628906 -3.484375 11.265625 -4.203125 C 11.910156 -4.921875 12.234375 -5.925781 12.234375 -7.21875 L 12.234375 -9.09375 L 11.921875 -9.171875 C 11.640625 -8.941406 11.269531 -8.75 10.8125 -8.59375 C 10.363281 -8.445312 9.710938 -8.300781 8.859375 -8.15625 C 7.859375 -7.988281 7.132812 -7.703125 6.6875 -7.296875 C 6.25 -6.890625 6.03125 -6.3125 6.03125 -5.5625 C 6.03125 -4.757812 6.265625 -4.148438 6.734375 -3.734375 C 7.203125 -3.328125 7.851562 -3.125 8.6875 -3.125 Z M 8.6875 -3.125 "/></g></g></g><g fill="#ffffff" fill-opacity="1"><g transform="translate(103.701361, 32.901788)"><g><path d="M 10.796875 0.359375 C 9.003906 0.359375 7.421875 -0.0078125 6.046875 -0.75 C 4.671875 -1.5 3.59375 -2.59375 2.8125 -4.03125 C 2.039062 -5.476562 1.65625 -7.21875 1.65625 -9.25 C 1.65625 -11.28125 2.039062 -13.019531 2.8125 -14.46875 C 3.59375 -15.914062 4.664062 -17.007812 6.03125 -17.75 C 7.394531 -18.488281 8.953125 -18.859375 10.703125 -18.859375 C 14.609375 -18.859375 17.113281 -17.445312 18.21875 -14.625 L 15.015625 -12.34375 L 14.671875 -12.34375 C 14.285156 -13.207031 13.785156 -13.851562 13.171875 -14.28125 C 12.566406 -14.707031 11.742188 -14.921875 10.703125 -14.921875 C 9.359375 -14.921875 8.3125 -14.457031 7.5625 -13.53125 C 6.820312 -12.601562 6.453125 -11.175781 6.453125 -9.25 C 6.453125 -7.34375 6.832031 -5.921875 7.59375 -4.984375 C 8.351562 -4.054688 9.421875 -3.59375 10.796875 -3.59375 C 11.796875 -3.59375 12.644531 -3.863281 13.34375 -4.40625 C 14.050781 -4.945312 14.554688 -5.726562 14.859375 -6.75 L 15.203125 -6.78125 L 18.515625 -4.96875 C 18.046875 -3.40625 17.175781 -2.125 15.90625 -1.125 C 14.632812 -0.132812 12.929688 0.359375 10.796875 0.359375 Z M 10.796875 0.359375 "/></g></g></g><g fill="#ffffff" fill-opacity="1"><g transform="translate(122.781267, 32.901788)"><g><path d="M 12.765625 -4.421875 L 13.984375 -0.96875 C 13.472656 -0.5625 12.835938 -0.238281 12.078125 0 C 11.316406 0.238281 10.457031 0.359375 9.5 0.359375 C 7.5 0.359375 5.976562 -0.1875 4.9375 -1.28125 C 3.894531 -2.375 3.375 -3.960938 3.375 -6.046875 L 3.375 -14.84375 L 0.546875 -14.84375 L 0.546875 -18.53125 L 3.375 -18.53125 L 3.375 -22.140625 L 8.015625 -22.890625 L 8.015625 -18.53125 L 13.28125 -18.53125 L 13.28125 -14.84375 L 8.015625 -14.84375 L 8.015625 -6.375 C 8.015625 -5.457031 8.207031 -4.789062 8.59375 -4.375 C 8.976562 -3.957031 9.53125 -3.75 10.25 -3.75 C 11.082031 -3.75 11.804688 -3.972656 12.421875 -4.421875 Z M 12.765625 -4.421875 "/></g></g></g><g fill="#ffffff" fill-opacity="1"><g transform="translate(137.162516, 32.901788)"><g/></g></g><g fill="#ffffff" fill-opacity="1"><g transform="translate(145.267701, 32.901788)"><g><path d="M 8.59375 0.359375 C 6.507812 0.359375 4.78125 -0.0351562 3.40625 -0.828125 C 2.03125 -1.617188 1.03125 -2.679688 0.40625 -4.015625 L 3.140625 -7.328125 L 3.5625 -7.328125 C 4.007812 -6.253906 4.644531 -5.40625 5.46875 -4.78125 C 6.289062 -4.164062 7.242188 -3.859375 8.328125 -3.859375 C 9.546875 -3.859375 10.453125 -4.210938 11.046875 -4.921875 C 11.640625 -5.628906 11.9375 -6.785156 11.9375 -8.390625 L 11.9375 -24.546875 L 16.765625 -24.546875 L 16.765625 -8.3125 C 16.765625 -5.34375 16.085938 -3.15625 14.734375 -1.75 C 13.390625 -0.34375 11.34375 0.359375 8.59375 0.359375 Z M 8.59375 0.359375 "/></g></g></g><g fill="#ffffff" fill-opacity="1"><g transform="translate(165.069187, 32.901788)"><g><path d="M 8.65625 0.359375 C 7.394531 0.359375 6.238281 0.210938 5.1875 -0.078125 C 4.132812 -0.378906 3.234375 -0.789062 2.484375 -1.3125 C 1.742188 -1.832031 1.195312 -2.429688 0.84375 -3.109375 L 3.421875 -5.890625 L 3.78125 -5.890625 C 4.394531 -5.066406 5.117188 -4.445312 5.953125 -4.03125 C 6.796875 -3.613281 7.707031 -3.40625 8.6875 -3.40625 C 9.59375 -3.40625 10.273438 -3.566406 10.734375 -3.890625 C 11.203125 -4.210938 11.4375 -4.675781 11.4375 -5.28125 C 11.4375 -5.75 11.269531 -6.144531 10.9375 -6.46875 C 10.601562 -6.789062 10.066406 -7.039062 9.328125 -7.21875 L 6.875 -7.8125 C 5.039062 -8.238281 3.703125 -8.898438 2.859375 -9.796875 C 2.015625 -10.703125 1.59375 -11.851562 1.59375 -13.25 C 1.59375 -14.394531 1.882812 -15.390625 2.46875 -16.234375 C 3.0625 -17.085938 3.890625 -17.738281 4.953125 -18.1875 C 6.023438 -18.632812 7.269531 -18.859375 8.6875 -18.859375 C 10.363281 -18.859375 11.75 -18.617188 12.84375 -18.140625 C 13.9375 -17.660156 14.789062 -17.019531 15.40625 -16.21875 L 12.921875 -13.53125 L 12.59375 -13.53125 C 12.070312 -14.113281 11.488281 -14.535156 10.84375 -14.796875 C 10.207031 -15.066406 9.488281 -15.203125 8.6875 -15.203125 C 6.851562 -15.203125 5.9375 -14.632812 5.9375 -13.5 C 5.9375 -13.007812 6.109375 -12.613281 6.453125 -12.3125 C 6.796875 -12.007812 7.398438 -11.765625 8.265625 -11.578125 L 10.546875 -11.078125 C 12.421875 -10.671875 13.789062 -10.023438 14.65625 -9.140625 C 15.53125 -8.253906 15.96875 -7.0625 15.96875 -5.5625 C 15.96875 -4.382812 15.675781 -3.347656 15.09375 -2.453125 C 14.507812 -1.554688 13.664062 -0.863281 12.5625 -0.375 C 11.46875 0.113281 10.164062 0.359375 8.65625 0.359375 Z M 8.65625 0.359375 "/></g></g></g></svg>