<svg xmlns="http://www.w3.org/2000/svg" xmlns:xlink="http://www.w3.org/1999/xlink" width="250" zoomAndPan="magnify" viewBox="0 0 187.5 41.25" height="55" preserveAspectRatio="xMidYMid meet" version="1.0"><defs><g/><clipPath id="6def7534ab"><path d="M 1.429688 24 L 36 24 L 36 32 L 1.429688 32 Z M 1.429688 24 " clip-rule="nonzero"/></clipPath></defs><g fill="#ffffff" fill-opacity="1"><g transform="translate(38.474867, 28.555805)"><g><path d="M 13.671875 -17.515625 L 13.671875 -15.765625 L 8.1875 -15.765625 L 8.1875 0 L 6.140625 0 L 6.140625 -15.765625 L 0.640625 -15.765625 L 0.640625 -17.515625 Z M 13.671875 -17.515625 "/></g></g></g><g fill="#ffffff" fill-opacity="1"><g transform="translate(52.787554, 28.555805)"><g><path d="M 5.453125 0.25 C 4.148438 0.25 3.132812 -0.0859375 2.40625 -0.765625 C 1.675781 -1.441406 1.3125 -2.410156 1.3125 -3.671875 C 1.3125 -4.460938 1.472656 -5.125 1.796875 -5.65625 C 2.117188 -6.195312 2.617188 -6.632812 3.296875 -6.96875 C 3.972656 -7.3125 4.859375 -7.578125 5.953125 -7.765625 C 6.910156 -7.921875 7.640625 -8.097656 8.140625 -8.296875 C 8.640625 -8.503906 8.972656 -8.726562 9.140625 -8.96875 C 9.316406 -9.21875 9.40625 -9.53125 9.40625 -9.90625 C 9.40625 -10.507812 9.195312 -10.96875 8.78125 -11.28125 C 8.375 -11.601562 7.71875 -11.765625 6.8125 -11.765625 C 5.957031 -11.765625 5.222656 -11.597656 4.609375 -11.265625 C 3.992188 -10.941406 3.429688 -10.453125 2.921875 -9.796875 L 2.6875 -9.796875 L 1.71875 -11.140625 C 2.28125 -11.859375 2.992188 -12.425781 3.859375 -12.84375 C 4.722656 -13.257812 5.707031 -13.46875 6.8125 -13.46875 C 8.363281 -13.46875 9.507812 -13.125 10.25 -12.4375 C 10.988281 -11.757812 11.359375 -10.816406 11.359375 -9.609375 L 11.359375 -2.59375 C 11.359375 -1.863281 11.671875 -1.5 12.296875 -1.5 C 12.503906 -1.5 12.703125 -1.535156 12.890625 -1.609375 L 13.0625 -1.5625 L 13.296875 -0.203125 C 13.148438 -0.109375 12.957031 -0.0351562 12.71875 0.015625 C 12.488281 0.0664062 12.25 0.09375 12 0.09375 C 11.269531 0.09375 10.71875 -0.0625 10.34375 -0.375 C 9.976562 -0.695312 9.742188 -1.171875 9.640625 -1.796875 L 9.390625 -1.828125 C 9.015625 -1.128906 8.503906 -0.609375 7.859375 -0.265625 C 7.222656 0.078125 6.421875 0.25 5.453125 0.25 Z M 5.890625 -1.3125 C 6.617188 -1.3125 7.253906 -1.476562 7.796875 -1.8125 C 8.335938 -2.15625 8.75 -2.632812 9.03125 -3.25 C 9.320312 -3.863281 9.46875 -4.570312 9.46875 -5.375 L 9.46875 -7.0625 L 9.234375 -7.109375 C 8.941406 -6.898438 8.582031 -6.722656 8.15625 -6.578125 C 7.738281 -6.441406 7.148438 -6.316406 6.390625 -6.203125 C 5.617188 -6.097656 5.007812 -5.9375 4.5625 -5.71875 C 4.113281 -5.507812 3.789062 -5.238281 3.59375 -4.90625 C 3.40625 -4.570312 3.3125 -4.160156 3.3125 -3.671875 C 3.3125 -2.898438 3.535156 -2.3125 3.984375 -1.90625 C 4.441406 -1.507812 5.078125 -1.3125 5.890625 -1.3125 Z M 5.890625 -1.3125 "/></g></g></g><g fill="#ffffff" fill-opacity="1"><g transform="translate(66.464925, 28.555805)"><g><path d="M 3.28125 -15.765625 C 2.863281 -15.765625 2.523438 -15.894531 2.265625 -16.15625 C 2.003906 -16.414062 1.875 -16.75 1.875 -17.15625 C 1.875 -17.550781 2.003906 -17.878906 2.265625 -18.140625 C 2.523438 -18.398438 2.863281 -18.53125 3.28125 -18.53125 C 3.695312 -18.53125 4.035156 -18.398438 4.296875 -18.140625 C 4.554688 -17.878906 4.6875 -17.550781 4.6875 -17.15625 C 4.6875 -16.75 4.554688 -16.414062 4.296875 -16.15625 C 4.035156 -15.894531 3.695312 -15.765625 3.28125 -15.765625 Z M 2.296875 0 L 2.296875 -13.21875 L 4.25 -13.21875 L 4.25 0 Z M 2.296875 0 "/></g></g></g><g fill="#ffffff" fill-opacity="1"><g transform="translate(73.021915, 28.555805)"><g><path d="M 5.265625 0.25 C 4.328125 0.25 3.585938 -0.015625 3.046875 -0.546875 C 2.515625 -1.078125 2.25 -1.867188 2.25 -2.921875 L 2.25 -18.53125 L 4.203125 -18.53125 L 4.203125 -3.0625 C 4.203125 -2.507812 4.304688 -2.109375 4.515625 -1.859375 C 4.734375 -1.617188 5.066406 -1.5 5.515625 -1.5 C 5.785156 -1.5 6.0625 -1.539062 6.34375 -1.625 L 6.515625 -1.578125 L 6.734375 -0.046875 C 6.585938 0.046875 6.378906 0.117188 6.109375 0.171875 C 5.847656 0.222656 5.566406 0.25 5.265625 0.25 Z M 5.265625 0.25 "/></g></g></g><g fill="#ffffff" fill-opacity="1"><g transform="translate(80.21422, 28.555805)"><g><path d="M 6.5625 0 L 4.09375 0 L 0.84375 -13.21875 L 2.78125 -13.21875 L 5.28125 -2.28125 L 5.53125 -2.28125 L 8.625 -13.21875 L 10.671875 -13.21875 L 13.84375 -2.28125 L 14.09375 -2.28125 L 16.546875 -13.21875 L 18.421875 -13.21875 L 15.21875 0 L 12.734375 0 L 9.71875 -10.265625 L 9.46875 -10.265625 Z M 6.5625 0 "/></g></g></g><g fill="#ffffff" fill-opacity="1"><g transform="translate(99.489597, 28.555805)"><g><path d="M 3.28125 -15.765625 C 2.863281 -15.765625 2.523438 -15.894531 2.265625 -16.15625 C 2.003906 -16.414062 1.875 -16.75 1.875 -17.15625 C 1.875 -17.550781 2.003906 -17.878906 2.265625 -18.140625 C 2.523438 -18.398438 2.863281 -18.53125 3.28125 -18.53125 C 3.695312 -18.53125 4.035156 -18.398438 4.296875 -18.140625 C 4.554688 -17.878906 4.6875 -17.550781 4.6875 -17.15625 C 4.6875 -16.75 4.554688 -16.414062 4.296875 -16.15625 C 4.035156 -15.894531 3.695312 -15.765625 3.28125 -15.765625 Z M 2.296875 0 L 2.296875 -13.21875 L 4.25 -13.21875 L 4.25 0 Z M 2.296875 0 "/></g></g></g><g fill="#ffffff" fill-opacity="1"><g transform="translate(106.046587, 28.555805)"><g><path d="M 2.296875 0 L 2.296875 -13.21875 L 4.15625 -13.21875 L 4.15625 -11.140625 L 4.40625 -11.09375 C 4.84375 -11.863281 5.40625 -12.453125 6.09375 -12.859375 C 6.78125 -13.265625 7.613281 -13.46875 8.59375 -13.46875 C 10.1875 -13.46875 11.335938 -13.0625 12.046875 -12.25 C 12.765625 -11.4375 13.125 -10.191406 13.125 -8.515625 L 13.125 0 L 11.171875 0 L 11.171875 -8.46875 C 11.171875 -9.257812 11.066406 -9.894531 10.859375 -10.375 C 10.660156 -10.863281 10.347656 -11.21875 9.921875 -11.4375 C 9.492188 -11.65625 8.929688 -11.765625 8.234375 -11.765625 C 7.046875 -11.765625 6.082031 -11.367188 5.34375 -10.578125 C 4.613281 -9.796875 4.25 -8.53125 4.25 -6.78125 L 4.25 0 Z M 2.296875 0 "/></g></g></g><g fill="#ffffff" fill-opacity="1"><g transform="translate(121.270299, 28.555805)"><g><path d="M 6.859375 0.25 C 5.796875 0.25 4.859375 0 4.046875 -0.5 C 3.234375 -1.007812 2.597656 -1.773438 2.140625 -2.796875 C 1.679688 -3.828125 1.453125 -5.097656 1.453125 -6.609375 C 1.453125 -8.117188 1.691406 -9.382812 2.171875 -10.40625 C 2.648438 -11.4375 3.3125 -12.203125 4.15625 -12.703125 C 5 -13.210938 5.972656 -13.46875 7.078125 -13.46875 C 7.960938 -13.46875 8.753906 -13.300781 9.453125 -12.96875 C 10.160156 -12.644531 10.765625 -12.101562 11.265625 -11.34375 L 11.515625 -11.390625 L 11.515625 -18.53125 L 13.46875 -18.53125 L 13.46875 0 L 11.515625 0 L 11.515625 -1.9375 L 11.265625 -1.984375 C 10.835938 -1.328125 10.253906 -0.789062 9.515625 -0.375 C 8.773438 0.0390625 7.890625 0.25 6.859375 0.25 Z M 7.46875 -1.5 C 8.695312 -1.5 9.675781 -1.921875 10.40625 -2.765625 C 11.144531 -3.609375 11.515625 -4.890625 11.515625 -6.609375 C 11.515625 -8.328125 11.144531 -9.609375 10.40625 -10.453125 C 9.675781 -11.296875 8.695312 -11.71875 7.46875 -11.71875 C 6.195312 -11.71875 5.21875 -11.304688 4.53125 -10.484375 C 3.84375 -9.660156 3.5 -8.367188 3.5 -6.609375 C 3.5 -3.203125 4.820312 -1.5 7.46875 -1.5 Z M 7.46875 -1.5 "/></g></g></g><g fill="#ffffff" fill-opacity="1"><g transform="translate(137.057413, 28.555805)"><g/></g></g><g fill="#ffffff" fill-opacity="1"><g transform="translate(143.074975, 28.555805)"><g><path d="M 9.6875 0.25 C 8.15625 0.25 6.785156 -0.0976562 5.578125 -0.796875 C 4.378906 -1.503906 3.441406 -2.535156 2.765625 -3.890625 C 2.085938 -5.242188 1.75 -6.867188 1.75 -8.765625 C 1.75 -10.660156 2.085938 -12.285156 2.765625 -13.640625 C 3.441406 -14.992188 4.378906 -16.019531 5.578125 -16.71875 C 6.785156 -17.425781 8.15625 -17.78125 9.6875 -17.78125 C 11.320312 -17.78125 12.679688 -17.46875 13.765625 -16.84375 C 14.859375 -16.226562 15.644531 -15.296875 16.125 -14.046875 L 14.796875 -13.171875 L 14.5 -13.171875 C 14.019531 -14.171875 13.394531 -14.878906 12.625 -15.296875 C 11.863281 -15.710938 10.882812 -15.921875 9.6875 -15.921875 C 8.582031 -15.921875 7.601562 -15.675781 6.75 -15.1875 C 5.894531 -14.695312 5.210938 -13.914062 4.703125 -12.84375 C 4.203125 -11.78125 3.953125 -10.421875 3.953125 -8.765625 C 3.953125 -7.097656 4.203125 -5.734375 4.703125 -4.671875 C 5.210938 -3.609375 5.894531 -2.832031 6.75 -2.34375 C 7.601562 -1.851562 8.582031 -1.609375 9.6875 -1.609375 C 10.957031 -1.609375 11.992188 -1.890625 12.796875 -2.453125 C 13.609375 -3.023438 14.207031 -3.953125 14.59375 -5.234375 L 14.890625 -5.234375 L 16.28125 -4.546875 C 15.863281 -3.003906 15.09375 -1.816406 13.96875 -0.984375 C 12.84375 -0.160156 11.414062 0.25 9.6875 0.25 Z M 9.6875 0.25 "/></g></g></g><g fill="#ffffff" fill-opacity="1"><g transform="translate(160.264583, 28.555805)"><g><path d="M 6.03125 0.25 C 5.195312 0.25 4.425781 0.140625 3.71875 -0.078125 C 3.007812 -0.296875 2.410156 -0.597656 1.921875 -0.984375 C 1.441406 -1.367188 1.101562 -1.800781 0.90625 -2.28125 L 2.046875 -3.46875 L 2.296875 -3.46875 C 2.734375 -2.820312 3.253906 -2.332031 3.859375 -2 C 4.460938 -1.664062 5.1875 -1.5 6.03125 -1.5 C 7 -1.5 7.738281 -1.6875 8.25 -2.0625 C 8.757812 -2.445312 9.015625 -2.976562 9.015625 -3.65625 C 9.015625 -4.175781 8.859375 -4.601562 8.546875 -4.9375 C 8.242188 -5.28125 7.75 -5.535156 7.0625 -5.703125 L 4.828125 -6.25 C 3.640625 -6.539062 2.769531 -7 2.21875 -7.625 C 1.675781 -8.25 1.40625 -9.019531 1.40625 -9.9375 C 1.40625 -10.65625 1.585938 -11.28125 1.953125 -11.8125 C 2.316406 -12.34375 2.84375 -12.75 3.53125 -13.03125 C 4.226562 -13.320312 5.050781 -13.46875 6 -13.46875 C 7.21875 -13.46875 8.175781 -13.296875 8.875 -12.953125 C 9.570312 -12.617188 10.117188 -12.148438 10.515625 -11.546875 L 9.40625 -10.46875 L 9.171875 -10.46875 C 8.742188 -10.945312 8.28125 -11.296875 7.78125 -11.515625 C 7.28125 -11.734375 6.6875 -11.84375 6 -11.84375 C 5.132812 -11.84375 4.46875 -11.6875 4 -11.375 C 3.539062 -11.0625 3.3125 -10.609375 3.3125 -10.015625 C 3.3125 -9.484375 3.472656 -9.050781 3.796875 -8.71875 C 4.128906 -8.394531 4.703125 -8.132812 5.515625 -7.9375 L 7.703125 -7.40625 C 8.859375 -7.132812 9.691406 -6.679688 10.203125 -6.046875 C 10.710938 -5.421875 10.96875 -4.628906 10.96875 -3.671875 C 10.96875 -2.898438 10.78125 -2.21875 10.40625 -1.625 C 10.039062 -1.039062 9.488281 -0.582031 8.75 -0.25 C 8.007812 0.0820312 7.101562 0.25 6.03125 0.25 Z M 6.03125 0.25 "/></g></g></g><g fill="#ffffff" fill-opacity="1"><g transform="translate(172.491501, 28.555805)"><g><path d="M 6.03125 0.25 C 5.195312 0.25 4.425781 0.140625 3.71875 -0.078125 C 3.007812 -0.296875 2.410156 -0.597656 1.921875 -0.984375 C 1.441406 -1.367188 1.101562 -1.800781 0.90625 -2.28125 L 2.046875 -3.46875 L 2.296875 -3.46875 C 2.734375 -2.820312 3.253906 -2.332031 3.859375 -2 C 4.460938 -1.664062 5.1875 -1.5 6.03125 -1.5 C 7 -1.5 7.738281 -1.6875 8.25 -2.0625 C 8.757812 -2.445312 9.015625 -2.976562 9.015625 -3.65625 C 9.015625 -4.175781 8.859375 -4.601562 8.546875 -4.9375 C 8.242188 -5.28125 7.75 -5.535156 7.0625 -5.703125 L 4.828125 -6.25 C 3.640625 -6.539062 2.769531 -7 2.21875 -7.625 C 1.675781 -8.25 1.40625 -9.019531 1.40625 -9.9375 C 1.40625 -10.65625 1.585938 -11.28125 1.953125 -11.8125 C 2.316406 -12.34375 2.84375 -12.75 3.53125 -13.03125 C 4.226562 -13.320312 5.050781 -13.46875 6 -13.46875 C 7.21875 -13.46875 8.175781 -13.296875 8.875 -12.953125 C 9.570312 -12.617188 10.117188 -12.148438 10.515625 -11.546875 L 9.40625 -10.46875 L 9.171875 -10.46875 C 8.742188 -10.945312 8.28125 -11.296875 7.78125 -11.515625 C 7.28125 -11.734375 6.6875 -11.84375 6 -11.84375 C 5.132812 -11.84375 4.46875 -11.6875 4 -11.375 C 3.539062 -11.0625 3.3125 -10.609375 3.3125 -10.015625 C 3.3125 -9.484375 3.472656 -9.050781 3.796875 -8.71875 C 4.128906 -8.394531 4.703125 -8.132812 5.515625 -7.9375 L 7.703125 -7.40625 C 8.859375 -7.132812 9.691406 -6.679688 10.203125 -6.046875 C 10.710938 -5.421875 10.96875 -4.628906 10.96875 -3.671875 C 10.96875 -2.898438 10.78125 -2.21875 10.40625 -1.625 C 10.039062 -1.039062 9.488281 -0.582031 8.75 -0.25 C 8.007812 0.0820312 7.101562 0.25 6.03125 0.25 Z M 6.03125 0.25 "/></g></g></g><path fill="#d9d9d9" d="M 23.515625 16.5 C 21.601562 16.5 19.726562 15.796875 18.335938 14.566406 C 17.875 14.140625 17.511719 13.78125 17.207031 13.457031 C 16.542969 12.773438 16.222656 12.46875 15.757812 12.46875 C 15.171875 12.46875 14.246094 12.914062 12.492188 14.101562 C 12.351562 14.203125 12.148438 14.183594 12.007812 14.082031 C 11.886719 13.980469 11.828125 13.800781 11.886719 13.636719 C 11.949219 13.457031 13.417969 9.144531 17.308594 9.144531 C 17.691406 9.144531 18.074219 9.183594 18.457031 9.265625 C 19.96875 9.566406 21.804688 10.695312 22.75 11.582031 C 23.820312 12.609375 24.523438 13.214844 25.390625 13.214844 C 26.015625 13.214844 26.761719 12.894531 27.730469 12.167969 C 27.851562 12.085938 28.011719 12.066406 28.152344 12.128906 C 28.292969 12.207031 28.375 12.347656 28.375 12.488281 C 28.375 14.886719 26.417969 16.5 23.515625 16.5 Z M 15.757812 11.664062 C 16.582031 11.664062 17.085938 12.167969 17.773438 12.894531 C 18.09375 13.214844 18.4375 13.558594 18.882812 13.960938 C 20.109375 15.050781 21.804688 15.695312 23.515625 15.695312 C 25.148438 15.695312 27.023438 15.050781 27.464844 13.316406 C 26.679688 13.800781 26.015625 14.019531 25.390625 14.019531 C 24.140625 14.019531 23.195312 13.132812 22.1875 12.167969 C 21.320312 11.339844 19.605469 10.3125 18.296875 10.050781 C 17.953125 9.96875 17.632812 9.949219 17.308594 9.949219 C 15.214844 9.949219 13.902344 11.503906 13.21875 12.671875 C 14.425781 11.925781 15.152344 11.664062 15.757812 11.664062 Z M 15.757812 11.664062 " fill-opacity="1" fill-rule="evenodd"/><path fill="#d9d9d9" d="M 20.535156 22.242188 C 18.621094 22.242188 16.746094 21.539062 15.355469 20.308594 C 14.890625 19.90625 14.527344 19.523438 14.226562 19.199219 C 13.5625 18.515625 13.238281 18.214844 12.773438 18.214844 C 12.191406 18.214844 11.261719 18.675781 9.511719 19.847656 C 9.367188 19.945312 9.167969 19.945312 9.046875 19.847656 C 8.90625 19.726562 8.84375 19.542969 8.90625 19.382812 C 8.964844 19.199219 10.4375 14.886719 14.347656 14.886719 C 14.710938 14.886719 15.09375 14.929688 15.476562 15.007812 C 16.988281 15.332031 18.820312 16.441406 19.769531 17.347656 C 20.835938 18.355469 21.542969 18.960938 22.410156 18.960938 C 23.03125 18.960938 23.777344 18.636719 24.746094 17.929688 C 24.867188 17.832031 25.027344 17.808594 25.167969 17.890625 C 25.308594 17.953125 25.390625 18.09375 25.390625 18.253906 C 25.390625 20.632812 23.4375 22.242188 20.535156 22.242188 Z M 12.773438 17.40625 C 13.601562 17.40625 14.105469 17.929688 14.808594 18.636719 C 15.113281 18.960938 15.457031 19.320312 15.898438 19.703125 C 17.128906 20.8125 18.820312 21.4375 20.535156 21.4375 C 22.167969 21.4375 24.039062 20.792969 24.484375 19.078125 C 23.699219 19.542969 23.03125 19.765625 22.410156 19.765625 C 21.160156 19.765625 20.210938 18.878906 19.203125 17.929688 C 18.335938 17.105469 16.644531 16.078125 15.3125 15.796875 C 14.972656 15.734375 14.648438 15.695312 14.347656 15.695312 C 12.230469 15.695312 10.921875 17.265625 10.253906 18.414062 C 11.445312 17.6875 12.171875 17.40625 12.773438 17.40625 Z M 12.773438 17.40625 " fill-opacity="1" fill-rule="evenodd"/><path fill="#d9d9d9" d="M 33.027344 25.550781 L 4.230469 25.550781 C 4.007812 25.550781 3.828125 25.367188 3.828125 25.144531 L 3.828125 8.296875 C 3.828125 6.949219 4.914062 5.839844 6.285156 5.839844 L 30.972656 5.839844 C 32.324219 5.839844 33.433594 6.949219 33.433594 8.296875 L 33.433594 25.144531 C 33.433594 25.367188 33.25 25.550781 33.027344 25.550781 Z M 4.632812 24.742188 L 32.625 24.742188 L 32.625 8.296875 C 32.625 7.390625 31.878906 6.644531 30.972656 6.644531 L 6.285156 6.644531 C 5.359375 6.644531 4.632812 7.390625 4.632812 8.296875 Z M 4.632812 24.742188 " fill-opacity="1" fill-rule="evenodd"/><g clip-path="url(#6def7534ab)"><path fill="#d9d9d9" d="M 32.304688 31.777344 L 4.933594 31.777344 C 3 31.777344 1.429688 30.183594 1.429688 28.25 L 1.429688 25.144531 C 1.429688 24.925781 1.609375 24.742188 1.832031 24.742188 L 35.425781 24.742188 C 35.648438 24.742188 35.832031 24.925781 35.832031 25.144531 L 35.832031 28.25 C 35.832031 30.183594 34.238281 31.777344 32.304688 31.777344 Z M 2.234375 25.550781 L 2.234375 28.25 C 2.234375 29.742188 3.445312 30.96875 4.933594 30.96875 L 32.304688 30.96875 C 33.796875 30.96875 35.023438 29.742188 35.023438 28.25 L 35.023438 25.550781 Z M 2.234375 25.550781 " fill-opacity="1" fill-rule="evenodd"/></g><path fill="#d9d9d9" d="M 22.167969 28.792969 L 15.074219 28.792969 C 14.953125 28.792969 14.832031 28.734375 14.75 28.632812 L 12.433594 25.367188 C 12.351562 25.246094 12.332031 25.085938 12.414062 24.945312 C 12.472656 24.824219 12.613281 24.742188 12.753906 24.742188 L 24.484375 24.742188 C 24.644531 24.742188 24.785156 24.824219 24.847656 24.945312 C 24.90625 25.085938 24.90625 25.246094 24.828125 25.367188 L 22.507812 28.632812 C 22.429688 28.734375 22.308594 28.792969 22.167969 28.792969 Z M 15.292969 27.988281 L 21.964844 27.988281 L 23.71875 25.550781 L 13.539062 25.550781 Z M 15.292969 27.988281 " fill-opacity="1" fill-rule="evenodd"/><path fill="#d9d9d9" d="M 8.84375 28.652344 L 4.714844 28.652344 C 4.492188 28.652344 4.308594 28.472656 4.308594 28.25 C 4.308594 28.027344 4.492188 27.847656 4.714844 27.847656 L 8.84375 27.847656 C 9.066406 27.847656 9.25 28.027344 9.25 28.25 C 9.25 28.472656 9.066406 28.652344 8.84375 28.652344 Z M 8.84375 28.652344 " fill-opacity="1" fill-rule="evenodd"/><path fill="#d9d9d9" d="M 32.546875 28.652344 L 28.414062 28.652344 C 28.191406 28.652344 28.011719 28.472656 28.011719 28.25 C 28.011719 28.027344 28.191406 27.847656 28.414062 27.847656 L 32.546875 27.847656 C 32.765625 27.847656 32.949219 28.027344 32.949219 28.25 C 32.949219 28.472656 32.765625 28.652344 32.546875 28.652344 Z M 32.546875 28.652344 " fill-opacity="1" fill-rule="evenodd"/></svg>