<svg width="120" height="120" viewBox="0 0 120 120" fill="none" xmlns="http://www.w3.org/2000/svg">
  <rect width="120" height="120" rx="24" fill="#3178C6"/>
  <path d="M25 36H95V48H72V84H58V48H25V36Z" fill="white"/>
  <path d="M76 60C76 53.3726 81.3726 48 88 48C92.3747 48 96.2266 50.3406 98.3196 53.8333L89.9157 58.75C89.5071 58.0628 88.7983 57.6 88 57.6C86.6745 57.6 85.6 58.6745 85.6 60C85.6 61.3255 86.6745 62.4 88 62.4H89.8C95.4333 62.4 100 66.9667 100 72.6C100 78.2333 95.4333 82.8 89.8 82.8H87.8C82.8022 82.8 78.4519 79.8421 76.4541 75.585L84.9703 70.9534C85.5724 72.3923 86.9825 73.4 88.6 73.4H89.2C90.5255 73.4 91.6 72.3255 91.6 71C91.6 69.6745 90.5255 68.6 89.2 68.6H88C81.3726 68.6 76 63.2274 76 56.6V60Z" fill="white"/>
</svg>
