<svg xmlns="http://www.w3.org/2000/svg" xmlns:xlink="http://www.w3.org/1999/xlink" width="242" zoomAndPan="magnify" viewBox="0 0 181.5 39.749999" height="53" preserveAspectRatio="xMidYMid meet" version="1.0"><defs><g/><clipPath id="3b5810e8d8"><path d="M 4.269531 1.675781 L 45.300781 1.675781 L 45.300781 37.527344 L 4.269531 37.527344 Z M 4.269531 1.675781 " clip-rule="nonzero"/></clipPath><clipPath id="818bcbb6ed"><path d="M 24.753906 1.675781 L 45.238281 37.527344 L 4.269531 37.527344 Z M 24.753906 1.675781 " clip-rule="nonzero"/></clipPath><clipPath id="bd14dcfd90"><path d="M 0.269531 0.675781 L 41.300781 0.675781 L 41.300781 36.527344 L 0.269531 36.527344 Z M 0.269531 0.675781 " clip-rule="nonzero"/></clipPath><clipPath id="7b69c804d4"><path d="M 20.753906 0.675781 L 41.238281 36.527344 L 0.269531 36.527344 Z M 20.753906 0.675781 " clip-rule="nonzero"/></clipPath><clipPath id="1fba19be6f"><rect x="0" width="42" y="0" height="37"/></clipPath></defs><g fill="#ffffff" fill-opacity="1"><g transform="translate(48.977312, 31.626097)"><g><path d="M 12.21875 0 L 7.3125 0 L 0.359375 -20.5625 L 4.6875 -20.5625 L 9.671875 -5.234375 L 10.03125 -5.234375 L 14.953125 -20.5625 L 19.15625 -20.5625 Z M 12.21875 0 "/></g></g></g><g fill="#ffffff" fill-opacity="1"><g transform="translate(67.321692, 31.626097)"><g><path d="M 15.328125 -6.875 L 5.359375 -6.875 C 5.472656 -5.53125 5.859375 -4.550781 6.515625 -3.9375 C 7.171875 -3.320312 8.066406 -3.015625 9.203125 -3.015625 C 10.085938 -3.015625 10.804688 -3.179688 11.359375 -3.515625 C 11.921875 -3.847656 12.367188 -4.347656 12.703125 -5.015625 L 13 -5.015625 L 15.59375 -3.359375 C 15.082031 -2.273438 14.316406 -1.394531 13.296875 -0.71875 C 12.273438 -0.0390625 10.910156 0.296875 9.203125 0.296875 C 7.597656 0.296875 6.210938 -0.00390625 5.046875 -0.609375 C 3.878906 -1.222656 2.976562 -2.132812 2.34375 -3.34375 C 1.707031 -4.550781 1.390625 -6.019531 1.390625 -7.75 C 1.390625 -9.507812 1.722656 -10.992188 2.390625 -12.203125 C 3.054688 -13.421875 3.957031 -14.328125 5.09375 -14.921875 C 6.226562 -15.515625 7.503906 -15.8125 8.921875 -15.8125 C 11.117188 -15.8125 12.800781 -15.226562 13.96875 -14.0625 C 15.132812 -12.90625 15.71875 -11.203125 15.71875 -8.953125 C 15.71875 -8.128906 15.6875 -7.492188 15.625 -7.046875 Z M 11.984375 -9.390625 C 11.953125 -10.578125 11.675781 -11.4375 11.15625 -11.96875 C 10.644531 -12.507812 9.898438 -12.78125 8.921875 -12.78125 C 6.953125 -12.78125 5.789062 -11.648438 5.4375 -9.390625 Z M 11.984375 -9.390625 "/></g></g></g><g fill="#ffffff" fill-opacity="1"><g transform="translate(84.18906, 31.626097)"><g><path d="M 2.234375 0 L 2.234375 -15.515625 L 6.015625 -15.515625 L 6.015625 -13.203125 L 6.3125 -13.15625 C 6.6875 -14.019531 7.175781 -14.648438 7.78125 -15.046875 C 8.394531 -15.453125 9.140625 -15.65625 10.015625 -15.65625 C 10.898438 -15.65625 11.570312 -15.503906 12.03125 -15.203125 L 11.375 -11.84375 L 11.078125 -11.796875 C 10.816406 -11.890625 10.566406 -11.957031 10.328125 -12 C 10.097656 -12.050781 9.816406 -12.078125 9.484375 -12.078125 C 8.390625 -12.078125 7.554688 -11.695312 6.984375 -10.9375 C 6.421875 -10.175781 6.140625 -8.953125 6.140625 -7.265625 L 6.140625 0 Z M 2.234375 0 "/></g></g></g><g fill="#ffffff" fill-opacity="1"><g transform="translate(95.94976, 31.626097)"><g><path d="M 9.046875 0.296875 C 7.546875 0.296875 6.21875 -0.015625 5.0625 -0.640625 C 3.90625 -1.265625 3.003906 -2.179688 2.359375 -3.390625 C 1.710938 -4.597656 1.390625 -6.050781 1.390625 -7.75 C 1.390625 -9.457031 1.710938 -10.914062 2.359375 -12.125 C 3.003906 -13.332031 3.898438 -14.25 5.046875 -14.875 C 6.191406 -15.5 7.5 -15.8125 8.96875 -15.8125 C 12.25 -15.8125 14.347656 -14.625 15.265625 -12.25 L 12.59375 -10.34375 L 12.296875 -10.34375 C 11.972656 -11.070312 11.554688 -11.613281 11.046875 -11.96875 C 10.535156 -12.320312 9.84375 -12.5 8.96875 -12.5 C 7.84375 -12.5 6.96875 -12.109375 6.34375 -11.328125 C 5.71875 -10.554688 5.40625 -9.363281 5.40625 -7.75 C 5.40625 -6.15625 5.722656 -4.96875 6.359375 -4.1875 C 6.992188 -3.40625 7.890625 -3.015625 9.046875 -3.015625 C 9.890625 -3.015625 10.601562 -3.238281 11.1875 -3.6875 C 11.78125 -4.144531 12.203125 -4.800781 12.453125 -5.65625 L 12.75 -5.6875 L 15.515625 -4.171875 C 15.117188 -2.847656 14.390625 -1.769531 13.328125 -0.9375 C 12.265625 -0.113281 10.835938 0.296875 9.046875 0.296875 Z M 9.046875 0.296875 "/></g></g></g><g fill="#ffffff" fill-opacity="1"><g transform="translate(111.944921, 31.626097)"><g><path d="M 15.328125 -6.875 L 5.359375 -6.875 C 5.472656 -5.53125 5.859375 -4.550781 6.515625 -3.9375 C 7.171875 -3.320312 8.066406 -3.015625 9.203125 -3.015625 C 10.085938 -3.015625 10.804688 -3.179688 11.359375 -3.515625 C 11.921875 -3.847656 12.367188 -4.347656 12.703125 -5.015625 L 13 -5.015625 L 15.59375 -3.359375 C 15.082031 -2.273438 14.316406 -1.394531 13.296875 -0.71875 C 12.273438 -0.0390625 10.910156 0.296875 9.203125 0.296875 C 7.597656 0.296875 6.210938 -0.00390625 5.046875 -0.609375 C 3.878906 -1.222656 2.976562 -2.132812 2.34375 -3.34375 C 1.707031 -4.550781 1.390625 -6.019531 1.390625 -7.75 C 1.390625 -9.507812 1.722656 -10.992188 2.390625 -12.203125 C 3.054688 -13.421875 3.957031 -14.328125 5.09375 -14.921875 C 6.226562 -15.515625 7.503906 -15.8125 8.921875 -15.8125 C 11.117188 -15.8125 12.800781 -15.226562 13.96875 -14.0625 C 15.132812 -12.90625 15.71875 -11.203125 15.71875 -8.953125 C 15.71875 -8.128906 15.6875 -7.492188 15.625 -7.046875 Z M 11.984375 -9.390625 C 11.953125 -10.578125 11.675781 -11.4375 11.15625 -11.96875 C 10.644531 -12.507812 9.898438 -12.78125 8.921875 -12.78125 C 6.953125 -12.78125 5.789062 -11.648438 5.4375 -9.390625 Z M 11.984375 -9.390625 "/></g></g></g><g fill="#ffffff" fill-opacity="1"><g transform="translate(128.812289, 31.626097)"><g><path d="M 6.4375 0.296875 C 5.039062 0.296875 3.972656 -0.078125 3.234375 -0.828125 C 2.503906 -1.585938 2.140625 -2.738281 2.140625 -4.28125 L 2.140625 -21.75 L 6.03125 -21.75 L 6.03125 -4.4375 C 6.03125 -3.488281 6.425781 -3.015625 7.21875 -3.015625 C 7.445312 -3.015625 7.6875 -3.050781 7.9375 -3.125 L 8.125 -3.0625 L 8.484375 -0.078125 C 8.265625 0.0351562 7.976562 0.125 7.625 0.1875 C 7.269531 0.257812 6.875 0.296875 6.4375 0.296875 Z M 6.4375 0.296875 "/></g></g></g><g clip-path="url(#3b5810e8d8)"><g clip-path="url(#818bcbb6ed)"><g transform="matrix(1, 0, 0, 1, 4, 1)"><g clip-path="url(#1fba19be6f)"><g clip-path="url(#bd14dcfd90)"><g clip-path="url(#7b69c804d4)"><path fill="#000000" d="M 0.269531 0.675781 L 41.300781 0.675781 L 41.300781 36.527344 L 0.269531 36.527344 Z M 0.269531 0.675781 " fill-opacity="1" fill-rule="nonzero"/></g></g></g></g></g></g></svg>