<svg xmlns="http://www.w3.org/2000/svg" xmlns:xlink="http://www.w3.org/1999/xlink" width="250" zoomAndPan="magnify" viewBox="0 0 187.5 41.25" height="55" preserveAspectRatio="xMidYMid meet" version="1.0"><defs><g/><clipPath id="0aade78b71"><path d="M 3.40625 5.148438 L 33.605469 5.148438 L 33.605469 35 L 3.40625 35 Z M 3.40625 5.148438 " clip-rule="nonzero"/></clipPath></defs><g clip-path="url(#0aade78b71)"><path fill="#ffffff" d="M 16.933594 7.039062 L 17.671875 7.777344 Z M 5.296875 18.679688 L 4.558594 17.941406 Z M 5.296875 21.625 L 6.03125 20.886719 Z M 16.933594 33.261719 L 16.199219 34 Z M 19.882812 33.261719 L 19.144531 32.527344 Z M 31.519531 21.625 L 32.257812 22.363281 Z M 31.519531 18.679688 L 30.78125 19.414062 Z M 19.882812 7.039062 L 20.617188 6.304688 Z M 16.199219 6.304688 L 4.558594 17.941406 L 6.03125 19.414062 L 17.671875 7.777344 Z M 4.558594 22.363281 L 16.199219 34 L 17.671875 32.527344 L 6.03125 20.886719 Z M 20.617188 34 L 32.257812 22.363281 L 30.78125 20.886719 L 19.144531 32.527344 Z M 32.257812 17.941406 L 20.617188 6.304688 L 19.144531 7.777344 L 30.78125 19.414062 Z M 32.257812 22.363281 C 33.476562 21.140625 33.476562 19.160156 32.257812 17.941406 L 30.78125 19.414062 C 31.191406 19.820312 31.191406 20.480469 30.78125 20.886719 Z M 16.199219 34 C 17.417969 35.21875 19.398438 35.21875 20.617188 34 L 19.144531 32.527344 C 18.738281 32.933594 18.078125 32.933594 17.671875 32.527344 Z M 4.558594 17.941406 C 3.339844 19.160156 3.339844 21.140625 4.558594 22.363281 L 6.03125 20.886719 C 5.625 20.480469 5.625 19.820312 6.03125 19.414062 Z M 17.671875 7.777344 C 18.078125 7.371094 18.738281 7.371094 19.144531 7.777344 L 20.617188 6.304688 C 19.398438 5.082031 17.417969 5.082031 16.199219 6.304688 Z M 13.503906 10.46875 L 15.585938 12.554688 L 17.0625 11.082031 L 14.976562 8.996094 Z M 18.40625 14.941406 C 17.832031 14.941406 17.367188 14.476562 17.367188 13.902344 L 15.28125 13.902344 C 15.28125 15.625 16.679688 17.027344 18.40625 17.027344 Z M 19.449219 13.902344 C 19.449219 14.476562 18.984375 14.941406 18.40625 14.941406 L 18.40625 17.027344 C 20.132812 17.027344 21.53125 15.625 21.53125 13.902344 Z M 18.40625 12.859375 C 18.984375 12.859375 19.449219 13.324219 19.449219 13.902344 L 21.53125 13.902344 C 21.53125 12.175781 20.132812 10.773438 18.40625 10.773438 Z M 18.40625 10.773438 C 16.679688 10.773438 15.28125 12.175781 15.28125 13.902344 L 17.367188 13.902344 C 17.367188 13.324219 17.832031 12.859375 18.40625 12.859375 Z M 19.753906 16.722656 L 22.878906 19.847656 L 24.351562 18.375 L 21.226562 15.246094 Z M 24.660156 21.191406 C 24.082031 21.191406 23.617188 20.726562 23.617188 20.152344 L 21.53125 20.152344 C 21.53125 21.878906 22.933594 23.277344 24.660156 23.277344 Z M 25.699219 20.152344 C 25.699219 20.726562 25.234375 21.191406 24.660156 21.191406 L 24.660156 23.277344 C 26.382812 23.277344 27.785156 21.878906 27.785156 20.152344 Z M 24.660156 19.109375 C 25.234375 19.109375 25.699219 19.574219 25.699219 20.152344 L 27.785156 20.152344 C 27.785156 18.425781 26.382812 17.027344 24.660156 17.027344 Z M 24.660156 17.027344 C 22.933594 17.027344 21.53125 18.425781 21.53125 20.152344 L 23.617188 20.152344 C 23.617188 19.574219 24.082031 19.109375 24.660156 19.109375 Z M 17.367188 15.984375 L 17.367188 24.320312 L 19.449219 24.320312 L 19.449219 15.984375 Z M 18.40625 27.445312 C 17.832031 27.445312 17.367188 26.976562 17.367188 26.402344 L 15.28125 26.402344 C 15.28125 28.128906 16.679688 29.527344 18.40625 29.527344 Z M 19.449219 26.402344 C 19.449219 26.976562 18.984375 27.445312 18.40625 27.445312 L 18.40625 29.527344 C 20.132812 29.527344 21.53125 28.128906 21.53125 26.402344 Z M 18.40625 25.359375 C 18.984375 25.359375 19.449219 25.828125 19.449219 26.402344 L 21.53125 26.402344 C 21.53125 24.675781 20.132812 23.277344 18.40625 23.277344 Z M 18.40625 23.277344 C 16.679688 23.277344 15.28125 24.675781 15.28125 26.402344 L 17.367188 26.402344 C 17.367188 25.828125 17.832031 25.359375 18.40625 25.359375 Z M 18.40625 23.277344 " fill-opacity="1" fill-rule="nonzero"/></g><g fill="#ffffff" fill-opacity="1"><g transform="translate(35.511995, 31.551329)"><g><path d="M 2.875 0 L 0.265625 -21.109375 L 4.296875 -21.109375 L 5.84375 -6.75 L 7.21875 -21.109375 L 11.25 -21.109375 L 8.640625 0 Z M 2.875 0 "/></g></g></g><g fill="#ffffff" fill-opacity="1"><g transform="translate(47.025797, 31.551329)"><g><path d="M 5.890625 0.203125 C 4.046875 0.203125 2.722656 -0.300781 1.921875 -1.3125 C 1.117188 -2.332031 0.71875 -3.847656 0.71875 -5.859375 L 0.71875 -13.078125 C 0.71875 -14.734375 1.191406 -15.992188 2.140625 -16.859375 C 3.085938 -17.734375 4.410156 -18.171875 6.109375 -18.171875 C 9.566406 -18.171875 11.296875 -16.472656 11.296875 -13.078125 L 11.296875 -11.78125 C 11.296875 -10.46875 11.28125 -9.40625 11.25 -8.59375 L 5 -8.59375 L 5 -5.109375 C 5 -4.484375 5.066406 -3.992188 5.203125 -3.640625 C 5.335938 -3.296875 5.613281 -3.125 6.03125 -3.125 C 6.363281 -3.125 6.597656 -3.21875 6.734375 -3.40625 C 6.878906 -3.601562 6.960938 -3.828125 6.984375 -4.078125 C 7.003906 -4.335938 7.015625 -4.710938 7.015625 -5.203125 L 7.015625 -6.953125 L 11.296875 -6.953125 L 11.296875 -5.921875 C 11.296875 -3.828125 10.890625 -2.28125 10.078125 -1.28125 C 9.265625 -0.289062 7.867188 0.203125 5.890625 0.203125 Z M 7.015625 -10.734375 L 7.015625 -13.03125 C 7.015625 -14.320312 6.695312 -14.96875 6.0625 -14.96875 C 5.34375 -14.96875 4.984375 -14.320312 4.984375 -13.03125 L 4.984375 -10.734375 Z M 7.015625 -10.734375 "/></g></g></g><g fill="#ffffff" fill-opacity="1"><g transform="translate(59.006048, 31.551329)"><g><path d="M 0.859375 -17.96875 L 5.15625 -17.96875 L 5.15625 -15.984375 C 5.363281 -16.679688 5.734375 -17.222656 6.265625 -17.609375 C 6.796875 -17.992188 7.457031 -18.1875 8.25 -18.1875 L 8.25 -14.609375 C 7.644531 -14.609375 6.976562 -14.519531 6.25 -14.34375 C 5.519531 -14.175781 5.15625 -13.976562 5.15625 -13.75 L 5.15625 0 L 0.859375 0 Z M 0.859375 -17.96875 "/></g></g></g><g fill="#ffffff" fill-opacity="1"><g transform="translate(67.451144, 31.551329)"><g><path d="M 5.796875 0.203125 C 2.242188 0.203125 0.46875 -1.597656 0.46875 -5.203125 L 0.484375 -6.625 L 4.78125 -6.625 L 4.8125 -4.515625 C 4.8125 -4.085938 4.890625 -3.765625 5.046875 -3.546875 C 5.210938 -3.328125 5.484375 -3.21875 5.859375 -3.21875 C 6.429688 -3.21875 6.71875 -3.679688 6.71875 -4.609375 C 6.71875 -5.296875 6.582031 -5.835938 6.3125 -6.234375 C 6.050781 -6.628906 5.625 -7.046875 5.03125 -7.484375 L 2.75 -9.25 C 1.96875 -9.851562 1.40625 -10.476562 1.0625 -11.125 C 0.71875 -11.78125 0.546875 -12.695312 0.546875 -13.875 C 0.546875 -14.789062 0.785156 -15.570312 1.265625 -16.21875 C 1.742188 -16.863281 2.382812 -17.347656 3.1875 -17.671875 C 3.988281 -18.003906 4.878906 -18.171875 5.859375 -18.171875 C 9.347656 -18.171875 11.09375 -16.429688 11.09375 -12.953125 L 11.09375 -12.609375 L 6.65625 -12.609375 L 6.65625 -13.296875 C 6.65625 -13.722656 6.582031 -14.085938 6.4375 -14.390625 C 6.300781 -14.691406 6.070312 -14.84375 5.75 -14.84375 C 5.445312 -14.84375 5.21875 -14.753906 5.0625 -14.578125 C 4.90625 -14.410156 4.828125 -14.179688 4.828125 -13.890625 C 4.828125 -13.234375 5.082031 -12.726562 5.59375 -12.375 L 8.25 -10.4375 C 9.195312 -9.726562 9.921875 -8.957031 10.421875 -8.125 C 10.929688 -7.300781 11.1875 -6.257812 11.1875 -5 C 11.1875 -3.332031 10.710938 -2.046875 9.765625 -1.140625 C 8.816406 -0.242188 7.492188 0.203125 5.796875 0.203125 Z M 5.796875 0.203125 "/></g></g></g><g fill="#ffffff" fill-opacity="1"><g transform="translate(79.112243, 31.551329)"><g><path d="M 0.828125 -19.171875 L 0.828125 -22.171875 L 5.125 -22.171875 L 5.125 -19.171875 Z M 0.828125 0 L 0.828125 -17.96875 L 5.125 -17.96875 L 5.125 0 Z M 0.828125 0 "/></g></g></g><g fill="#ffffff" fill-opacity="1"><g transform="translate(85.077821, 31.551329)"><g><path d="M 6.09375 0.203125 C 2.507812 0.203125 0.71875 -1.65625 0.71875 -5.375 L 0.71875 -12.59375 C 0.71875 -14.289062 1.191406 -15.644531 2.140625 -16.65625 C 3.097656 -17.664062 4.414062 -18.171875 6.09375 -18.171875 C 7.757812 -18.171875 9.070312 -17.664062 10.03125 -16.65625 C 10.988281 -15.644531 11.46875 -14.289062 11.46875 -12.59375 L 11.46875 -5.375 C 11.46875 -1.65625 9.675781 0.203125 6.09375 0.203125 Z M 6.09375 -3.125 C 6.4375 -3.125 6.6875 -3.242188 6.84375 -3.484375 C 7.007812 -3.734375 7.09375 -4.066406 7.09375 -4.484375 L 7.09375 -13.28125 C 7.09375 -14.320312 6.757812 -14.84375 6.09375 -14.84375 C 5.414062 -14.84375 5.078125 -14.320312 5.078125 -13.28125 L 5.078125 -4.484375 C 5.078125 -4.066406 5.160156 -3.734375 5.328125 -3.484375 C 5.492188 -3.242188 5.75 -3.125 6.09375 -3.125 Z M 6.09375 -3.125 "/></g></g></g><g fill="#ffffff" fill-opacity="1"><g transform="translate(97.279011, 31.551329)"><g><path d="M 0.859375 -17.96875 L 5.15625 -17.96875 L 5.15625 -15.6875 C 5.332031 -16.425781 5.640625 -17.023438 6.078125 -17.484375 C 6.523438 -17.941406 7.117188 -18.171875 7.859375 -18.171875 C 9.066406 -18.171875 9.960938 -17.796875 10.546875 -17.046875 C 11.128906 -16.304688 11.421875 -15.25 11.421875 -13.875 L 11.421875 0 L 7.1875 0 L 7.1875 -13.421875 C 7.1875 -13.816406 7.109375 -14.148438 6.953125 -14.421875 C 6.796875 -14.703125 6.554688 -14.84375 6.234375 -14.84375 C 5.796875 -14.84375 5.503906 -14.640625 5.359375 -14.234375 C 5.222656 -13.835938 5.15625 -13.304688 5.15625 -12.640625 L 5.15625 0 L 0.859375 0 Z M 0.859375 -17.96875 "/></g></g></g><g fill="#ffffff" fill-opacity="1"><g transform="translate(109.529308, 31.551329)"><g/></g></g><g fill="#ffffff" fill-opacity="1"><g transform="translate(115.273935, 31.551329)"><g><path d="M 5.84375 0.203125 C 4.300781 0.203125 3.066406 -0.28125 2.140625 -1.25 C 1.222656 -2.21875 0.765625 -3.546875 0.765625 -5.234375 L 0.765625 -14.953125 C 0.765625 -17.046875 1.179688 -18.625 2.015625 -19.6875 C 2.847656 -20.75 4.15625 -21.28125 5.9375 -21.28125 C 7.488281 -21.28125 8.738281 -20.851562 9.6875 -20 C 10.644531 -19.15625 11.125 -17.929688 11.125 -16.328125 L 11.125 -12.6875 L 6.921875 -12.6875 L 6.921875 -15.8125 C 6.921875 -16.414062 6.847656 -16.832031 6.703125 -17.0625 C 6.554688 -17.289062 6.300781 -17.40625 5.9375 -17.40625 C 5.5625 -17.40625 5.300781 -17.273438 5.15625 -17.015625 C 5.019531 -16.753906 4.953125 -16.367188 4.953125 -15.859375 L 4.953125 -5.28125 C 4.953125 -4.71875 5.035156 -4.3125 5.203125 -4.0625 C 5.367188 -3.8125 5.613281 -3.6875 5.9375 -3.6875 C 6.59375 -3.6875 6.921875 -4.21875 6.921875 -5.28125 L 6.921875 -9.078125 L 11.171875 -9.078125 L 11.171875 -5.109375 C 11.171875 -1.566406 9.394531 0.203125 5.84375 0.203125 Z M 5.84375 0.203125 "/></g></g></g><g fill="#ffffff" fill-opacity="1"><g transform="translate(126.910486, 31.551329)"><g><path d="M 6.09375 0.203125 C 2.507812 0.203125 0.71875 -1.65625 0.71875 -5.375 L 0.71875 -12.59375 C 0.71875 -14.289062 1.191406 -15.644531 2.140625 -16.65625 C 3.097656 -17.664062 4.414062 -18.171875 6.09375 -18.171875 C 7.757812 -18.171875 9.070312 -17.664062 10.03125 -16.65625 C 10.988281 -15.644531 11.46875 -14.289062 11.46875 -12.59375 L 11.46875 -5.375 C 11.46875 -1.65625 9.675781 0.203125 6.09375 0.203125 Z M 6.09375 -3.125 C 6.4375 -3.125 6.6875 -3.242188 6.84375 -3.484375 C 7.007812 -3.734375 7.09375 -4.066406 7.09375 -4.484375 L 7.09375 -13.28125 C 7.09375 -14.320312 6.757812 -14.84375 6.09375 -14.84375 C 5.414062 -14.84375 5.078125 -14.320312 5.078125 -13.28125 L 5.078125 -4.484375 C 5.078125 -4.066406 5.160156 -3.734375 5.328125 -3.484375 C 5.492188 -3.242188 5.75 -3.125 6.09375 -3.125 Z M 6.09375 -3.125 "/></g></g></g><g fill="#ffffff" fill-opacity="1"><g transform="translate(139.111677, 31.551329)"><g><path d="M 0.859375 -17.96875 L 5.15625 -17.96875 L 5.15625 -15.6875 C 5.332031 -16.425781 5.640625 -17.023438 6.078125 -17.484375 C 6.523438 -17.941406 7.117188 -18.171875 7.859375 -18.171875 C 9.066406 -18.171875 9.960938 -17.796875 10.546875 -17.046875 C 11.128906 -16.304688 11.421875 -15.25 11.421875 -13.875 L 11.421875 0 L 7.1875 0 L 7.1875 -13.421875 C 7.1875 -13.816406 7.109375 -14.148438 6.953125 -14.421875 C 6.796875 -14.703125 6.554688 -14.84375 6.234375 -14.84375 C 5.796875 -14.84375 5.503906 -14.640625 5.359375 -14.234375 C 5.222656 -13.835938 5.15625 -13.304688 5.15625 -12.640625 L 5.15625 0 L 0.859375 0 Z M 0.859375 -17.96875 "/></g></g></g><g fill="#ffffff" fill-opacity="1"><g transform="translate(151.361973, 31.551329)"><g><path d="M 4.5625 0.203125 C 3.4375 0.203125 2.660156 -0.0351562 2.234375 -0.515625 C 1.804688 -0.992188 1.59375 -1.753906 1.59375 -2.796875 L 1.59375 -14.015625 L 0.390625 -14.015625 L 0.390625 -17.28125 L 1.59375 -17.28125 L 1.59375 -21.078125 L 5.765625 -21.078125 L 5.765625 -17.28125 L 7 -17.28125 L 7 -14.015625 L 5.765625 -14.015625 L 5.765625 -3.921875 C 5.765625 -3.617188 5.789062 -3.390625 5.84375 -3.234375 C 5.894531 -3.085938 6.023438 -3.015625 6.234375 -3.015625 C 6.398438 -3.015625 6.554688 -3.019531 6.703125 -3.03125 C 6.847656 -3.050781 6.945312 -3.0625 7 -3.0625 L 7 -0.125 C 6.75 -0.0625 6.390625 0.00390625 5.921875 0.078125 C 5.460938 0.160156 5.007812 0.203125 4.5625 0.203125 Z M 4.5625 0.203125 "/></g></g></g><g fill="#ffffff" fill-opacity="1"><g transform="translate(158.849625, 31.551329)"><g><path d="M 0.859375 -17.96875 L 5.15625 -17.96875 L 5.15625 -15.984375 C 5.363281 -16.679688 5.734375 -17.222656 6.265625 -17.609375 C 6.796875 -17.992188 7.457031 -18.1875 8.25 -18.1875 L 8.25 -14.609375 C 7.644531 -14.609375 6.976562 -14.519531 6.25 -14.34375 C 5.519531 -14.175781 5.15625 -13.976562 5.15625 -13.75 L 5.15625 0 L 0.859375 0 Z M 0.859375 -17.96875 "/></g></g></g><g fill="#ffffff" fill-opacity="1"><g transform="translate(167.294721, 31.551329)"><g><path d="M 6.09375 0.203125 C 2.507812 0.203125 0.71875 -1.65625 0.71875 -5.375 L 0.71875 -12.59375 C 0.71875 -14.289062 1.191406 -15.644531 2.140625 -16.65625 C 3.097656 -17.664062 4.414062 -18.171875 6.09375 -18.171875 C 7.757812 -18.171875 9.070312 -17.664062 10.03125 -16.65625 C 10.988281 -15.644531 11.46875 -14.289062 11.46875 -12.59375 L 11.46875 -5.375 C 11.46875 -1.65625 9.675781 0.203125 6.09375 0.203125 Z M 6.09375 -3.125 C 6.4375 -3.125 6.6875 -3.242188 6.84375 -3.484375 C 7.007812 -3.734375 7.09375 -4.066406 7.09375 -4.484375 L 7.09375 -13.28125 C 7.09375 -14.320312 6.757812 -14.84375 6.09375 -14.84375 C 5.414062 -14.84375 5.078125 -14.320312 5.078125 -13.28125 L 5.078125 -4.484375 C 5.078125 -4.066406 5.160156 -3.734375 5.328125 -3.484375 C 5.492188 -3.242188 5.75 -3.125 6.09375 -3.125 Z M 6.09375 -3.125 "/></g></g></g><g fill="#ffffff" fill-opacity="1"><g transform="translate(179.495912, 31.551329)"><g><path d="M 0.859375 0 L 0.859375 -21.203125 L 5.234375 -21.203125 L 5.234375 0 Z M 0.859375 0 "/></g></g></g></svg>