<svg width="120" height="120" viewBox="0 0 120 120" fill="none" xmlns="http://www.w3.org/2000/svg">
  <rect width="120" height="120" rx="24" fill="#FFF8E7"/>
  <path d="M31 87L48 19C48.5788 16.6887 51.6463 16.2062 52.9072 18.2256L64 36L31 87Z" fill="#FFA000"/>
  <path d="M31 87L41.9526 44.8877C42.5132 42.7318 45.2595 42.2015 46.5746 43.9968L56 57.5L31 87Z" fill="#F57C00"/>
  <path d="M31 87L84.7436 38.0065C86.6317 36.2844 89.6361 37.3046 90.1003 39.8152L97 77L31 87Z" fill="#FFCA28"/>
  <path d="M64 36L72.2971 27.115C73.9213 25.3755 76.8247 25.9476 77.6444 28.1807L84.7436 38.0065L64 36Z" fill="#FFD54F"/>
</svg>
