<svg xmlns="http://www.w3.org/2000/svg" xmlns:xlink="http://www.w3.org/1999/xlink" width="242" zoomAndPan="magnify" viewBox="0 0 181.5 39.749999" height="53" preserveAspectRatio="xMidYMid meet" version="1.0"><defs><g/><clipPath id="a33ea9e011"><path d="M 0.320312 0 L 33.113281 0 L 33.113281 38 L 0.320312 38 Z M 0.320312 0 " clip-rule="nonzero"/></clipPath></defs><g clip-path="url(#a33ea9e011)"><path fill="#e44d26" d="M 3.296875 34.128906 L 0.308594 0.105469 L 33.121094 0.105469 L 30.132812 34.125 L 16.695312 37.90625 Z M 3.296875 34.128906 " fill-opacity="1" fill-rule="nonzero"/></g><path fill="#f16529" d="M 27.574219 31.957031 L 30.128906 2.886719 L 16.714844 2.886719 L 16.714844 35.015625 Z M 27.574219 31.957031 " fill-opacity="1" fill-rule="nonzero"/><path fill="#ebebeb" d="M 16.703125 7.058594 L 6.414062 7.058594 L 7.523438 19.679688 L 16.714844 19.679688 L 16.714844 15.507812 L 11.28125 15.507812 L 10.90625 11.234375 L 16.714844 11.234375 L 16.714844 7.058594 Z M 16.714844 26.328125 L 16.699219 26.335938 L 12.125 25.078125 L 11.832031 21.753906 L 7.707031 21.753906 L 8.28125 28.304688 L 16.695312 30.664062 L 16.714844 30.660156 Z M 16.714844 26.328125 " fill-opacity="1" fill-rule="nonzero"/><path fill="#ffffff" d="M 16.703125 19.679688 L 21.761719 19.679688 L 21.296875 25.089844 L 16.714844 26.34375 L 16.714844 30.6875 L 25.136719 28.316406 L 26.261719 15.503906 L 16.714844 15.503906 Z M 26.894531 8.179688 L 26.992188 7.058594 L 16.699219 7.058594 L 16.699219 11.234375 L 26.621094 11.234375 L 26.703125 10.292969 Z M 26.894531 8.179688 " fill-opacity="1" fill-rule="nonzero"/><g fill="#ffffff" fill-opacity="1"><g transform="translate(46.163231, 28.967821)"><g><path d="M 17.046875 -13.71875 L 17.046875 -21.984375 L 21.390625 -21.984375 L 21.390625 0 L 17.046875 0 L 17.046875 -10.015625 L 7.203125 -10.015625 L 7.203125 0 L 2.859375 0 L 2.859375 -21.984375 L 7.203125 -21.984375 L 7.203125 -13.71875 Z M 17.046875 -13.71875 "/></g></g></g><g fill="#ffffff" fill-opacity="1"><g transform="translate(70.423108, 28.967821)"><g><path d="M 17.625 -21.984375 L 17.625 -18.328125 L 11.28125 -18.328125 L 11.28125 0 L 6.953125 0 L 6.953125 -18.328125 L 0.59375 -18.328125 L 0.59375 -21.984375 Z M 17.625 -21.984375 "/></g></g></g><g fill="#ffffff" fill-opacity="1"><g transform="translate(88.651852, 28.967821)"><g><path d="M 6.84375 0 L 2.859375 0 L 2.859375 -21.984375 L 8.546875 -21.984375 L 14.109375 -5.8125 L 14.421875 -5.8125 L 19.953125 -21.984375 L 25.5 -21.984375 L 25.5 0 L 21.390625 0 L 21.390625 -14.53125 L 21 -14.59375 L 15.921875 0 L 12.296875 0 L 7.21875 -14.59375 L 6.84375 -14.53125 Z M 6.84375 0 "/></g></g></g><g fill="#ffffff" fill-opacity="1"><g transform="translate(117.032749, 28.967821)"><g><path d="M 7.203125 -21.984375 L 7.203125 -3.640625 L 17.078125 -3.640625 L 17.078125 0 L 2.859375 0 L 2.859375 -21.984375 Z M 7.203125 -21.984375 "/></g></g></g></svg>