<svg width="120" height="120" viewBox="0 0 120 120" fill="none" xmlns="http://www.w3.org/2000/svg">
  <rect width="120" height="120" rx="24" fill="#F3FFF6"/>
  <path d="M60 15C60 15 34 31.5 34 62.5C34 82.4463 46.1254 95.7547 57.3638 103.403C58.9785 104.5 61.0215 104.5 62.6362 103.403C73.8746 95.7547 86 82.4463 86 62.5C86 31.5 60 15 60 15Z" fill="#00A35C"/>
  <path d="M60 22C60 22 45 39.4978 45 62.6224C45 76.771 52.2218 88.6481 60 96C67.7782 88.6481 75 76.771 75 62.6224C75 39.4978 60 22 60 22Z" fill="#58AA50"/>
  <path d="M60 14V106" stroke="#23492F" stroke-width="4" stroke-linecap="round"/>
</svg>
