<svg xmlns="http://www.w3.org/2000/svg" xmlns:xlink="http://www.w3.org/1999/xlink" width="242" zoomAndPan="magnify" viewBox="0 0 181.5 39.749999" height="53" preserveAspectRatio="xMidYMid meet" version="1.0"><defs><g/><clipPath id="33630f266a"><path d="M 5 1 L 33 1 L 33 33 L 5 33 Z M 5 1 " clip-rule="nonzero"/></clipPath><clipPath id="dbd6b1d253"><path d="M 33.425781 3.027344 L 7.277344 33.625 L 5.011719 31.6875 L 31.160156 1.089844 Z M 33.425781 3.027344 " clip-rule="nonzero"/></clipPath><clipPath id="046cd2bdcb"><path d="M 33.425781 3.027344 L 7.277344 33.625 L 5.011719 31.6875 L 31.160156 1.089844 Z M 33.425781 3.027344 " clip-rule="nonzero"/></clipPath><clipPath id="04ddc70e5d"><path d="M 33.425781 3.027344 L 7.277344 33.625 L 5.011719 31.6875 L 31.160156 1.089844 Z M 33.425781 3.027344 " clip-rule="nonzero"/></clipPath><clipPath id="4bf4faf69a"><path d="M 19 11 L 37 11 L 37 32 L 19 32 Z M 19 11 " clip-rule="nonzero"/></clipPath><clipPath id="7ac5f48dab"><path d="M 36.675781 12.199219 L 20.476562 31.6875 L 18.753906 30.257812 L 34.953125 10.769531 Z M 36.675781 12.199219 " clip-rule="nonzero"/></clipPath><clipPath id="dff6949176"><path d="M 35.929688 11.578125 C 35.730469 11.414062 35.476562 11.335938 35.222656 11.359375 C 34.964844 11.382812 34.730469 11.507812 34.566406 11.703125 L 19.828125 29.433594 C 19.664062 29.632812 19.585938 29.886719 19.609375 30.144531 C 19.632812 30.398438 19.753906 30.632812 19.953125 30.796875 C 20.152344 30.960938 20.40625 31.042969 20.660156 31.019531 C 20.917969 30.996094 21.152344 30.871094 21.316406 30.671875 L 36.054688 12.941406 C 36.21875 12.746094 36.296875 12.492188 36.273438 12.234375 C 36.25 11.980469 36.125 11.742188 35.929688 11.578125 Z M 35.929688 11.578125 " clip-rule="nonzero"/></clipPath><clipPath id="b7daa31e67"><path d="M 36.675781 12.199219 L 20.476562 31.6875 L 18.753906 30.257812 L 34.953125 10.769531 Z M 36.675781 12.199219 " clip-rule="nonzero"/></clipPath><clipPath id="9852c171e4"><path d="M 36.675781 12.199219 L 20.476562 31.6875 L 18.753906 30.257812 L 34.953125 10.769531 Z M 36.675781 12.199219 " clip-rule="nonzero"/></clipPath><clipPath id="cde585490b"><path d="M 36.675781 12.199219 L 20.476562 31.6875 L 18.753906 30.257812 L 34.953125 10.769531 Z M 36.675781 12.199219 " clip-rule="nonzero"/></clipPath></defs><g fill="#ffffff" fill-opacity="1"><g transform="translate(39.616119, 27.190586)"><g><path d="M 8.171875 0.265625 C 6.890625 0.265625 5.75 0.109375 4.75 -0.203125 C 3.757812 -0.523438 2.929688 -0.941406 2.265625 -1.453125 C 1.609375 -1.960938 1.101562 -2.523438 0.75 -3.140625 L 2.75 -5.59375 L 3.0625 -5.59375 C 3.613281 -4.757812 4.316406 -4.097656 5.171875 -3.609375 C 6.023438 -3.128906 7.023438 -2.890625 8.171875 -2.890625 C 9.148438 -2.890625 9.882812 -3.09375 10.375 -3.5 C 10.875 -3.914062 11.125 -4.484375 11.125 -5.203125 C 11.125 -5.640625 11.039062 -6.003906 10.875 -6.296875 C 10.71875 -6.597656 10.453125 -6.851562 10.078125 -7.0625 C 9.710938 -7.269531 9.21875 -7.453125 8.59375 -7.609375 L 6.21875 -8.140625 C 4.5625 -8.523438 3.328125 -9.15625 2.515625 -10.03125 C 1.703125 -10.90625 1.296875 -12.046875 1.296875 -13.453125 C 1.296875 -14.492188 1.554688 -15.410156 2.078125 -16.203125 C 2.597656 -16.992188 3.359375 -17.609375 4.359375 -18.046875 C 5.359375 -18.484375 6.550781 -18.703125 7.9375 -18.703125 C 9.351562 -18.703125 10.566406 -18.515625 11.578125 -18.140625 C 12.597656 -17.765625 13.457031 -17.191406 14.15625 -16.421875 L 12.34375 -13.953125 L 12.03125 -13.953125 C 11.507812 -14.492188 10.910156 -14.898438 10.234375 -15.171875 C 9.566406 -15.453125 8.800781 -15.59375 7.9375 -15.59375 C 6.9375 -15.59375 6.175781 -15.414062 5.65625 -15.0625 C 5.132812 -14.707031 4.875 -14.21875 4.875 -13.59375 C 4.875 -13.007812 5.054688 -12.546875 5.421875 -12.203125 C 5.785156 -11.859375 6.414062 -11.59375 7.3125 -11.40625 L 9.734375 -10.890625 C 11.523438 -10.515625 12.820312 -9.875 13.625 -8.96875 C 14.4375 -8.070312 14.84375 -6.894531 14.84375 -5.4375 C 14.84375 -4.28125 14.59375 -3.273438 14.09375 -2.421875 C 13.601562 -1.566406 12.859375 -0.90625 11.859375 -0.4375 C 10.859375 0.03125 9.628906 0.265625 8.171875 0.265625 Z M 8.171875 0.265625 "/></g></g></g><g fill="#ffffff" fill-opacity="1"><g transform="translate(55.457011, 27.190586)"><g><path d="M 2 0 L 2 -19.5 L 5.5 -19.5 L 5.5 -12.09375 L 5.765625 -12.046875 C 6.222656 -12.722656 6.785156 -13.242188 7.453125 -13.609375 C 8.128906 -13.984375 8.945312 -14.171875 9.90625 -14.171875 C 12.96875 -14.171875 14.5 -12.429688 14.5 -8.953125 L 14.5 0 L 11.015625 0 L 11.015625 -8.515625 C 11.015625 -9.460938 10.820312 -10.148438 10.4375 -10.578125 C 10.0625 -11.003906 9.472656 -11.21875 8.671875 -11.21875 C 7.703125 -11.21875 6.929688 -10.890625 6.359375 -10.234375 C 5.785156 -9.585938 5.5 -8.578125 5.5 -7.203125 L 5.5 0 Z M 2 0 "/></g></g></g><g fill="#ffffff" fill-opacity="1"><g transform="translate(71.751941, 27.190586)"><g><path d="M 5.421875 0.265625 C 4.535156 0.265625 3.765625 0.101562 3.109375 -0.21875 C 2.453125 -0.550781 1.945312 -1.035156 1.59375 -1.671875 C 1.238281 -2.304688 1.0625 -3.066406 1.0625 -3.953125 C 1.0625 -4.785156 1.238281 -5.476562 1.59375 -6.03125 C 1.945312 -6.59375 2.492188 -7.050781 3.234375 -7.40625 C 3.972656 -7.757812 4.9375 -8.035156 6.125 -8.234375 C 6.957031 -8.367188 7.585938 -8.515625 8.015625 -8.671875 C 8.453125 -8.835938 8.742188 -9.019531 8.890625 -9.21875 C 9.046875 -9.414062 9.125 -9.671875 9.125 -9.984375 C 9.125 -10.429688 8.96875 -10.769531 8.65625 -11 C 8.351562 -11.238281 7.835938 -11.359375 7.109375 -11.359375 C 6.335938 -11.359375 5.601562 -11.1875 4.90625 -10.84375 C 4.207031 -10.5 3.601562 -10.046875 3.09375 -9.484375 L 2.84375 -9.484375 L 1.375 -11.6875 C 2.082031 -12.46875 2.941406 -13.078125 3.953125 -13.515625 C 4.972656 -13.953125 6.085938 -14.171875 7.296875 -14.171875 C 9.128906 -14.171875 10.457031 -13.78125 11.28125 -13 C 12.101562 -12.21875 12.515625 -11.109375 12.515625 -9.671875 L 12.515625 -3.625 C 12.515625 -3.007812 12.789062 -2.703125 13.34375 -2.703125 C 13.550781 -2.703125 13.753906 -2.738281 13.953125 -2.8125 L 14.140625 -2.765625 L 14.390625 -0.328125 C 14.191406 -0.203125 13.921875 -0.0976562 13.578125 -0.015625 C 13.234375 0.0546875 12.859375 0.09375 12.453125 0.09375 C 11.617188 0.09375 10.96875 -0.0625 10.5 -0.375 C 10.03125 -0.695312 9.695312 -1.195312 9.5 -1.875 L 9.234375 -1.90625 C 8.546875 -0.457031 7.273438 0.265625 5.421875 0.265625 Z M 6.53125 -2.34375 C 7.34375 -2.34375 7.988281 -2.613281 8.46875 -3.15625 C 8.945312 -3.695312 9.1875 -4.453125 9.1875 -5.421875 L 9.1875 -6.828125 L 8.953125 -6.890625 C 8.742188 -6.722656 8.46875 -6.582031 8.125 -6.46875 C 7.789062 -6.351562 7.300781 -6.238281 6.65625 -6.125 C 5.90625 -6 5.363281 -5.78125 5.03125 -5.46875 C 4.695312 -5.164062 4.53125 -4.734375 4.53125 -4.171875 C 4.53125 -3.578125 4.707031 -3.125 5.0625 -2.8125 C 5.414062 -2.5 5.90625 -2.34375 6.53125 -2.34375 Z M 6.53125 -2.34375 "/></g></g></g><g fill="#ffffff" fill-opacity="1"><g transform="translate(86.419901, 27.190586)"><g><path d="M 6.875 0.265625 C 5.769531 0.265625 4.796875 0 3.953125 -0.53125 C 3.109375 -1.070312 2.445312 -1.878906 1.96875 -2.953125 C 1.488281 -4.035156 1.25 -5.367188 1.25 -6.953125 C 1.25 -8.535156 1.492188 -9.867188 1.984375 -10.953125 C 2.472656 -12.035156 3.148438 -12.84375 4.015625 -13.375 C 4.890625 -13.90625 5.898438 -14.171875 7.046875 -14.171875 C 7.910156 -14.171875 8.660156 -14.019531 9.296875 -13.71875 C 9.929688 -13.425781 10.46875 -12.960938 10.90625 -12.328125 L 11.171875 -12.390625 L 11.171875 -19.5 L 14.671875 -19.5 L 14.671875 0 L 11.171875 0 L 11.171875 -1.796875 L 10.90625 -1.859375 C 10.519531 -1.203125 9.988281 -0.679688 9.3125 -0.296875 C 8.644531 0.078125 7.832031 0.265625 6.875 0.265625 Z M 8.015625 -2.703125 C 8.992188 -2.703125 9.769531 -3.050781 10.34375 -3.75 C 10.914062 -4.457031 11.203125 -5.523438 11.203125 -6.953125 C 11.203125 -8.378906 10.914062 -9.445312 10.34375 -10.15625 C 9.769531 -10.863281 8.992188 -11.21875 8.015625 -11.21875 C 6.984375 -11.21875 6.195312 -10.875 5.65625 -10.1875 C 5.113281 -9.5 4.84375 -8.421875 4.84375 -6.953125 C 4.84375 -5.484375 5.113281 -4.40625 5.65625 -3.71875 C 6.195312 -3.039062 6.984375 -2.703125 8.015625 -2.703125 Z M 8.015625 -2.703125 "/></g></g></g><g fill="#ffffff" fill-opacity="1"><g transform="translate(103.093196, 27.190586)"><g/></g></g><g fill="#ffffff" fill-opacity="1"><g transform="translate(109.184877, 27.190586)"><g><path d="M 10.078125 0.265625 C 8.378906 0.265625 6.878906 -0.0859375 5.578125 -0.796875 C 4.285156 -1.503906 3.273438 -2.566406 2.546875 -3.984375 C 1.816406 -5.398438 1.453125 -7.144531 1.453125 -9.21875 C 1.453125 -11.289062 1.816406 -13.035156 2.546875 -14.453125 C 3.273438 -15.867188 4.285156 -16.929688 5.578125 -17.640625 C 6.878906 -18.347656 8.378906 -18.703125 10.078125 -18.703125 C 11.847656 -18.703125 13.351562 -18.351562 14.59375 -17.65625 C 15.832031 -16.96875 16.71875 -15.910156 17.25 -14.484375 L 14.59375 -12.859375 L 14.28125 -12.875 C 13.882812 -13.832031 13.347656 -14.519531 12.671875 -14.9375 C 11.992188 -15.351562 11.128906 -15.5625 10.078125 -15.5625 C 8.546875 -15.5625 7.347656 -15.050781 6.484375 -14.03125 C 5.628906 -13.019531 5.203125 -11.414062 5.203125 -9.21875 C 5.203125 -7.019531 5.628906 -5.414062 6.484375 -4.40625 C 7.347656 -3.394531 8.546875 -2.890625 10.078125 -2.890625 C 12.472656 -2.890625 13.941406 -4.050781 14.484375 -6.375 L 14.796875 -6.375 L 17.484375 -4.984375 C 16.972656 -3.234375 16.109375 -1.921875 14.890625 -1.046875 C 13.671875 -0.171875 12.066406 0.265625 10.078125 0.265625 Z M 10.078125 0.265625 "/></g></g></g><g fill="#ffffff" fill-opacity="1"><g transform="translate(127.270736, 27.190586)"><g><path d="M 2 0 L 2 -13.90625 L 5.359375 -13.90625 L 5.359375 -11.875 L 5.625 -11.796875 C 6.488281 -13.378906 7.894531 -14.171875 9.84375 -14.171875 C 11.445312 -14.171875 12.625 -13.734375 13.375 -12.859375 C 14.125 -11.984375 14.5 -10.710938 14.5 -9.046875 L 14.5 0 L 11.015625 0 L 11.015625 -8.609375 C 11.015625 -9.535156 10.828125 -10.203125 10.453125 -10.609375 C 10.085938 -11.015625 9.492188 -11.21875 8.671875 -11.21875 C 7.671875 -11.21875 6.890625 -10.894531 6.328125 -10.25 C 5.773438 -9.601562 5.5 -8.585938 5.5 -7.203125 L 5.5 0 Z M 2 0 "/></g></g></g><g fill="#ffffff" fill-opacity="1"><g transform="translate(143.565666, 27.190586)"><g/></g></g><g fill="#ffffff" fill-opacity="1"><g transform="translate(149.657347, 27.190586)"><g><path d="M 9.78125 0.265625 C 7.238281 0.265625 5.351562 -0.335938 4.125 -1.546875 C 2.894531 -2.753906 2.28125 -4.539062 2.28125 -6.90625 L 2.28125 -18.4375 L 5.859375 -18.4375 L 5.859375 -6.9375 C 5.859375 -5.59375 6.179688 -4.582031 6.828125 -3.90625 C 7.472656 -3.238281 8.457031 -2.90625 9.78125 -2.90625 C 12.394531 -2.90625 13.703125 -4.25 13.703125 -6.9375 L 13.703125 -18.4375 L 17.265625 -18.4375 L 17.265625 -6.90625 C 17.265625 -4.539062 16.648438 -2.753906 15.421875 -1.546875 C 14.191406 -0.335938 12.3125 0.265625 9.78125 0.265625 Z M 9.78125 0.265625 "/></g></g></g><g fill="#ffffff" fill-opacity="1"><g transform="translate(169.206218, 27.190586)"><g><path d="M 3.75 -15.578125 C 3.113281 -15.578125 2.597656 -15.765625 2.203125 -16.140625 C 1.804688 -16.523438 1.609375 -17.019531 1.609375 -17.625 C 1.609375 -18.226562 1.804688 -18.71875 2.203125 -19.09375 C 2.597656 -19.476562 3.113281 -19.671875 3.75 -19.671875 C 4.164062 -19.671875 4.535156 -19.582031 4.859375 -19.40625 C 5.191406 -19.226562 5.445312 -18.984375 5.625 -18.671875 C 5.8125 -18.367188 5.90625 -18.019531 5.90625 -17.625 C 5.90625 -17.226562 5.8125 -16.875 5.625 -16.5625 C 5.445312 -16.257812 5.191406 -16.019531 4.859375 -15.84375 C 4.535156 -15.664062 4.164062 -15.578125 3.75 -15.578125 Z M 2 0 L 2 -13.90625 L 5.5 -13.90625 L 5.5 0 Z M 2 0 "/></g></g></g><g clip-path="url(#33630f266a)"><g clip-path="url(#dbd6b1d253)"><g clip-path="url(#046cd2bdcb)"><g clip-path="url(#04ddc70e5d)"><path fill="#000000" d="M 8.40625 32.304688 L 32.296875 4.34375 C 32.769531 3.792969 32.644531 2.910156 32.019531 2.378906 C 31.394531 1.84375 30.503906 1.855469 30.03125 2.40625 L 6.140625 30.367188 C 5.667969 30.921875 5.792969 31.800781 6.417969 32.335938 C 7.042969 32.871094 7.933594 32.855469 8.40625 32.304688 Z M 8.40625 32.304688 " fill-opacity="1" fill-rule="nonzero"/></g></g></g></g><g clip-path="url(#4bf4faf69a)"><g clip-path="url(#7ac5f48dab)"><g clip-path="url(#dff6949176)"><g clip-path="url(#b7daa31e67)"><g clip-path="url(#9852c171e4)"><g clip-path="url(#cde585490b)"><path fill="#000000" d="M 36.667969 12.195312 L 20.46875 31.683594 L 18.761719 30.261719 L 34.960938 10.773438 Z M 36.667969 12.195312 " fill-opacity="1" fill-rule="nonzero"/></g></g></g></g></g></g></svg>