<svg xmlns="http://www.w3.org/2000/svg" xmlns:xlink="http://www.w3.org/1999/xlink" width="242" zoomAndPan="magnify" viewBox="0 0 181.5 39.749999" height="53" preserveAspectRatio="xMidYMid meet" version="1.0"><defs><g/><clipPath id="06c752ed88"><path d="M 4.269531 0.8125 L 49.734375 0.8125 L 49.734375 38.820312 L 4.269531 38.820312 Z M 4.269531 0.8125 " clip-rule="nonzero"/></clipPath></defs><path fill="#98ccfd" d="M 38.777344 23.691406 L 5.246094 23.691406 C 5.246094 23.691406 5.246094 31.742188 5.246094 31.742188 C 5.246094 35.121094 12.753906 37.855469 22.011719 37.855469 C 31.273438 37.855469 38.777344 35.121094 38.777344 31.742188 C 38.777344 31.742188 38.777344 23.691406 38.777344 23.691406 Z M 38.777344 23.691406 " fill-opacity="1" fill-rule="nonzero"/><path fill="#dff0fe" d="M 38.777344 15.785156 L 5.246094 15.785156 C 5.246094 15.785156 5.246094 23.835938 5.246094 23.835938 C 5.246094 27.214844 12.753906 29.949219 22.011719 29.949219 C 31.273438 29.949219 38.777344 27.214844 38.777344 23.835938 C 38.777344 23.835938 38.777344 15.785156 38.777344 15.785156 Z M 38.777344 15.785156 " fill-opacity="1" fill-rule="nonzero"/><path fill="#ffffff" d="M 38.777344 7.890625 L 5.246094 7.890625 C 5.246094 7.890625 5.246094 15.941406 5.246094 15.941406 C 5.246094 19.316406 12.753906 22.054688 22.011719 22.054688 C 31.273438 22.054688 38.777344 19.316406 38.777344 15.941406 C 38.777344 15.941406 38.777344 7.890625 38.777344 7.890625 Z M 38.777344 7.890625 " fill-opacity="1" fill-rule="nonzero"/><path fill="#ffffff" d="M 22.011719 14 C 31.273438 14 38.777344 11.261719 38.777344 7.886719 C 38.777344 4.511719 31.273438 1.777344 22.011719 1.777344 C 12.753906 1.777344 5.246094 4.511719 5.246094 7.886719 C 5.246094 11.261719 12.753906 14 22.011719 14 Z M 22.011719 14 " fill-opacity="1" fill-rule="nonzero"/><path fill="#ffffff" d="M 45.636719 17.855469 L 25.128906 17.855469 C 23.40625 17.855469 22.011719 19.246094 22.011719 20.964844 L 22.011719 30.765625 C 22.011719 32.484375 23.40625 33.878906 25.128906 33.878906 L 45.636719 33.878906 C 47.359375 33.878906 48.753906 32.484375 48.753906 30.765625 L 48.753906 20.964844 C 48.753906 19.246094 47.359375 17.855469 45.636719 17.855469 Z M 45.636719 17.855469 " fill-opacity="1" fill-rule="nonzero"/><path fill="#dff0fe" d="M 36.117188 22.125 L 34.585938 22.125 C 33.941406 22.125 33.417969 22.648438 33.417969 23.289062 L 33.417969 27.386719 C 33.417969 28.03125 33.941406 28.554688 34.585938 28.554688 L 36.117188 28.554688 C 36.761719 28.554688 37.285156 28.03125 37.285156 27.386719 L 37.285156 23.289062 C 37.285156 22.648438 36.761719 22.125 36.117188 22.125 Z M 36.117188 22.125 " fill-opacity="1" fill-rule="nonzero"/><g clip-path="url(#06c752ed88)"><path fill="#2a5075" d="M 45.636719 16.890625 L 39.746094 16.890625 L 39.746094 7.890625 C 39.746094 7.890625 39.746094 7.886719 39.746094 7.886719 C 39.746094 3.289062 30.609375 0.808594 22.011719 0.808594 C 13.414062 0.808594 4.28125 3.289062 4.28125 7.886719 C 4.28125 7.886719 4.28125 7.890625 4.28125 7.890625 L 4.28125 31.742188 C 4.28125 36.339844 13.414062 38.820312 22.011719 38.820312 C 29.03125 38.820312 35.289062 37.265625 38.09375 34.84375 L 45.636719 34.84375 C 47.890625 34.84375 49.722656 33.015625 49.722656 30.765625 L 49.722656 20.964844 C 49.722656 18.71875 47.890625 16.890625 45.636719 16.890625 Z M 25.128906 16.890625 C 22.878906 16.890625 21.046875 18.71875 21.046875 20.964844 L 21.046875 21.070312 C 12.269531 20.886719 6.21875 18.28125 6.214844 15.945312 L 6.214844 11.21875 C 9.34375 13.667969 15.808594 14.964844 22.011719 14.964844 C 28.214844 14.964844 34.679688 13.667969 37.8125 11.21875 L 37.8125 15.941406 C 37.8125 16.25 37.695312 16.566406 37.472656 16.890625 Z M 6.214844 23.839844 L 6.214844 19.265625 C 9.183594 21.589844 15.160156 22.875 21.046875 23 L 21.046875 28.96875 C 12.277344 28.78125 6.21875 26.167969 6.214844 23.839844 Z M 22.011719 2.742188 C 31.054688 2.742188 37.8125 5.457031 37.8125 7.886719 C 37.8125 10.316406 31.054688 13.035156 22.011719 13.035156 C 12.96875 13.035156 6.214844 10.316406 6.214844 7.886719 C 6.214844 5.457031 12.96875 2.742188 22.011719 2.742188 Z M 22.011719 36.890625 C 12.96875 36.890625 6.214844 34.171875 6.214844 31.742188 L 6.214844 27.15625 C 9.191406 29.480469 15.183594 30.773438 21.058594 30.898438 C 21.128906 33.085938 22.921875 34.84375 25.128906 34.84375 L 34.34375 34.84375 C 31.355469 36.109375 26.847656 36.890625 22.011719 36.890625 Z M 47.789062 30.765625 C 47.789062 31.949219 46.824219 32.914062 45.636719 32.914062 L 25.128906 32.914062 C 23.945312 32.914062 22.980469 31.949219 22.980469 30.765625 L 22.980469 20.964844 C 22.980469 19.78125 23.945312 18.820312 25.128906 18.820312 L 45.636719 18.820312 C 46.824219 18.820312 47.789062 19.78125 47.789062 20.964844 Z M 26.859375 23.257812 L 26.859375 24.207031 C 26.859375 24.296875 26.933594 24.375 27.027344 24.375 L 28.621094 24.375 C 29.78125 24.375 30.726562 25.316406 30.726562 26.472656 L 30.726562 27.417969 C 30.726562 28.578125 29.78125 29.519531 28.621094 29.519531 L 27.027344 29.519531 C 25.867188 29.519531 24.925781 28.578125 24.925781 27.417969 L 24.925781 27.167969 C 24.925781 26.632812 25.355469 26.203125 25.890625 26.203125 C 26.425781 26.203125 26.859375 26.632812 26.859375 27.167969 L 26.859375 27.417969 C 26.859375 27.511719 26.933594 27.589844 27.027344 27.589844 L 28.621094 27.589844 C 28.714844 27.589844 28.792969 27.511719 28.792969 27.417969 L 28.792969 26.472656 C 28.792969 26.378906 28.714844 26.304688 28.621094 26.304688 L 27.027344 26.304688 C 25.867188 26.304688 24.925781 25.363281 24.925781 24.207031 L 24.925781 23.257812 C 24.925781 22.101562 25.867188 21.160156 27.027344 21.160156 L 28.621094 21.160156 C 29.78125 21.160156 30.726562 22.101562 30.726562 23.257812 C 30.726562 23.792969 30.292969 24.226562 29.757812 24.226562 C 29.222656 24.226562 28.792969 23.792969 28.792969 23.257812 C 28.792969 23.167969 28.714844 23.089844 28.621094 23.089844 L 27.027344 23.089844 C 26.933594 23.089844 26.859375 23.167969 26.859375 23.257812 Z M 38.253906 27.386719 L 38.253906 23.289062 C 38.253906 22.117188 37.296875 21.160156 36.117188 21.160156 L 34.585938 21.160156 C 33.410156 21.160156 32.453125 22.117188 32.453125 23.289062 L 32.453125 27.386719 C 32.453125 28.5625 33.410156 29.519531 34.585938 29.519531 L 36.117188 29.519531 C 36.164062 29.519531 36.207031 29.507812 36.253906 29.503906 C 36.851562 30.101562 37.757812 30.339844 38.582031 30.097656 C 39.394531 29.75 38.113281 28.917969 37.945312 28.472656 C 38.136719 28.152344 38.253906 27.785156 38.253906 27.386719 Z M 34.386719 27.386719 L 34.386719 23.289062 C 34.386719 23.179688 34.476562 23.089844 34.585938 23.089844 L 36.117188 23.089844 C 36.230469 23.089844 36.320312 23.179688 36.320312 23.289062 L 36.320312 27.386719 C 36.320312 27.5 36.230469 27.589844 36.117188 27.589844 L 34.585938 27.589844 C 34.476562 27.589844 34.386719 27.5 34.386719 27.386719 Z M 45.988281 27.386719 C 45.988281 28.5625 45.03125 29.519531 43.851562 29.519531 L 42.320312 29.519531 C 41.144531 29.519531 40.1875 28.5625 40.1875 27.386719 L 40.1875 22.125 C 40.1875 21.59375 40.617188 21.160156 41.152344 21.160156 C 41.6875 21.160156 42.121094 21.59375 42.121094 22.125 L 42.121094 27.386719 C 42.121094 27.5 42.210938 27.589844 42.320312 27.589844 L 43.851562 27.589844 C 43.964844 27.589844 44.054688 27.5 44.054688 27.386719 C 44.054688 26.855469 44.488281 26.421875 45.019531 26.421875 C 45.554688 26.421875 45.988281 26.855469 45.988281 27.386719 Z M 15.589844 7.886719 C 15.589844 7.792969 15.664062 7.71875 15.757812 7.71875 L 17.691406 7.71875 C 17.785156 7.71875 17.863281 7.792969 17.863281 7.886719 C 17.863281 7.980469 17.785156 8.054688 17.691406 8.054688 L 15.757812 8.054688 C 15.664062 8.054688 15.589844 7.980469 15.589844 7.886719 Z M 20.425781 7.886719 C 20.425781 7.792969 20.5 7.71875 20.59375 7.71875 L 22.527344 7.71875 C 22.621094 7.71875 22.695312 7.792969 22.695312 7.886719 C 22.695312 7.980469 22.621094 8.054688 22.527344 8.054688 L 20.59375 8.054688 C 20.5 8.054688 20.425781 7.980469 20.425781 7.886719 Z M 25.257812 7.886719 C 25.257812 7.792969 25.332031 7.71875 25.425781 7.71875 L 27.359375 7.71875 C 27.453125 7.71875 27.53125 7.792969 27.53125 7.886719 C 27.53125 7.980469 27.453125 8.054688 27.359375 8.054688 L 25.425781 8.054688 C 25.332031 8.054688 25.257812 7.980469 25.257812 7.886719 Z M 25.257812 7.886719 " fill-opacity="1" fill-rule="nonzero"/></g><g fill="#ffffff" fill-opacity="1"><g transform="translate(57.427216, 31.352813)"><g><path d="M 11.9375 0.390625 C 10.070312 0.390625 8.410156 0.160156 6.953125 -0.296875 C 5.503906 -0.765625 4.289062 -1.375 3.3125 -2.125 C 2.34375 -2.875 1.601562 -3.695312 1.09375 -4.59375 L 4.015625 -8.171875 L 4.484375 -8.171875 C 5.296875 -6.960938 6.320312 -6 7.5625 -5.28125 C 8.8125 -4.570312 10.269531 -4.21875 11.9375 -4.21875 C 13.363281 -4.21875 14.4375 -4.519531 15.15625 -5.125 C 15.882812 -5.726562 16.25 -6.554688 16.25 -7.609375 C 16.25 -8.253906 16.132812 -8.789062 15.90625 -9.21875 C 15.675781 -9.644531 15.289062 -10.007812 14.75 -10.3125 C 14.207031 -10.625 13.472656 -10.890625 12.546875 -11.109375 L 9.09375 -11.90625 C 6.664062 -12.457031 4.859375 -13.375 3.671875 -14.65625 C 2.492188 -15.945312 1.90625 -17.617188 1.90625 -19.671875 C 1.90625 -21.191406 2.285156 -22.53125 3.046875 -23.6875 C 3.804688 -24.84375 4.910156 -25.738281 6.359375 -26.375 C 7.816406 -27.007812 9.5625 -27.328125 11.59375 -27.328125 C 13.664062 -27.328125 15.441406 -27.050781 16.921875 -26.5 C 18.410156 -25.957031 19.664062 -25.125 20.6875 -24 L 18.046875 -20.390625 L 17.578125 -20.390625 C 16.816406 -21.179688 15.945312 -21.773438 14.96875 -22.171875 C 13.988281 -22.578125 12.863281 -22.78125 11.59375 -22.78125 C 10.132812 -22.78125 9.019531 -22.519531 8.25 -22 C 7.488281 -21.488281 7.109375 -20.78125 7.109375 -19.875 C 7.109375 -19.019531 7.375 -18.34375 7.90625 -17.84375 C 8.445312 -17.34375 9.375 -16.945312 10.6875 -16.65625 L 14.234375 -15.921875 C 16.847656 -15.367188 18.742188 -14.429688 19.921875 -13.109375 C 21.097656 -11.796875 21.6875 -10.070312 21.6875 -7.9375 C 21.6875 -6.257812 21.320312 -4.796875 20.59375 -3.546875 C 19.875 -2.296875 18.785156 -1.328125 17.328125 -0.640625 C 15.867188 0.046875 14.070312 0.390625 11.9375 0.390625 Z M 11.9375 0.390625 "/></g></g></g><g fill="#ffffff" fill-opacity="1"><g transform="translate(86.094803, 31.352813)"><g><path d="M 21.421875 6.703125 C 19.046875 6.703125 17.070312 6.128906 15.5 4.984375 C 13.9375 3.847656 12.882812 2.257812 12.34375 0.21875 C 10.289062 -0.0703125 8.5 -0.765625 6.96875 -1.859375 C 5.445312 -2.960938 4.257812 -4.484375 3.40625 -6.421875 C 2.550781 -8.367188 2.125 -10.71875 2.125 -13.46875 C 2.125 -16.550781 2.65625 -19.128906 3.71875 -21.203125 C 4.789062 -23.273438 6.269531 -24.8125 8.15625 -25.8125 C 10.039062 -26.820312 12.21875 -27.328125 14.6875 -27.328125 C 17.15625 -27.328125 19.328125 -26.828125 21.203125 -25.828125 C 23.085938 -24.828125 24.5625 -23.285156 25.625 -21.203125 C 26.6875 -19.128906 27.21875 -16.550781 27.21875 -13.46875 C 27.21875 -9.4375 26.351562 -6.34375 24.625 -4.1875 C 22.90625 -2.03125 20.484375 -0.691406 17.359375 -0.171875 L 17.265625 0.203125 C 17.648438 0.859375 18.21875 1.359375 18.96875 1.703125 C 19.726562 2.054688 20.613281 2.234375 21.625 2.234375 C 22.4375 2.234375 23.164062 2.128906 23.8125 1.921875 L 24.1875 1.984375 L 24.9375 6.15625 C 24.539062 6.300781 24.007812 6.425781 23.34375 6.53125 C 22.6875 6.644531 22.046875 6.703125 21.421875 6.703125 Z M 14.6875 -4.234375 C 16.976562 -4.234375 18.722656 -4.96875 19.921875 -6.4375 C 21.128906 -7.90625 21.734375 -10.25 21.734375 -13.46875 C 21.734375 -16.6875 21.128906 -19.035156 19.921875 -20.515625 C 18.722656 -21.992188 16.976562 -22.734375 14.6875 -22.734375 C 12.394531 -22.734375 10.640625 -21.992188 9.421875 -20.515625 C 8.210938 -19.035156 7.609375 -16.6875 7.609375 -13.46875 C 7.609375 -10.25 8.210938 -7.90625 9.421875 -6.4375 C 10.640625 -4.96875 12.394531 -4.234375 14.6875 -4.234375 Z M 14.6875 -4.234375 "/></g></g></g><g fill="#ffffff" fill-opacity="1"><g transform="translate(120.974962, 31.352813)"><g><path d="M 8.828125 -26.953125 L 8.828125 -4.453125 L 20.9375 -4.453125 L 20.9375 0 L 3.5 0 L 3.5 -26.953125 Z M 8.828125 -26.953125 "/></g></g></g></svg>